<?xml version="1.0" standalone="no"?>
 <!DOCTYPE svg PUBLIC "-//W3C//DTD SVG 1.1//EN" 
 "http://www.w3.org/Graphics/SVG/1.1/DTD/svg11.dtd"> 
<svg xmlns="http://www.w3.org/2000/svg" version="1.1" 
    width="29.7002cm" height="21.0007cm" viewBox="0 0 116930 82680 ">
<title>SVG Picture created as seminar.svg date 2015/05/27 02:16:46 </title>
  <desc>Picture generated by Eeschema-SVG </desc>
<g style="fill:#000000; fill-opacity:1;stroke:#000000; stroke-opacity:1;
stroke-linecap:round; stroke-linejoin:round; "
 transform="translate(0 0) scale(1 1)">
</g>
<g style="fill:#000000; fill-opacity:0.0; 
stroke:#000000; stroke-width:100; stroke-opacity:1; 
stroke-linecap:round; stroke-linejoin:round;">
<path d="M4000 4000
L112930 4000
L112930 78680
L4000 78680
L4000 4000
" />
<path d="M4700 4700
L112230 4700
L112230 77980
L4700 77980
L4700 4700
" />
<path d="M25780 4000
L25780 4700
" />
<path d="M15030 4550
L14750 4550
" />
<path d="M14890 4550
L14890 4050
L14840 4120
L14790 4170
L14750 4200
" />
<path d="M25780 78680
L25780 77980
" />
<path d="M15030 78530
L14750 78530
" />
<path d="M14890 78530
L14890 78030
L14840 78100
L14790 78150
L14750 78180
" />
<path d="M47560 4000
L47560 4700
" />
<path d="M36530 4100
L36550 4080
L36600 4050
L36720 4050
L36760 4080
L36790 4100
L36810 4150
L36810 4200
L36790 4270
L36500 4550
L36810 4550
" />
<path d="M47560 78680
L47560 77980
" />
<path d="M36530 78080
L36550 78060
L36600 78030
L36720 78030
L36760 78060
L36790 78080
L36810 78130
L36810 78180
L36790 78250
L36500 78530
L36810 78530
" />
<path d="M69340 4000
L69340 4700
" />
<path d="M58280 4050
L58590 4050
L58420 4240
L58500 4240
L58540 4270
L58570 4290
L58590 4340
L58590 4460
L58570 4500
L58540 4530
L58500 4550
L58350 4550
L58310 4530
L58280 4500
" />
<path d="M69340 78680
L69340 77980
" />
<path d="M58280 78030
L58590 78030
L58420 78220
L58500 78220
L58540 78250
L58570 78270
L58590 78320
L58590 78440
L58570 78480
L58540 78510
L58500 78530
L58350 78530
L58310 78510
L58280 78480
" />
<path d="M91120 4000
L91120 4700
" />
<path d="M80320 4220
L80320 4550
" />
<path d="M80200 4030
L80090 4390
L80390 4390
" />
<path d="M91120 78680
L91120 77980
" />
<path d="M80320 78200
L80320 78530
" />
<path d="M80200 78010
L80090 78370
L80390 78370
" />
<path d="M102130 4050
L101890 4050
L101870 4290
L101890 4270
L101940 4240
L102060 4240
L102100 4270
L102130 4290
L102150 4340
L102150 4460
L102130 4500
L102100 4530
L102060 4550
L101940 4550
L101890 4530
L101870 4500
" />
<path d="M102130 78030
L101890 78030
L101870 78270
L101890 78250
L101940 78220
L102060 78220
L102100 78250
L102130 78270
L102150 78320
L102150 78440
L102130 78480
L102100 78510
L102060 78530
L101940 78530
L101890 78510
L101870 78480
" />
<path d="M4000 28890
L4700 28890
" />
<path d="M4240 16510
L4470 16510
" />
<path d="M4190 16650
L4350 16150
L4520 16650
" />
<path d="M112930 28890
L112230 28890
" />
<path d="M112470 16510
L112700 16510
" />
<path d="M112420 16650
L112580 16150
L112750 16650
" />
<path d="M4000 53780
L4700 53780
" />
<path d="M4390 41280
L4460 41300
L4480 41330
L4500 41380
L4500 41450
L4480 41490
L4460 41520
L4410 41540
L4220 41540
L4220 41040
L4390 41040
L4430 41070
L4460 41090
L4480 41140
L4480 41190
L4460 41230
L4430 41260
L4390 41280
L4220 41280
" />
<path d="M112930 53780
L112230 53780
" />
<path d="M112620 41280
L112690 41300
L112710 41330
L112730 41380
L112730 41450
L112710 41490
L112690 41520
L112640 41540
L112450 41540
L112450 41040
L112620 41040
L112660 41070
L112690 41090
L112710 41140
L112710 41190
L112690 41230
L112660 41260
L112620 41280
L112450 41280
" />
<path d="M4500 66380
L4480 66410
L4410 66430
L4360 66430
L4290 66410
L4240 66360
L4220 66310
L4200 66220
L4200 66150
L4220 66050
L4240 66000
L4290 65960
L4360 65930
L4410 65930
L4480 65960
L4500 65980
" />
<path d="M112730 66380
L112710 66410
L112640 66430
L112590 66430
L112520 66410
L112470 66360
L112450 66310
L112430 66220
L112430 66150
L112450 66050
L112470 66000
L112520 65960
L112590 65930
L112640 65930
L112710 65960
L112730 65980
" />
<path d="M79380 76420
L79450 75820
L79600 75820
L79680 75850
L79730 75910
L79750 75970
L79770 76080
L79760 76170
L79720 76280
L79680 76340
L79610 76390
L79530 76420
L79380 76420
" />
<path d="M80240 76420
L80280 76110
L80250 76050
L80200 76020
L80090 76020
L80020 76050
" />
<path d="M80240 76390
L80180 76420
L80040 76420
L79980 76390
L79960 76340
L79970 76280
L80000 76220
L80070 76190
L80210 76190
L80270 76170
" />
<path d="M80490 76020
L80720 76020
" />
<path d="M80590 75820
L80530 76340
L80550 76390
L80610 76420
L80670 76420
" />
<path d="M81090 76390
L81030 76420
L80920 76420
L80860 76390
L80840 76340
L80870 76110
L80900 76050
L80970 76020
L81080 76020
L81130 76050
L81160 76110
L81150 76170
L80850 76220
" />
<path d="M81370 76370
L81400 76390
L81370 76420
L81340 76390
L81370 76370
L81370 76420
" />
<path d="M81410 76050
L81440 76080
L81410 76110
L81380 76080
L81410 76050
L81410 76110
" />
<path d="M82160 75880
L82190 75850
L82250 75820
L82390 75820
L82450 75850
L82480 75880
L82500 75940
L82490 75990
L82450 76080
L82070 76420
L82440 76420
" />
<path d="M82730 75880
L82760 75850
L82820 75820
L82960 75820
L83020 75850
L83050 75880
L83070 75940
L83060 75990
L83020 76080
L82640 76420
L83010 76420
" />
<path d="M83720 76420
L83770 76020
" />
<path d="M83760 76080
L83790 76050
L83860 76020
L83940 76020
L83990 76050
L84020 76110
L83980 76420
" />
<path d="M84020 76110
L84050 76050
L84120 76020
L84200 76020
L84250 76050
L84280 76110
L84240 76420
" />
<path d="M84780 76420
L84820 76110
L84790 76050
L84740 76020
L84630 76020
L84560 76050
" />
<path d="M84780 76390
L84720 76420
L84580 76420
L84520 76390
L84500 76340
L84510 76280
L84540 76220
L84610 76190
L84750 76190
L84810 76170
" />
<path d="M85060 76020
L85150 76420
" />
<path d="M85340 76020
L85150 76420
L85070 76570
L85040 76590
L84980 76620
" />
<path d="M86020 75880
L86050 75850
L86110 75820
L86250 75820
L86310 75850
L86340 75880
L86360 75940
L86350 75990
L86310 76080
L85930 76420
L86300 76420
" />
<path d="M86740 75820
L86790 75820
L86850 75850
L86880 75880
L86900 75940
L86910 76050
L86900 76190
L86850 76310
L86810 76370
L86780 76390
L86720 76420
L86670 76420
L86610 76390
L86580 76370
L86560 76310
L86550 76190
L86560 76050
L86610 75940
L86650 75880
L86680 75850
L86740 75820
" />
<path d="M87440 76420
L87090 76420
" />
<path d="M87270 76420
L87340 75820
L87270 75910
L87200 75970
L87140 75990
" />
<path d="M88050 75820
L87760 75820
L87700 76110
L87730 76080
L87790 76050
L87930 76050
L87990 76080
L88020 76110
L88040 76170
L88020 76310
L87980 76370
L87950 76390
L87890 76420
L87750 76420
L87690 76390
L87660 76370
" />
<path d="M70970 77620
L70970 77020
" />
<path d="M71320 77620
L71060 77280
" />
<path d="M71320 77020
L70970 77370
" />
<path d="M71570 77620
L71570 77220
" />
<path d="M71570 77020
L71540 77050
L71570 77080
L71600 77050
L71570 77020
L71570 77080
" />
<path d="M72210 77570
L72180 77590
L72090 77620
L72030 77620
L71950 77590
L71890 77540
L71860 77480
L71830 77370
L71830 77280
L71860 77170
L71890 77110
L71950 77050
L72030 77020
L72090 77020
L72180 77050
L72210 77080
" />
<path d="M72720 77620
L72720 77310
L72690 77250
L72630 77220
L72520 77220
L72460 77250
" />
<path d="M72720 77590
L72660 77620
L72520 77620
L72460 77590
L72430 77540
L72430 77480
L72460 77420
L72520 77390
L72660 77390
L72720 77370
" />
<path d="M73260 77620
L73260 77020
" />
<path d="M73260 77590
L73200 77620
L73090 77620
L73030 77590
L73000 77570
L72970 77510
L72970 77340
L73000 77280
L73030 77250
L73090 77220
L73200 77220
L73260 77250
" />
<path d="M74000 77310
L74200 77310
" />
<path d="M74290 77620
L74000 77620
L74000 77020
L74290 77020
" />
<path d="M74540 77570
L74570 77590
L74540 77620
L74510 77590
L74540 77570
L74540 77620
" />
<path d="M74830 77620
L74830 77020
L74980 77020
L75060 77050
L75120 77110
L75150 77170
L75180 77280
L75180 77370
L75150 77480
L75120 77540
L75060 77590
L74980 77620
L74830 77620
" />
<path d="M75430 77570
L75460 77590
L75430 77620
L75400 77590
L75430 77570
L75430 77620
" />
<path d="M75690 77450
L75980 77450
" />
<path d="M75640 77620
L75840 77020
L76040 77620
" />
<path d="M76230 77570
L76260 77590
L76230 77620
L76200 77590
L76230 77570
L76230 77620
" />
<path d="M104530 76420
L104360 76140
" />
<path d="M104180 76420
L104250 75820
L104480 75820
L104540 75850
L104570 75880
L104590 75940
L104580 76020
L104540 76080
L104510 76110
L104440 76140
L104210 76140
" />
<path d="M105010 76390
L104950 76420
L104840 76420
L104780 76390
L104760 76340
L104790 76110
L104820 76050
L104890 76020
L105000 76020
L105050 76050
L105080 76110
L105070 76170
L104770 76220
" />
<path d="M105290 76020
L105380 76420
L105570 76020
" />
<path d="M105750 76370
L105780 76390
L105750 76420
L105720 76390
L105750 76370
L105750 76420
" />
<path d="M105790 76050
L105820 76080
L105790 76110
L105760 76080
L105790 76050
L105790 76110
" />
<path d="M70940 76390
L71030 76420
L71170 76420
L71230 76390
L71260 76370
L71290 76310
L71290 76250
L71260 76190
L71230 76170
L71170 76140
L71060 76110
L71000 76080
L70970 76050
L70940 75990
L70940 75940
L70970 75880
L71000 75850
L71060 75820
L71200 75820
L71290 75850
" />
<path d="M71540 76420
L71540 76020
" />
<path d="M71540 75820
L71510 75850
L71540 75880
L71570 75850
L71540 75820
L71540 75880
" />
<path d="M71780 76020
L72090 76020
L71780 76420
L72090 76420
" />
<path d="M72550 76390
L72490 76420
L72380 76420
L72320 76390
L72290 76340
L72290 76110
L72320 76050
L72380 76020
L72490 76020
L72550 76050
L72580 76110
L72580 76170
L72290 76220
" />
<path d="M72830 76370
L72860 76390
L72830 76420
L72800 76390
L72830 76370
L72830 76420
" />
<path d="M72830 76050
L72860 76080
L72830 76110
L72800 76080
L72830 76050
L72830 76110
" />
<path d="M73550 76250
L73840 76250
" />
<path d="M73500 76420
L73700 75820
L73900 76420
" />
<path d="M74350 76020
L74350 76420
" />
<path d="M74210 75790
L74060 76220
L74440 76220
" />
<path d="M104170 77620
L104170 77020
" />
<path d="M104720 77620
L104720 77020
" />
<path d="M104720 77590
L104660 77620
L104550 77620
L104490 77590
L104460 77570
L104430 77510
L104430 77340
L104460 77280
L104490 77250
L104550 77220
L104660 77220
L104720 77250
" />
<path d="M105000 77570
L105030 77590
L105000 77620
L104970 77590
L105000 77570
L105000 77620
" />
<path d="M105000 77250
L105030 77280
L105000 77310
L104970 77280
L105000 77250
L105000 77310
" />
<path d="M106070 77620
L105720 77620
" />
<path d="M105900 77620
L105900 77020
L105840 77110
L105780 77170
L105720 77190
" />
<path d="M106750 76990
L106240 77770
" />
<path d="M107270 77620
L106920 77620
" />
<path d="M107100 77620
L107100 77020
L107040 77110
L106980 77170
L106920 77190
" />
<path d="M70970 74620
L71310 74620
" />
<path d="M71070 75220
L71140 74620
" />
<path d="M71440 75220
L71490 74820
" />
<path d="M71510 74620
L71480 74650
L71510 74680
L71540 74650
L71510 74620
L71510 74680
" />
<path d="M71700 74820
L71930 74820
" />
<path d="M71800 74620
L71740 75140
L71760 75190
L71820 75220
L71880 75220
" />
<path d="M72160 75220
L72100 75190
L72080 75140
L72140 74620
" />
<path d="M72610 75190
L72550 75220
L72440 75220
L72380 75190
L72360 75140
L72390 74910
L72420 74850
L72490 74820
L72600 74820
L72650 74850
L72680 74910
L72670 74970
L72370 75020
" />
<path d="M72890 75170
L72920 75190
L72890 75220
L72860 75190
L72890 75170
L72890 75220
" />
<path d="M72930 74850
L72960 74880
L72930 74910
L72900 74880
L72930 74850
L72930 74910
" />
<path d="M71170 72510
L70970 72510
" />
<path d="M70970 72820
L70970 72220
L71260 72220
" />
<path d="M71480 72820
L71480 72420
" />
<path d="M71480 72220
L71450 72250
L71480 72280
L71510 72250
L71480 72220
L71480 72280
" />
<path d="M71860 72820
L71800 72790
L71770 72740
L71770 72220
" />
<path d="M72310 72790
L72250 72820
L72140 72820
L72080 72790
L72050 72740
L72050 72510
L72080 72450
L72140 72420
L72250 72420
L72310 72450
L72340 72510
L72340 72570
L72050 72620
" />
<path d="M72590 72770
L72620 72790
L72590 72820
L72560 72790
L72590 72770
L72590 72820
" />
<path d="M72590 72450
L72620 72480
L72590 72510
L72560 72480
L72590 72450
L72590 72510
" />
<path d="M73310 72790
L73370 72820
L73490 72820
L73540 72790
L73570 72740
L73570 72710
L73540 72650
L73490 72620
L73400 72620
L73340 72590
L73310 72540
L73310 72510
L73340 72450
L73400 72420
L73490 72420
L73540 72450
" />
<path d="M74060 72790
L74000 72820
L73890 72820
L73830 72790
L73800 72740
L73800 72510
L73830 72450
L73890 72420
L74000 72420
L74060 72450
L74090 72510
L74090 72570
L73800 72620
" />
<path d="M74340 72820
L74340 72420
" />
<path d="M74340 72480
L74370 72450
L74430 72420
L74510 72420
L74570 72450
L74600 72510
L74600 72820
" />
<path d="M74600 72510
L74630 72450
L74690 72420
L74770 72420
L74830 72450
L74860 72510
L74860 72820
" />
<path d="M75140 72820
L75140 72420
" />
<path d="M75140 72220
L75110 72250
L75140 72280
L75170 72250
L75140 72220
L75140 72280
" />
<path d="M75430 72420
L75430 72820
" />
<path d="M75430 72480
L75460 72450
L75520 72420
L75600 72420
L75660 72450
L75690 72510
L75690 72820
" />
<path d="M76230 72820
L76230 72510
L76200 72450
L76140 72420
L76030 72420
L75970 72450
" />
<path d="M76230 72790
L76170 72820
L76030 72820
L75970 72790
L75940 72740
L75940 72680
L75970 72620
L76030 72590
L76170 72590
L76230 72570
" />
<path d="M76510 72820
L76510 72420
" />
<path d="M76510 72540
L76540 72480
L76570 72450
L76630 72420
L76680 72420
" />
<path d="M76880 72770
L76910 72790
L76880 72820
L76850 72790
L76880 72770
L76880 72820
" />
<path d="M77140 72790
L77200 72820
L77320 72820
L77370 72790
L77400 72740
L77400 72710
L77370 72650
L77320 72620
L77230 72620
L77170 72590
L77140 72540
L77140 72510
L77170 72450
L77230 72420
L77320 72420
L77370 72450
" />
<path d="M77920 72790
L77860 72820
L77750 72820
L77690 72790
L77660 72770
L77630 72710
L77630 72540
L77660 72480
L77690 72450
L77750 72420
L77860 72420
L77920 72450
" />
<path d="M78170 72820
L78170 72220
" />
<path d="M78430 72820
L78430 72510
L78400 72450
L78340 72420
L78260 72420
L78200 72450
L78170 72480
" />
<path d="M70940 73990
L71030 74020
L71170 74020
L71230 73990
L71260 73970
L71290 73910
L71290 73850
L71260 73790
L71230 73770
L71170 73740
L71060 73710
L71000 73680
L70970 73650
L70940 73590
L70940 73540
L70970 73480
L71000 73450
L71060 73420
L71200 73420
L71290 73450
" />
<path d="M71540 74020
L71540 73420
" />
<path d="M71800 74020
L71800 73710
L71770 73650
L71710 73620
L71630 73620
L71570 73650
L71540 73680
" />
<path d="M72310 73990
L72250 74020
L72140 74020
L72080 73990
L72050 73940
L72050 73710
L72080 73650
L72140 73620
L72250 73620
L72310 73650
L72340 73710
L72340 73770
L72050 73820
" />
<path d="M72820 73990
L72760 74020
L72650 74020
L72590 73990
L72560 73940
L72560 73710
L72590 73650
L72650 73620
L72760 73620
L72820 73650
L72850 73710
L72850 73770
L72560 73820
" />
<path d="M73020 73620
L73250 73620
" />
<path d="M73100 73420
L73100 73940
L73130 73990
L73190 74020
L73250 74020
" />
<path d="M73440 73970
L73470 73990
L73440 74020
L73410 73990
L73440 73970
L73440 74020
" />
<path d="M73440 73650
L73470 73680
L73440 73710
L73410 73680
L73440 73650
L73440 73710
" />
<path d="M74620 73390
L74110 74170
" />
<path d="M70230 71980
L70230 77980
" />
<path d="M70230 71980
L112230 71980
" />
<path d="M70230 71980
L112230 71980
" />
<path d="M70230 74380
L112230 74380
" />
<path d="M103430 75580
L103430 77980
" />
<path d="M70230 76780
L112230 76780
" />
<path d="M70230 75580
L112230 75580
" />
<path d="M76830 75580
L76830 76780
" />
</g>
<g style="fill:#000000; fill-opacity:0.0; 
stroke:#000000; stroke-width:0; stroke-opacity:1; 
stroke-linecap:round; stroke-linejoin:round;">
</g>
<g style="fill:#000000; fill-opacity:0.0; 
stroke:#000000; stroke-width:200; stroke-opacity:1; 
stroke-linecap:round; stroke-linejoin:round;">
<polyline fill="none;"
points="45200,49800
46800,49800
" /> 
<polyline fill="none;"
points="45200,49200
46800,49200
" /> 
</g>
<g style="fill:#000000; fill-opacity:0.0; 
stroke:#000000; stroke-width:60; stroke-opacity:1; 
stroke-linecap:round; stroke-linejoin:round;">
<path d="M46000 49200
L46000 47500
" />
<path d="M46000 49800
L46000 51500
" />
<path d="M46320 48590
L46300 48610
L46250 48630
L46210 48630
L46150 48610
L46110 48570
L46100 48540
L46080 48460
L46080 48400
L46100 48330
L46110 48290
L46150 48250
L46210 48230
L46250 48230
L46300 48250
L46320 48270
" />
<path d="M46670 48370
L46670 48630
" />
<path d="M46570 48210
L46480 48500
L46720 48500
" />
</g>
<g style="fill:#000000; fill-opacity:0.0; 
stroke:#000000; stroke-width:0; stroke-opacity:1; 
stroke-linecap:round; stroke-linejoin:round;">
</g>
<g style="fill:#000000; fill-opacity:0.0; 
stroke:#000000; stroke-width:200; stroke-opacity:1; 
stroke-linecap:round; stroke-linejoin:round;">
<polyline fill="none;"
points="53200,49800
54800,49800
" /> 
<polyline fill="none;"
points="53200,49200
54800,49200
" /> 
</g>
<g style="fill:#000000; fill-opacity:0.0; 
stroke:#000000; stroke-width:60; stroke-opacity:1; 
stroke-linecap:round; stroke-linejoin:round;">
<path d="M54000 49200
L54000 47500
" />
<path d="M54000 49800
L54000 51500
" />
<path d="M54320 48590
L54300 48610
L54250 48630
L54210 48630
L54150 48610
L54110 48570
L54100 48540
L54080 48460
L54080 48400
L54100 48330
L54110 48290
L54150 48250
L54210 48230
L54250 48230
L54300 48250
L54320 48270
" />
<path d="M54460 48230
L54700 48230
L54570 48380
L54630 48380
L54670 48400
L54690 48420
L54700 48460
L54700 48560
L54690 48590
L54670 48610
L54630 48630
L54510 48630
L54480 48610
L54460 48590
" />
<path d="M54460 45290
L54060 44730
" />
<path d="M53780 45290
L53780 44110
L54230 44110
L54340 44160
L54400 44220
L54460 44330
L54460 44500
L54400 44610
L54340 44670
L54230 44730
L53780 44730
" />
<path d="M53000 43500
L55000 43500
" />
<path d="M55000 43500
L55000 46000
" />
<path d="M55000 46000
L53000 46000
" />
<path d="M53000 46000
L53000 43500
" />
<path d="M54000 47500
L54000 46000
" />
</g>
<g style="fill:#000000; fill-opacity:0.0; 
stroke:#000000; stroke-width:0; stroke-opacity:1; 
stroke-linecap:round; stroke-linejoin:round;">
</g>
<g style="fill:#000000; fill-opacity:1.0; 
stroke:#000000; stroke-width:100; stroke-opacity:1; 
stroke-linecap:round; stroke-linejoin:round;">
<circle cx="54000" cy="46000" r="160" /> 
</g>
<g style="fill:#000000; fill-opacity:1.0; 
stroke:#000000; stroke-width:60; stroke-opacity:1; 
stroke-linecap:round; stroke-linejoin:round;">
</g>
<g style="fill:#000000; fill-opacity:0.0; 
stroke:#000000; stroke-width:60; stroke-opacity:1; 
stroke-linecap:round; stroke-linejoin:round;">
<path d="M45610 44110
L46290 44110
" />
<path d="M45950 45290
L45950 44110
" />
<path d="M45000 43500
L47000 43500
" />
<path d="M47000 43500
L47000 46000
" />
<path d="M47000 46000
L45000 46000
" />
<path d="M45000 46000
L45000 43500
" />
<path d="M46000 47500
L46000 46000
" />
</g>
<g style="fill:#000000; fill-opacity:0.0; 
stroke:#000000; stroke-width:0; stroke-opacity:1; 
stroke-linecap:round; stroke-linejoin:round;">
</g>
<g style="fill:#000000; fill-opacity:1.0; 
stroke:#000000; stroke-width:100; stroke-opacity:1; 
stroke-linecap:round; stroke-linejoin:round;">
<circle cx="46000" cy="46000" r="160" /> 
</g>
<g style="fill:#000000; fill-opacity:1.0; 
stroke:#000000; stroke-width:0; stroke-opacity:1; 
stroke-linecap:round; stroke-linejoin:round;">
</g>
<g style="fill:#000000; fill-opacity:0.0; 
stroke:#000000; stroke-width:200; stroke-opacity:1; 
stroke-linecap:round; stroke-linejoin:round;">
<polyline fill="none;"
points="49700,44200
49700,45800
" /> 
<polyline fill="none;"
points="50300,44200
50300,45800
" /> 
</g>
<g style="fill:#000000; fill-opacity:0.0; 
stroke:#000000; stroke-width:60; stroke-opacity:1; 
stroke-linecap:round; stroke-linejoin:round;">
<path d="M50300 45000
L52000 45000
" />
<path d="M49700 45000
L48000 45000
" />
<path d="M50820 44090
L50800 44110
L50750 44130
L50710 44130
L50650 44110
L50610 44070
L50600 44040
L50580 43960
L50580 43900
L50600 43830
L50610 43790
L50650 43750
L50710 43730
L50750 43730
L50800 43750
L50820 43770
" />
<path d="M51070 43730
L51110 43730
L51150 43750
L51170 43770
L51190 43810
L51200 43880
L51200 43980
L51190 44060
L51170 44090
L51150 44110
L51110 44130
L51070 44130
L51030 44110
L51010 44090
L51000 44060
L50980 43980
L50980 43880
L51000 43810
L51010 43770
L51030 43750
L51070 43730
" />
<path d="M53000 45000
L52000 45000
" />
</g>
<g style="fill:#000000; fill-opacity:0.0; 
stroke:#000000; stroke-width:0; stroke-opacity:1; 
stroke-linecap:round; stroke-linejoin:round;">
</g>
<g style="fill:#000000; fill-opacity:1.0; 
stroke:#000000; stroke-width:100; stroke-opacity:1; 
stroke-linecap:round; stroke-linejoin:round;">
<circle cx="53000" cy="45000" r="160" /> 
</g>
<g style="fill:#000000; fill-opacity:1.0; 
stroke:#000000; stroke-width:60; stroke-opacity:1; 
stroke-linecap:round; stroke-linejoin:round;">
<path d="M48000 45000
L47000 45000
" />
</g>
<g style="fill:#000000; fill-opacity:1.0; 
stroke:#000000; stroke-width:0; stroke-opacity:1; 
stroke-linecap:round; stroke-linejoin:round;">
</g>
<g style="fill:#000000; fill-opacity:1.0; 
stroke:#000000; stroke-width:100; stroke-opacity:1; 
stroke-linecap:round; stroke-linejoin:round;">
<circle cx="47000" cy="45000" r="160" /> 
</g>
<g style="fill:#000000; fill-opacity:1.0; 
stroke:#000000; stroke-width:0; stroke-opacity:1; 
stroke-linecap:round; stroke-linejoin:round;">
</g>
<g style="fill:#000000; fill-opacity:0.0; 
stroke:#000000; stroke-width:60; stroke-opacity:1; 
stroke-linecap:round; stroke-linejoin:round;">
<polyline fill="none;"
points="53500,52500
54000,53000
54500,52500
53500,52500
" /> 
<path d="M54000 51500
L54000 52500
" />
</g>
<g style="fill:#000000; fill-opacity:0.0; 
stroke:#000000; stroke-width:0; stroke-opacity:1; 
stroke-linecap:round; stroke-linejoin:round;">
</g>
<g style="fill:#000000; fill-opacity:0.0; 
stroke:#000000; stroke-width:60; stroke-opacity:1; 
stroke-linecap:round; stroke-linejoin:round;">
<polyline fill="none;"
points="45500,52500
46000,53000
46500,52500
45500,52500
" /> 
<path d="M46000 51500
L46000 52500
" />
</g>
<g style="fill:#000000; fill-opacity:0.0; 
stroke:#000000; stroke-width:0; stroke-opacity:1; 
stroke-linecap:round; stroke-linejoin:round;">
</g>
<g style="fill:#000000; fill-opacity:0.0; 
stroke:#000000; stroke-width:200; stroke-opacity:1; 
stroke-linecap:round; stroke-linejoin:round;">
<polyline fill="none;"
points="45200,40300
46800,40300
" /> 
<polyline fill="none;"
points="45200,39700
46800,39700
" /> 
</g>
<g style="fill:#000000; fill-opacity:0.0; 
stroke:#000000; stroke-width:60; stroke-opacity:1; 
stroke-linecap:round; stroke-linejoin:round;">
<path d="M46000 39700
L46000 38000
" />
<path d="M46000 40300
L46000 42000
" />
<path d="M46320 39090
L46300 39110
L46250 39130
L46210 39130
L46150 39110
L46110 39070
L46100 39040
L46080 38960
L46080 38900
L46100 38830
L46110 38790
L46150 38750
L46210 38730
L46250 38730
L46300 38750
L46320 38770
" />
<path d="M46700 39130
L46480 39130
" />
<path d="M46590 39130
L46590 38730
L46550 38790
L46510 38830
L46480 38850
" />
</g>
<g style="fill:#000000; fill-opacity:0.0; 
stroke:#000000; stroke-width:0; stroke-opacity:1; 
stroke-linecap:round; stroke-linejoin:round;">
</g>
<g style="fill:#000000; fill-opacity:0.0; 
stroke:#000000; stroke-width:200; stroke-opacity:1; 
stroke-linecap:round; stroke-linejoin:round;">
<polyline fill="none;"
points="53200,40300
54800,40300
" /> 
<polyline fill="none;"
points="53200,39700
54800,39700
" /> 
</g>
<g style="fill:#000000; fill-opacity:0.0; 
stroke:#000000; stroke-width:60; stroke-opacity:1; 
stroke-linecap:round; stroke-linejoin:round;">
<path d="M54000 39700
L54000 38000
" />
<path d="M54000 40300
L54000 42000
" />
<path d="M54320 39090
L54300 39110
L54250 39130
L54210 39130
L54150 39110
L54110 39070
L54100 39040
L54080 38960
L54080 38900
L54100 38830
L54110 38790
L54150 38750
L54210 38730
L54250 38730
L54300 38750
L54320 38770
" />
<path d="M54480 38770
L54500 38750
L54530 38730
L54630 38730
L54670 38750
L54690 38770
L54700 38810
L54700 38850
L54690 38900
L54460 39130
L54700 39130
" />
<path d="M54000 43500
L54000 42000
" />
</g>
<g style="fill:#000000; fill-opacity:0.0; 
stroke:#000000; stroke-width:0; stroke-opacity:1; 
stroke-linecap:round; stroke-linejoin:round;">
</g>
<g style="fill:#000000; fill-opacity:1.0; 
stroke:#000000; stroke-width:100; stroke-opacity:1; 
stroke-linecap:round; stroke-linejoin:round;">
<circle cx="54000" cy="43500" r="160" /> 
</g>
<g style="fill:#000000; fill-opacity:1.0; 
stroke:#000000; stroke-width:60; stroke-opacity:1; 
stroke-linecap:round; stroke-linejoin:round;">
<path d="M46000 43500
L46000 42000
" />
</g>
<g style="fill:#000000; fill-opacity:1.0; 
stroke:#000000; stroke-width:0; stroke-opacity:1; 
stroke-linecap:round; stroke-linejoin:round;">
</g>
<g style="fill:#000000; fill-opacity:1.0; 
stroke:#000000; stroke-width:100; stroke-opacity:1; 
stroke-linecap:round; stroke-linejoin:round;">
<circle cx="46000" cy="43500" r="160" /> 
</g>
<g style="fill:#000000; fill-opacity:1.0; 
stroke:#000000; stroke-width:60; stroke-opacity:1; 
stroke-linecap:round; stroke-linejoin:round;">
<path d="M46000 38000
L46000 37000
" />
<path d="M46000 37000
L48500 37000
" />
</g>
<g style="fill:#000000; fill-opacity:0.0; 
stroke:#000000; stroke-width:60; stroke-opacity:1; 
stroke-linecap:round; stroke-linejoin:round;">
<path d="M49280 37290
L49280 36110
" />
<path d="M49280 36670
L49960 36670
" />
<path d="M49960 37290
L49960 36110
" />
<path d="M48500 35500
L48500 38000
" />
<path d="M48500 35500
L50500 35500
" />
<path d="M50500 35500
L50500 38000
" />
<path d="M50500 38000
L48500 38000
" />
</g>
<g style="fill:#000000; fill-opacity:0.0; 
stroke:#000000; stroke-width:0; stroke-opacity:1; 
stroke-linecap:round; stroke-linejoin:round;">
</g>
<g style="fill:#000000; fill-opacity:1.0; 
stroke:#000000; stroke-width:100; stroke-opacity:1; 
stroke-linecap:round; stroke-linejoin:round;">
<circle cx="48500" cy="37000" r="160" /> 
</g>
<g style="fill:#000000; fill-opacity:1.0; 
stroke:#000000; stroke-width:60; stroke-opacity:1; 
stroke-linecap:round; stroke-linejoin:round;">
<path d="M50500 37000
L54000 37000
" />
<path d="M54000 37000
L54000 38000
" />
</g>
<g style="fill:#000000; fill-opacity:1.0; 
stroke:#000000; stroke-width:0; stroke-opacity:1; 
stroke-linecap:round; stroke-linejoin:round;">
</g>
<g style="fill:#000000; fill-opacity:1.0; 
stroke:#000000; stroke-width:100; stroke-opacity:1; 
stroke-linecap:round; stroke-linejoin:round;">
<circle cx="50500" cy="37000" r="160" /> 
</g>
<g style="fill:#000000; fill-opacity:1.0; 
stroke:#000000; stroke-width:0; stroke-opacity:1; 
stroke-linecap:round; stroke-linejoin:round;">
</g>
<g style="fill:#000000; fill-opacity:0.0; 
stroke:#000000; stroke-width:200; stroke-opacity:1; 
stroke-linecap:round; stroke-linejoin:round;">
<polyline fill="none;"
points="40700,40300
42300,40300
" /> 
<polyline fill="none;"
points="40700,39700
42300,39700
" /> 
</g>
<g style="fill:#000000; fill-opacity:0.0; 
stroke:#000000; stroke-width:60; stroke-opacity:1; 
stroke-linecap:round; stroke-linejoin:round;">
<path d="M41500 39700
L41500 38000
" />
<path d="M41500 40300
L41500 42000
" />
<path d="M41820 39090
L41800 39110
L41750 39130
L41710 39130
L41650 39110
L41610 39070
L41600 39040
L41580 38960
L41580 38900
L41600 38830
L41610 38790
L41650 38750
L41710 38730
L41750 38730
L41800 38750
L41820 38770
" />
<path d="M42190 38730
L42000 38730
L41980 38920
L42000 38900
L42030 38880
L42130 38880
L42170 38900
L42190 38920
L42200 38960
L42200 39060
L42190 39090
L42170 39110
L42130 39130
L42030 39130
L42000 39110
L41980 39090
" />
<path d="M48500 36000
L41500 36000
" />
<path d="M41500 36000
L41500 38000
" />
</g>
<g style="fill:#000000; fill-opacity:0.0; 
stroke:#000000; stroke-width:0; stroke-opacity:1; 
stroke-linecap:round; stroke-linejoin:round;">
</g>
<g style="fill:#000000; fill-opacity:1.0; 
stroke:#000000; stroke-width:100; stroke-opacity:1; 
stroke-linecap:round; stroke-linejoin:round;">
<circle cx="48500" cy="36000" r="160" /> 
</g>
<g style="fill:#000000; fill-opacity:1.0; 
stroke:#000000; stroke-width:0; stroke-opacity:1; 
stroke-linecap:round; stroke-linejoin:round;">
</g>
<g style="fill:#000000; fill-opacity:0.0; 
stroke:#000000; stroke-width:60; stroke-opacity:1; 
stroke-linecap:round; stroke-linejoin:round;">
<polyline fill="none;"
points="41000,43000
41500,43500
42000,43000
41000,43000
" /> 
<path d="M41500 42000
L41500 43000
" />
</g>
<g style="fill:#000000; fill-opacity:0.0; 
stroke:#000000; stroke-width:0; stroke-opacity:1; 
stroke-linecap:round; stroke-linejoin:round;">
</g>
<g style="fill:#000000; fill-opacity:0.0; 
stroke:#000000; stroke-width:60; stroke-opacity:1; 
stroke-linecap:round; stroke-linejoin:round;">
<polyline fill="none;"
points="75000,35000
79000,33000
75000,31000
75000,35000
" /> 
<path d="M76000 31500
L76000 29000
" />
<path d="M75760 32500
L76160 32370
L75760 32240
" />
<path d="M76010 32100
L76010 31800
" />
<path d="M75600 30170
L75860 30170
" />
<path d="M75440 30270
L75730 30360
L75730 30120
" />
<path d="M76000 34500
L76000 37000
" />
<path d="M75760 34260
L76160 34130
L75760 34000
" />
<path d="M76010 33860
L76010 33560
" />
<path d="M76160 33710
L75860 33710
" />
<path d="M75630 35790
L75610 35830
L75600 35840
L75560 35860
L75540 35860
L75500 35840
L75480 35830
L75460 35790
L75460 35710
L75480 35670
L75500 35650
L75540 35640
L75560 35640
L75600 35650
L75610 35670
L75630 35710
L75630 35790
L75650 35830
L75670 35840
L75710 35860
L75790 35860
L75820 35840
L75840 35830
L75860 35790
L75860 35710
L75840 35670
L75820 35650
L75790 35640
L75710 35640
L75670 35650
L75650 35670
L75630 35710
" />
<path d="M79000 33000
L82000 33000
" />
<path d="M80610 32860
L80390 32860
" />
<path d="M80500 32860
L80500 32460
L80460 32520
L80420 32560
L80390 32580
" />
<path d="M75000 32000
L72000 32000
" />
<path d="M75300 32010
L75600 32010
" />
<path d="M73390 31500
L73410 31480
L73440 31460
L73540 31460
L73580 31480
L73600 31500
L73610 31540
L73610 31580
L73600 31630
L73370 31860
L73610 31860
" />
<path d="M75000 34000
L72000 34000
" />
<path d="M75300 34010
L75600 34010
" />
<path d="M75450 34160
L75450 33860
" />
<path d="M73370 33460
L73610 33460
L73480 33610
L73540 33610
L73580 33630
L73600 33650
L73610 33690
L73610 33790
L73600 33820
L73580 33840
L73540 33860
L73420 33860
L73390 33840
L73370 33820
" />
<path d="M76390 34670
L76390 35160
L76420 35220
L76450 35240
L76510 35270
L76620 35270
L76680 35240
L76710 35220
L76740 35160
L76740 34670
" />
<path d="M77110 35220
L77140 35240
L77110 35270
L77080 35240
L77110 35220
L77110 35270
" />
<path d="M76990 34700
L77050 34670
L77190 34670
L77250 34700
L77280 34760
L77280 34820
L77250 34870
L77220 34900
L77170 34930
L77140 34960
L77110 35020
L77110 35040
" />
<path d="M77500 35100
L77790 35100
" />
<path d="M77450 35270
L77650 34670
L77850 35270
" />
<path d="M76560 30170
L76900 30170
" />
<path d="M76730 30770
L76730 30170
" />
<path d="M77390 30770
L77100 30770
L77100 30170
" />
<path d="M77710 30170
L77760 30170
L77820 30200
L77850 30230
L77880 30290
L77910 30400
L77910 30540
L77880 30660
L77850 30720
L77820 30740
L77760 30770
L77710 30770
L77650 30740
L77620 30720
L77590 30660
L77560 30540
L77560 30400
L77590 30290
L77620 30230
L77650 30200
L77710 30170
" />
<path d="M78250 30430
L78190 30400
L78160 30370
L78130 30320
L78130 30290
L78160 30230
L78190 30200
L78250 30170
L78360 30170
L78420 30200
L78450 30230
L78480 30290
L78480 30320
L78450 30370
L78420 30400
L78360 30430
L78250 30430
L78190 30460
L78160 30490
L78130 30540
L78130 30660
L78160 30720
L78190 30740
L78250 30770
L78360 30770
L78420 30740
L78450 30720
L78480 30660
L78480 30540
L78450 30490
L78420 30460
L78360 30430
" />
<path d="M78700 30230
L78730 30200
L78790 30170
L78930 30170
L78990 30200
L79020 30230
L79050 30290
L79050 30340
L79020 30430
L78680 30770
L79050 30770
" />
</g>
<g style="fill:#000000; fill-opacity:0.0; 
stroke:#000000; stroke-width:0; stroke-opacity:1; 
stroke-linecap:round; stroke-linejoin:round;">
</g>
<g style="fill:#000000; fill-opacity:0.0; 
stroke:#000000; stroke-width:60; stroke-opacity:1; 
stroke-linecap:round; stroke-linejoin:round;">
<polyline fill="none;"
points="90500,36500
94500,34500
90500,32500
90500,36500
" /> 
<path d="M91500 33000
L91500 30500
" />
<path d="M91260 34000
L91660 33870
L91260 33740
" />
<path d="M91510 33600
L91510 33300
" />
<path d="M91100 31670
L91360 31670
" />
<path d="M90940 31770
L91230 31860
L91230 31620
" />
<path d="M91500 36000
L91500 38500
" />
<path d="M91260 35760
L91660 35630
L91260 35500
" />
<path d="M91510 35360
L91510 35060
" />
<path d="M91660 35210
L91360 35210
" />
<path d="M91130 37290
L91110 37330
L91100 37340
L91060 37360
L91040 37360
L91000 37340
L90980 37330
L90960 37290
L90960 37210
L90980 37170
L91000 37150
L91040 37140
L91060 37140
L91100 37150
L91110 37170
L91130 37210
L91130 37290
L91150 37330
L91170 37340
L91210 37360
L91290 37360
L91320 37340
L91340 37330
L91360 37290
L91360 37210
L91340 37170
L91320 37150
L91290 37140
L91210 37140
L91170 37150
L91150 37170
L91130 37210
" />
<path d="M94500 34500
L97500 34500
" />
<path d="M96110 34360
L95890 34360
" />
<path d="M96000 34360
L96000 33960
L95960 34020
L95920 34060
L95890 34080
" />
<path d="M90500 33500
L87500 33500
" />
<path d="M90800 33510
L91100 33510
" />
<path d="M88890 33000
L88910 32980
L88940 32960
L89040 32960
L89080 32980
L89100 33000
L89110 33040
L89110 33080
L89100 33130
L88870 33360
L89110 33360
" />
<path d="M90500 35500
L87500 35500
" />
<path d="M90800 35510
L91100 35510
" />
<path d="M90950 35660
L90950 35360
" />
<path d="M88870 34960
L89110 34960
L88980 35110
L89040 35110
L89080 35130
L89100 35150
L89110 35190
L89110 35290
L89100 35320
L89080 35340
L89040 35360
L88920 35360
L88890 35340
L88870 35320
" />
<path d="M91890 36170
L91890 36660
L91920 36720
L91950 36740
L92010 36770
L92120 36770
L92180 36740
L92210 36720
L92240 36660
L92240 36170
" />
<path d="M92610 36720
L92640 36740
L92610 36770
L92580 36740
L92610 36720
L92610 36770
" />
<path d="M92490 36200
L92550 36170
L92690 36170
L92750 36200
L92780 36260
L92780 36320
L92750 36370
L92720 36400
L92670 36430
L92640 36460
L92610 36520
L92610 36540
" />
<path d="M93000 36600
L93290 36600
" />
<path d="M92950 36770
L93150 36170
L93350 36770
" />
<path d="M92060 31670
L92400 31670
" />
<path d="M92230 32270
L92230 31670
" />
<path d="M92890 32270
L92600 32270
L92600 31670
" />
<path d="M93210 31670
L93260 31670
L93320 31700
L93350 31730
L93380 31790
L93410 31900
L93410 32040
L93380 32160
L93350 32220
L93320 32240
L93260 32270
L93210 32270
L93150 32240
L93120 32220
L93090 32160
L93060 32040
L93060 31900
L93090 31790
L93120 31730
L93150 31700
L93210 31670
" />
<path d="M93750 31930
L93690 31900
L93660 31870
L93630 31820
L93630 31790
L93660 31730
L93690 31700
L93750 31670
L93860 31670
L93920 31700
L93950 31730
L93980 31790
L93980 31820
L93950 31870
L93920 31900
L93860 31930
L93750 31930
L93690 31960
L93660 31990
L93630 32040
L93630 32160
L93660 32220
L93690 32240
L93750 32270
L93860 32270
L93920 32240
L93950 32220
L93980 32160
L93980 32040
L93950 31990
L93920 31960
L93860 31930
" />
<path d="M94200 31730
L94230 31700
L94290 31670
L94430 31670
L94490 31700
L94520 31730
L94550 31790
L94550 31840
L94520 31930
L94180 32270
L94550 32270
" />
</g>
<g style="fill:#000000; fill-opacity:0.0; 
stroke:#000000; stroke-width:0; stroke-opacity:1; 
stroke-linecap:round; stroke-linejoin:round;">
</g>
<g style="fill:#000000; fill-opacity:0.0; 
stroke:#000000; stroke-width:60; stroke-opacity:1; 
stroke-linecap:round; stroke-linejoin:round;">
<polyline fill="none;"
points="70500,35000
71000,35500
71500,35000
70500,35000
" /> 
<path d="M72000 34000
L71000 34000
" />
<path d="M71000 34000
L71000 35000
" />
<path d="M65500 32000
L72000 32000
" />
<path d="M69280 30790
L69280 29610
" />
<path d="M69980 31340
L69780 31060
" />
<path d="M69640 31340
L69640 30750
L69870 30750
L69920 30780
L69950 30810
L69980 30870
L69980 30950
L69950 31010
L69920 31030
L69870 31060
L69640 31060
" />
<path d="M65500 32000
L65500 29500
" />
<path d="M64500 29500
L66500 29500
" />
<path d="M65960 28790
L65560 28230
" />
<path d="M65280 28790
L65280 27610
L65730 27610
L65840 27660
L65900 27720
L65960 27830
L65960 28000
L65900 28110
L65840 28170
L65730 28230
L65280 28230
" />
</g> 
</svg>
