<?xml version="1.0" standalone="no"?>
 <!DOCTYPE svg PUBLIC "-//W3C//DTD SVG 1.1//EN" 
 "http://www.w3.org/Graphics/SVG/1.1/DTD/svg11.dtd"> 
<svg xmlns="http://www.w3.org/2000/svg" version="1.1" 
    width="32.3317cm" height="13.396cm" viewBox="0 0 127290 52740 ">
<title>SVG Picture created as ni-vstopa-prost--brd.svg date 2015/08/03 22:45:17 </title>
  <desc>Picture generated by PCBNEW </desc>
<g style="fill:#000000; fill-opacity:1;stroke:#000000; stroke-opacity:1;
stroke-linecap:round; stroke-linejoin:round; "
 transform="translate(0 0) scale(1 1)">
</g>
<g style="fill:#000000; fill-opacity:0.0; 
stroke:#000000; stroke-width:59.0551; stroke-opacity:1; 
stroke-linecap:round; stroke-linejoin:round;">
<path d="M63263 19714
L63263 29
" />
<path d="M271 19714
L63263 19714
" />
<path d="M271 29
L271 19714
" />
<path d="M63263 29
L271 29
" />
<path d="M64271 29
L127263 29
" />
<path d="M64271 19714
L64271 29
" />
<path d="M127263 19714
L64271 19714
" />
<path d="M127263 29
L127263 19714
" />
<path d="M13271 52714
L13271 33029
" />
<path d="M76263 52714
L13271 52714
" />
<path d="M76263 33029
L76263 52714
" />
<path d="M13271 33029
L76263 33029
" />
</g>
<g style="fill:#000000; fill-opacity:0.0; 
stroke:#000000; stroke-width:19.685; stroke-opacity:1; 
stroke-linecap:round; stroke-linejoin:round;">
</g>
<g style="fill:#000000; fill-opacity:1.0; 
stroke:#000000; stroke-width:19.685; stroke-opacity:1; 
stroke-linecap:round; stroke-linejoin:round;">
<circle cx="70767.5" cy="49372" r="320.157" /> 
<circle cx="70767.5" cy="48372" r="320.157" /> 
<circle cx="26767.5" cy="45372" r="320.157" /> 
<circle cx="26767.5" cy="44372" r="320.157" /> 
<circle cx="21767.5" cy="40372" r="320.157" /> 
<circle cx="21767.5" cy="39372" r="320.157" /> 
<circle cx="121768" cy="16372" r="320.157" /> 
<circle cx="121768" cy="15372" r="320.157" /> 
<circle cx="26767.5" cy="49372" r="320.157" /> 
<circle cx="26767.5" cy="48372" r="320.157" /> 
<circle cx="121768" cy="12372" r="320.157" /> 
<circle cx="121768" cy="11372" r="320.157" /> 
<circle cx="119768" cy="8372.05" r="320.157" /> 
<circle cx="119768" cy="7372.05" r="320.157" /> 
<circle cx="18767.5" cy="37372" r="320.157" /> 
<circle cx="18767.5" cy="36372" r="320.157" /> 
<circle cx="18767.5" cy="43372" r="320.157" /> 
<circle cx="18767.5" cy="42372" r="320.157" /> 
<circle cx="14267.5" cy="44872" r="320.157" /> 
<circle cx="15267.5" cy="44872" r="320.157" /> 
<circle cx="14767.5" cy="41372" r="320.157" /> 
<circle cx="14767.5" cy="40372" r="320.157" /> 
<circle cx="14767.5" cy="37372" r="320.157" /> 
<circle cx="14767.5" cy="36372" r="320.157" /> 
<circle cx="14267.5" cy="48872" r="320.157" /> 
<circle cx="15267.5" cy="48872" r="320.157" /> 
<circle cx="57767.5" cy="43372" r="320.157" /> 
<circle cx="57767.5" cy="42372" r="320.157" /> 
<circle cx="33767.5" cy="45372" r="320.157" /> 
<circle cx="33767.5" cy="44372" r="320.157" /> 
<circle cx="33767.5" cy="40372" r="320.157" /> 
<circle cx="33767.5" cy="39372" r="320.157" /> 
<circle cx="30767.5" cy="37372" r="320.157" /> 
<circle cx="30767.5" cy="36372" r="320.157" /> 
<circle cx="34767.5" cy="49372" r="320.157" /> 
<circle cx="34767.5" cy="48372" r="320.157" /> 
<circle cx="40767.5" cy="47372" r="320.157" /> 
<circle cx="40767.5" cy="46372" r="320.157" /> 
<circle cx="40767.5" cy="43372" r="320.157" /> 
<circle cx="40767.5" cy="42372" r="320.157" /> 
<circle cx="48767.5" cy="47372" r="320.157" /> 
<circle cx="48767.5" cy="46372" r="320.157" /> 
<circle cx="48767.5" cy="43372" r="320.157" /> 
<circle cx="48767.5" cy="42372" r="320.157" /> 
<circle cx="48767.5" cy="39372" r="320.157" /> 
<circle cx="48767.5" cy="38372" r="320.157" /> 
<circle cx="54767.5" cy="48372" r="320.157" /> 
<circle cx="54767.5" cy="47372" r="320.157" /> 
<circle cx="54767.5" cy="42372" r="320.157" /> 
<circle cx="54767.5" cy="41372" r="320.157" /> 
<circle cx="54767.5" cy="39372" r="320.157" /> 
<circle cx="54767.5" cy="38372" r="320.157" /> 
<circle cx="57767.5" cy="49372" r="320.157" /> 
<circle cx="57767.5" cy="48372" r="320.157" /> 
<circle cx="44767.5" cy="37372" r="320.157" /> 
<circle cx="44767.5" cy="36372" r="320.157" /> 
<circle cx="57767.5" cy="37372" r="320.157" /> 
<circle cx="57767.5" cy="36372" r="320.157" /> 
<circle cx="60767.5" cy="47372" r="320.157" /> 
<circle cx="60767.5" cy="46372" r="320.157" /> 
<circle cx="60767.5" cy="44372" r="320.157" /> 
<circle cx="60767.5" cy="43372" r="320.157" /> 
<circle cx="60767.5" cy="38372" r="320.157" /> 
<circle cx="60767.5" cy="37372" r="320.157" /> 
<circle cx="70767.5" cy="45372" r="320.157" /> 
<circle cx="70767.5" cy="44372" r="320.157" /> 
<circle cx="70767.5" cy="41372" r="320.157" /> 
<circle cx="70767.5" cy="40372" r="320.157" /> 
<circle cx="74767.5" cy="37372" r="320.157" /> 
<circle cx="74767.5" cy="36372" r="320.157" /> 
<circle cx="17267.5" cy="11872" r="320.157" /> 
<circle cx="18267.5" cy="11872" r="320.157" /> 
<circle cx="66267.5" cy="36872" r="320.157" /> 
<circle cx="67267.5" cy="36872" r="320.157" /> 
<circle cx="70767.5" cy="37372" r="320.157" /> 
<circle cx="70767.5" cy="36372" r="320.157" /> 
<circle cx="44767.5" cy="49372" r="320.157" /> 
<circle cx="44767.5" cy="48372" r="320.157" /> 
<circle cx="40767.5" cy="39372" r="320.157" /> 
<circle cx="40767.5" cy="38372" r="320.157" /> 
<circle cx="77767.5" cy="4372.05" r="320.157" /> 
<circle cx="77767.5" cy="3372.05" r="320.157" /> 
<circle cx="51767.5" cy="14372" r="320.157" /> 
<circle cx="51767.5" cy="13372" r="320.157" /> 
<circle cx="48767.5" cy="4372.05" r="320.157" /> 
<circle cx="48767.5" cy="3372.05" r="320.157" /> 
<circle cx="48767.5" cy="10372" r="320.157" /> 
<circle cx="48767.5" cy="9372.05" r="320.157" /> 
<circle cx="48767.5" cy="16372" r="320.157" /> 
<circle cx="48767.5" cy="15372" r="320.157" /> 
<circle cx="45767.5" cy="6372.05" r="320.157" /> 
<circle cx="45767.5" cy="5372.05" r="320.157" /> 
<circle cx="45767.5" cy="9372.05" r="320.157" /> 
<circle cx="45767.5" cy="8372.05" r="320.157" /> 
<circle cx="45767.5" cy="15372" r="320.157" /> 
<circle cx="45767.5" cy="14372" r="320.157" /> 
<circle cx="39767.5" cy="4372.05" r="320.157" /> 
<circle cx="39767.5" cy="3372.05" r="320.157" /> 
<circle cx="37767.5" cy="8372.05" r="320.157" /> 
<circle cx="37767.5" cy="7372.05" r="320.157" /> 
<circle cx="35767.5" cy="12372" r="320.157" /> 
<circle cx="35767.5" cy="11372" r="320.157" /> 
<circle cx="27767.5" cy="4372.05" r="320.157" /> 
<circle cx="27767.5" cy="3372.05" r="320.157" /> 
<circle cx="29767.5" cy="8372.05" r="320.157" /> 
<circle cx="29767.5" cy="7372.05" r="320.157" /> 
<circle cx="31767.5" cy="12372" r="320.157" /> 
<circle cx="31767.5" cy="11372" r="320.157" /> 
<circle cx="51767.5" cy="11372" r="320.157" /> 
<circle cx="51767.5" cy="10372" r="320.157" /> 
<circle cx="83767.5" cy="12372" r="320.157" /> 
<circle cx="83767.5" cy="11372" r="320.157" /> 
<circle cx="33767.5" cy="16372" r="320.157" /> 
<circle cx="33767.5" cy="15372" r="320.157" /> 
<circle cx="11767.5" cy="4372.05" r="320.157" /> 
<circle cx="11767.5" cy="3372.05" r="320.157" /> 
<circle cx="18267.5" cy="3872.05" r="320.157" /> 
<circle cx="17267.5" cy="3872.05" r="320.157" /> 
<circle cx="17767.5" cy="8372.05" r="320.157" /> 
<circle cx="17767.5" cy="7372.05" r="320.157" /> 
<circle cx="11767.5" cy="8372.05" r="320.157" /> 
<circle cx="11767.5" cy="7372.05" r="320.157" /> 
<circle cx="11767.5" cy="12372" r="320.157" /> 
<circle cx="11767.5" cy="11372" r="320.157" /> 
<circle cx="11767.5" cy="16372" r="320.157" /> 
<circle cx="11767.5" cy="15372" r="320.157" /> 
<circle cx="5767.5" cy="8372.05" r="320.157" /> 
<circle cx="5767.5" cy="7372.05" r="320.157" /> 
<circle cx="7767.5" cy="12372" r="320.157" /> 
<circle cx="7767.5" cy="11372" r="320.157" /> 
<circle cx="1267.5" cy="15872" r="320.157" /> 
<circle cx="2267.5" cy="15872" r="320.157" /> 
<circle cx="1767.5" cy="4372.05" r="320.157" /> 
<circle cx="1767.5" cy="3372.05" r="320.157" /> 
<circle cx="1767.5" cy="8372.05" r="320.157" /> 
<circle cx="1767.5" cy="7372.05" r="320.157" /> 
<circle cx="97767.5" cy="16372" r="320.157" /> 
<circle cx="97767.5" cy="15372" r="320.157" /> 
<circle cx="26767.5" cy="41372" r="320.157" /> 
<circle cx="26767.5" cy="40372" r="320.157" /> 
<circle cx="26767.5" cy="37372" r="320.157" /> 
<circle cx="26767.5" cy="36372" r="320.157" /> 
<circle cx="111768" cy="8372.05" r="320.157" /> 
<circle cx="111768" cy="7372.05" r="320.157" /> 
<circle cx="109768" cy="12372" r="320.157" /> 
<circle cx="109768" cy="11372" r="320.157" /> 
<circle cx="109768" cy="16372" r="320.157" /> 
<circle cx="109768" cy="15372" r="320.157" /> 
<circle cx="17767.5" cy="16372" r="320.157" /> 
<circle cx="17767.5" cy="15372" r="320.157" /> 
<circle cx="1267.5" cy="11872" r="320.157" /> 
<circle cx="2267.5" cy="11872" r="320.157" /> 
<circle cx="117768" cy="12372" r="320.157" /> 
<circle cx="117768" cy="11372" r="320.157" /> 
<circle cx="101768" cy="4372.05" r="320.157" /> 
<circle cx="101768" cy="3372.05" r="320.157" /> 
<circle cx="105268" cy="6872.05" r="320.157" /> 
<circle cx="104268" cy="6872.05" r="320.157" /> 
<circle cx="101768" cy="10372" r="320.157" /> 
<circle cx="101768" cy="9372.05" r="320.157" /> 
<circle cx="97767.5" cy="8372.05" r="320.157" /> 
<circle cx="97767.5" cy="7372.05" r="320.157" /> 
<circle cx="97767.5" cy="12372" r="320.157" /> 
<circle cx="97767.5" cy="11372" r="320.157" /> 
<circle cx="31267.5" cy="42872" r="320.157" /> 
<circle cx="30267.5" cy="42872" r="320.157" /> 
<circle cx="97767.5" cy="4372.05" r="320.157" /> 
<circle cx="97767.5" cy="3372.05" r="320.157" /> 
<circle cx="91767.5" cy="8372.05" r="320.157" /> 
<circle cx="91767.5" cy="7372.05" r="320.157" /> 
<circle cx="91767.5" cy="12372" r="320.157" /> 
<circle cx="91767.5" cy="11372" r="320.157" /> 
<circle cx="87767.5" cy="4372.05" r="320.157" /> 
<circle cx="87767.5" cy="3372.05" r="320.157" /> 
<circle cx="83767.5" cy="8372.05" r="320.157" /> 
<circle cx="83767.5" cy="7372.05" r="320.157" /> 
<circle cx="87767.5" cy="16372" r="320.157" /> 
<circle cx="87767.5" cy="15372" r="320.157" /> 
<circle cx="73267.5" cy="3872.05" r="320.157" /> 
<circle cx="74267.5" cy="3872.05" r="320.157" /> 
<circle cx="69267.5" cy="3872.05" r="320.157" /> 
<circle cx="70267.5" cy="3872.05" r="320.157" /> 
<circle cx="65267.5" cy="3872.05" r="320.157" /> 
<circle cx="66267.5" cy="3872.05" r="320.157" /> 
<circle cx="71767.5" cy="8372.05" r="320.157" /> 
<circle cx="71767.5" cy="7372.05" r="320.157" /> 
<circle cx="71767.5" cy="12372" r="320.157" /> 
<circle cx="71767.5" cy="11372" r="320.157" /> 
<circle cx="71767.5" cy="16372" r="320.157" /> 
<circle cx="71767.5" cy="15372" r="320.157" /> 
<circle cx="51767.5" cy="5372.05" r="320.157" /> 
<circle cx="51767.5" cy="4372.05" r="320.157" /> 
<circle cx="117768" cy="4372.05" r="320.157" /> 
<circle cx="117768" cy="3372.05" r="320.157" /> 
<circle cx="113268" cy="3872.05" r="320.157" /> 
<circle cx="114268" cy="3872.05" r="320.157" /> 
<circle cx="113268" cy="11872" r="320.157" /> 
<circle cx="114268" cy="11872" r="320.157" /> 
</g>
<g style="fill:#000000; fill-opacity:1.0; 
stroke:#000000; stroke-width:500; stroke-opacity:1; 
stroke-linecap:round; stroke-linejoin:round;">
<path d="M70767 45372
L71267 45372
" />
<path d="M72767 46872
L72767 50872
" />
<path d="M71267 45372
L72767 46872
" />
<path d="M31267 42872
L31267 50872
" />
<path d="M31267 50872
L30767 50872
" />
<path d="M26767 49372
L26767 50872
" />
<path d="M32767 50872
L32767 46372
" />
<path d="M32767 46372
L33767 45372
" />
<path d="M34767 49372
L34767 50872
" />
<path d="M44767 49372
L44767 50872
" />
<path d="M48767 47372
L48767 50872
" />
<path d="M54767 48372
L54767 50872
" />
<path d="M60767 47372
L60767 50872
" />
<path d="M57767 49372
L57767 50872
" />
<path d="M57767 50872
L56767 50872
" />
<path d="M70767 49372
L70767 50872
" />
</g>
<g style="fill:#000000; fill-opacity:1.0; 
stroke:#000000; stroke-width:1000; stroke-opacity:1; 
stroke-linecap:round; stroke-linejoin:round;">
<path d="M74767 50872
L72767 50872
" />
<path d="M72767 50872
L70767 50872
" />
</g>
<g style="fill:#000000; fill-opacity:1.0; 
stroke:#000000; stroke-width:500; stroke-opacity:1; 
stroke-linecap:round; stroke-linejoin:round;">
<path d="M14267 50372
L14267 48872
" />
<path d="M14267 50372
L14767 50872
" />
</g>
<g style="fill:#000000; fill-opacity:1.0; 
stroke:#000000; stroke-width:1000; stroke-opacity:1; 
stroke-linecap:round; stroke-linejoin:round;">
<path d="M70767 50872
L60767 50872
" />
<path d="M60767 50872
L56767 50872
" />
<path d="M56767 50872
L54767 50872
" />
<path d="M54767 50872
L48767 50872
" />
<path d="M48767 50872
L44767 50872
" />
<path d="M44767 50872
L34767 50872
" />
<path d="M34767 50872
L32767 50872
" />
<path d="M32767 50872
L30767 50872
" />
<path d="M30767 50872
L26767 50872
" />
<path d="M26767 50872
L14767 50872
" />
</g>
<g style="fill:#000000; fill-opacity:1.0; 
stroke:#000000; stroke-width:500; stroke-opacity:1; 
stroke-linecap:round; stroke-linejoin:round;">
<path d="M14267 48872
L14267 44872
" />
<path d="M121767 16372
L121767 17872
" />
<path d="M113267 11872
L113267 17872
" />
<path d="M113267 17872
L113767 17872
" />
<path d="M109767 16372
L109767 17872
" />
</g>
<g style="fill:#000000; fill-opacity:1.0; 
stroke:#000000; stroke-width:1000; stroke-opacity:1; 
stroke-linecap:round; stroke-linejoin:round;">
<path d="M33767 17872
L27767 17872
" />
</g>
<g style="fill:#000000; fill-opacity:1.0; 
stroke:#000000; stroke-width:500; stroke-opacity:1; 
stroke-linecap:round; stroke-linejoin:round;">
<path d="M17767 16372
L17767 17872
" />
<path d="M101767 10372
L101767 17872
" />
<path d="M97767 16372
L97767 17872
" />
<path d="M91767 12372
L91767 17872
" />
<path d="M87767 16372
L87767 17872
" />
<path d="M71767 16372
L71767 17872
" />
<path d="M1267 15872
L1267 17372
" />
</g>
<g style="fill:#000000; fill-opacity:1.0; 
stroke:#000000; stroke-width:1000; stroke-opacity:1; 
stroke-linecap:round; stroke-linejoin:round;">
<path d="M1767 17872
L11767 17872
" />
</g>
<g style="fill:#000000; fill-opacity:1.0; 
stroke:#000000; stroke-width:500; stroke-opacity:1; 
stroke-linecap:round; stroke-linejoin:round;">
<path d="M1267 17372
L1767 17872
" />
<path d="M1267 11872
L1267 15872
" />
<path d="M17767 8372
L17267 8372
" />
<path d="M15767 9872
L15767 17872
" />
<path d="M17267 8372
L15767 9872
" />
<path d="M65267 3872
L65267 5372
" />
</g>
<g style="fill:#000000; fill-opacity:1.0; 
stroke:#000000; stroke-width:1000; stroke-opacity:1; 
stroke-linecap:round; stroke-linejoin:round;">
<path d="M65767 17872
L69767 17872
" />
</g>
<g style="fill:#000000; fill-opacity:1.0; 
stroke:#000000; stroke-width:500; stroke-opacity:1; 
stroke-linecap:round; stroke-linejoin:round;">
<path d="M65767 5872
L65767 17872
" />
<path d="M65267 5372
L65767 5872
" />
</g>
<g style="fill:#000000; fill-opacity:1.0; 
stroke:#000000; stroke-width:1000; stroke-opacity:1; 
stroke-linecap:round; stroke-linejoin:round;">
<path d="M69767 17872
L71767 17872
" />
<path d="M71767 17872
L83767 17872
" />
<path d="M83767 17872
L87767 17872
" />
<path d="M87767 17872
L91767 17872
" />
<path d="M91767 17872
L93767 17872
" />
<path d="M93767 17872
L97767 17872
" />
<path d="M97767 17872
L101767 17872
" />
<path d="M109767 17872
L113767 17872
" />
<path d="M113767 17872
L115767 17872
" />
<path d="M115767 17872
L121767 17872
" />
<path d="M121767 17872
L125767 17872
" />
</g>
<g style="fill:#000000; fill-opacity:1.0; 
stroke:#000000; stroke-width:500; stroke-opacity:1; 
stroke-linecap:round; stroke-linejoin:round;">
<path d="M11767 16372
L11767 17872
" />
<path d="M35767 13872
L35767 17872
" />
<path d="M31767 12372
L32267 12372
" />
<path d="M35767 13872
L35767 12372
" />
<path d="M33767 13872
L35767 13872
" />
<path d="M32267 12372
L33767 13872
" />
<path d="M33767 16372
L33767 17872
" />
<path d="M45767 15372
L45767 17872
" />
<path d="M51767 14372
L51767 17872
" />
<path d="M48767 16372
L48767 17872
" />
<path d="M48767 17872
L47767 17872
" />
</g>
<g style="fill:#000000; fill-opacity:1.0; 
stroke:#000000; stroke-width:1000; stroke-opacity:1; 
stroke-linecap:round; stroke-linejoin:round;">
<path d="M61767 17872
L51767 17872
" />
<path d="M51767 17872
L47767 17872
" />
<path d="M47767 17872
L45767 17872
" />
<path d="M45767 17872
L35767 17872
" />
<path d="M35767 17872
L33767 17872
" />
<path d="M17767 17872
L15767 17872
" />
<path d="M15767 17872
L11767 17872
" />
</g>
<g style="fill:#000000; fill-opacity:1.0; 
stroke:#000000; stroke-width:500; stroke-opacity:1; 
stroke-linecap:round; stroke-linejoin:round;">
<path d="M40767 42372
L40267 42372
" />
<path d="M38767 40872
L38767 34872
" />
<path d="M40267 42372
L38767 40872
" />
<path d="M48767 38372
L48767 34872
" />
<path d="M70767 36372
L70767 34872
" />
<path d="M54767 38372
L54767 34872
" />
<path d="M60767 37372
L60767 34872
" />
<path d="M57767 36372
L57767 34872
" />
<path d="M57767 34872
L58767 34872
" />
<path d="M44767 36372
L44767 34872
" />
<path d="M30767 36372
L30767 34872
" />
<path d="M26767 36372
L26767 34872
" />
<path d="M21767 39372
L21767 34872
" />
<path d="M21767 34872
L20767 34872
" />
<path d="M18767 36372
L18767 34872
" />
<path d="M14767 36372
L14767 34872
" />
<path d="M74767 34872
L74767 36372
" />
</g>
<g style="fill:#000000; fill-opacity:1.0; 
stroke:#000000; stroke-width:1000; stroke-opacity:1; 
stroke-linecap:round; stroke-linejoin:round;">
<path d="M14767 34872
L18767 34872
" />
<path d="M18767 34872
L20767 34872
" />
<path d="M20767 34872
L26767 34872
" />
<path d="M26767 34872
L30767 34872
" />
<path d="M30767 34872
L38767 34872
" />
<path d="M38767 34872
L44767 34872
" />
<path d="M44767 34872
L48767 34872
" />
<path d="M48767 34872
L54767 34872
" />
<path d="M54767 34872
L58767 34872
" />
<path d="M58767 34872
L60767 34872
" />
<path d="M60767 34872
L70767 34872
" />
<path d="M70767 34872
L74767 34872
" />
<path d="M111767 1872
L109767 1872
" />
</g>
<g style="fill:#000000; fill-opacity:1.0; 
stroke:#000000; stroke-width:500; stroke-opacity:1; 
stroke-linecap:round; stroke-linejoin:round;">
<path d="M117767 11372
L117767 7872
" />
<path d="M117767 7872
L119767 5872
" />
<path d="M119767 7372
L119767 5872
" />
<path d="M119767 5872
L119767 1872
" />
<path d="M117767 3372
L117767 1872
" />
<path d="M111767 7372
L111767 1872
" />
</g>
<g style="fill:#000000; fill-opacity:1.0; 
stroke:#000000; stroke-width:1000; stroke-opacity:1; 
stroke-linecap:round; stroke-linejoin:round;">
<path d="M11767 1872
L17767 1872
" />
</g>
<g style="fill:#000000; fill-opacity:1.0; 
stroke:#000000; stroke-width:500; stroke-opacity:1; 
stroke-linecap:round; stroke-linejoin:round;">
<path d="M101767 3372
L101767 1872
" />
<path d="M97767 7372
L98267 7372
" />
<path d="M99767 5872
L99767 1872
" />
<path d="M98267 7372
L99767 5872
" />
<path d="M97767 3372
L97767 1872
" />
<path d="M87767 3372
L87767 1872
" />
<path d="M77767 3372
L77767 1872
" />
<path d="M5767 7372
L5767 1872
" />
<path d="M1767 3372
L1767 1872
" />
</g>
<g style="fill:#000000; fill-opacity:1.0; 
stroke:#000000; stroke-width:1000; stroke-opacity:1; 
stroke-linecap:round; stroke-linejoin:round;">
<path d="M1767 1872
L5767 1872
" />
<path d="M5767 1872
L9767 1872
" />
</g>
<g style="fill:#000000; fill-opacity:1.0; 
stroke:#000000; stroke-width:500; stroke-opacity:1; 
stroke-linecap:round; stroke-linejoin:round;">
<path d="M11767 7372
L11267 7372
" />
<path d="M9767 5872
L9767 1872
" />
<path d="M11267 7372
L9767 5872
" />
<path d="M71767 7372
L74267 7372
" />
<path d="M75767 5872
L75767 1872
" />
<path d="M74267 7372
L75767 5872
" />
<path d="M74267 3872
L74267 1872
" />
<path d="M74267 1872
L73767 1872
" />
</g>
<g style="fill:#000000; fill-opacity:1.0; 
stroke:#000000; stroke-width:1000; stroke-opacity:1; 
stroke-linecap:round; stroke-linejoin:round;">
<path d="M83767 1872
L87767 1872
" />
<path d="M87767 1872
L91767 1872
" />
<path d="M91767 1872
L93767 1872
" />
<path d="M93767 1872
L97767 1872
" />
<path d="M97767 1872
L99767 1872
" />
<path d="M99767 1872
L101767 1872
" />
<path d="M111767 1872
L113767 1872
" />
<path d="M113767 1872
L117767 1872
" />
<path d="M117767 1872
L119767 1872
" />
<path d="M119767 1872
L125767 1872
" />
<path d="M65767 1872
L73767 1872
" />
<path d="M73767 1872
L75767 1872
" />
<path d="M75767 1872
L77767 1872
" />
<path d="M77767 1872
L79767 1872
" />
<path d="M79767 1872
L83767 1872
" />
</g>
<g style="fill:#000000; fill-opacity:1.0; 
stroke:#000000; stroke-width:500; stroke-opacity:1; 
stroke-linecap:round; stroke-linejoin:round;">
<path d="M11767 3372
L11767 1872
" />
<path d="M27767 3372
L27767 1872
" />
<path d="M39767 3372
L39767 1872
" />
<path d="M45767 5372
L45767 1872
" />
<path d="M51767 4372
L51767 1872
" />
<path d="M48767 3372
L48767 1872
" />
<path d="M48767 1872
L49767 1872
" />
</g>
<g style="fill:#000000; fill-opacity:1.0; 
stroke:#000000; stroke-width:1000; stroke-opacity:1; 
stroke-linecap:round; stroke-linejoin:round;">
<path d="M61767 1872
L51767 1872
" />
<path d="M51767 1872
L49767 1872
" />
<path d="M49767 1872
L45767 1872
" />
<path d="M45767 1872
L39767 1872
" />
<path d="M39767 1872
L27767 1872
" />
<path d="M11767 1872
L9767 1872
" />
</g>
<g style="fill:#000000; fill-opacity:1.0; 
stroke:#000000; stroke-width:500; stroke-opacity:1; 
stroke-linecap:round; stroke-linejoin:round;">
<path d="M70767 40372
L71767 40372
" />
<path d="M71767 40372
L74767 37372
" />
<path d="M57767 48372
L57767 43372
" />
<path d="M57767 42372
L57767 37372
" />
<path d="M15267 44872
L15267 41872
" />
<path d="M15267 41872
L14767 41372
" />
<path d="M14767 40372
L14767 37372
" />
<path d="M15267 48872
L16767 48872
" />
<path d="M18767 46872
L18767 43372
" />
<path d="M16767 48872
L18767 46872
" />
<path d="M18767 37372
L18767 42372
" />
<path d="M26767 48372
L26767 45372
" />
<path d="M21767 40372
L21767 41872
" />
<path d="M24267 44372
L22767 42872
" />
<path d="M24267 44372
L26767 44372
" />
<path d="M21767 41872
L22767 42872
" />
<path d="M40767 39372
L41267 39372
" />
<path d="M44767 42872
L42767 40872
" />
<path d="M44767 42872
L44767 48372
" />
<path d="M41267 39372
L42767 40872
" />
<path d="M40767 38372
L43767 38372
" />
<path d="M43767 38372
L44767 37372
" />
<path d="M60767 43372
L60767 38372
" />
<path d="M121767 12372
L121767 15372
" />
<path d="M121767 11372
L121767 10372
" />
<path d="M121767 10372
L119767 8372
" />
<path d="M113267 3872
L113267 5372
" />
<path d="M114267 6372
L113767 5872
" />
<path d="M114267 6372
L114267 11872
" />
<path d="M113267 5372
L113767 5872
" />
<path d="M117767 4372
L114767 4372
" />
<path d="M114767 4372
L114267 3872
" />
<path d="M33767 39372
L31267 39372
" />
<path d="M30767 38872
L30767 37372
" />
<path d="M31267 39372
L30767 38872
" />
<path d="M33767 44372
L33767 40372
" />
<path d="M34767 48372
L39767 48372
" />
<path d="M39767 48372
L40767 47372
" />
<path d="M40767 46372
L40767 43372
" />
<path d="M48767 43372
L48767 46372
" />
<path d="M60767 46372
L60767 44372
" />
<path d="M48767 39372
L48767 42372
" />
<path d="M35767 11372
L35767 10372
" />
<path d="M35767 10372
L37767 8372
" />
<path d="M37767 7372
L37767 6372
" />
<path d="M37767 6372
L39767 4372
" />
<path d="M45767 14372
L45767 9372
" />
<path d="M31767 11372
L31767 10372
" />
<path d="M31767 10372
L29767 8372
" />
<path d="M29767 7372
L29767 6372
" />
<path d="M29767 6372
L27767 4372
" />
<path d="M48767 4372
L48767 9372
" />
<path d="M51767 10372
L51767 5372
" />
<path d="M51767 13372
L51767 11372
" />
<path d="M48767 15372
L48767 10372
" />
<path d="M45767 8372
L45767 6372
" />
<path d="M11767 15372
L11767 12372
" />
<path d="M2267 15872
L4267 15872
" />
<path d="M4267 15872
L7767 12372
" />
<path d="M7767 11372
L7767 10372
" />
<path d="M7767 10372
L5767 8372
" />
<path d="M11767 11372
L11767 8372
" />
<path d="M2267 11872
L2267 8872
" />
<path d="M2267 8872
L1767 8372
" />
<path d="M1767 7372
L1767 4372
" />
</g>
<g style="fill:#000000; fill-opacity:1.0; 
stroke:#000000; stroke-width:1000; stroke-opacity:1; 
stroke-linecap:round; stroke-linejoin:round;">
<path d="M27767 13872
L29767 13872
" />
</g>
<g style="fill:#000000; fill-opacity:1.0; 
stroke:#000000; stroke-width:500; stroke-opacity:1; 
stroke-linecap:round; stroke-linejoin:round;">
<path d="M31267 15372
L29767 13872
" />
<path d="M31267 15372
L33767 15372
" />
</g>
<g style="fill:#000000; fill-opacity:1.0; 
stroke:#000000; stroke-width:1000; stroke-opacity:1; 
stroke-linecap:round; stroke-linejoin:round;">
<path d="M83767 15872
L83767 13872
" />
</g>
<g style="fill:#000000; fill-opacity:1.0; 
stroke:#000000; stroke-width:500; stroke-opacity:1; 
stroke-linecap:round; stroke-linejoin:round;">
<path d="M83767 13872
L83767 12372
" />
<path d="M83767 11372
L81267 11372
" />
<path d="M77767 7872
L77767 4372
" />
<path d="M81267 11372
L77767 7872
" />
<path d="M18267 3872
L18267 6872
" />
<path d="M18267 6872
L17767 7372
" />
<path d="M70767 41372
L70767 44372
" />
<path d="M11767 4372
L16767 4372
" />
<path d="M16767 4372
L17267 3872
" />
<path d="M17267 11872
L17267 14872
" />
<path d="M17267 14872
L17767 15372
" />
</g>
<g style="fill:#000000; fill-opacity:1.0; 
stroke:#000000; stroke-width:1000; stroke-opacity:1; 
stroke-linecap:round; stroke-linejoin:round;">
<path d="M115767 15872
L117767 13872
" />
</g>
<g style="fill:#000000; fill-opacity:1.0; 
stroke:#000000; stroke-width:500; stroke-opacity:1; 
stroke-linecap:round; stroke-linejoin:round;">
<path d="M117767 13872
L117767 12372
" />
</g>
<g style="fill:#000000; fill-opacity:1.0; 
stroke:#000000; stroke-width:1000; stroke-opacity:1; 
stroke-linecap:round; stroke-linejoin:round;">
<path d="M21767 11872
L19767 11872
" />
</g>
<g style="fill:#000000; fill-opacity:1.0; 
stroke:#000000; stroke-width:500; stroke-opacity:1; 
stroke-linecap:round; stroke-linejoin:round;">
<path d="M19767 11872
L18267 11872
" />
<path d="M105267 6872
L105267 8372
" />
<path d="M104267 9372
L104767 8872
" />
<path d="M104267 9372
L101767 9372
" />
<path d="M105267 8372
L104767 8872
" />
<path d="M104267 6872
L102767 6872
" />
<path d="M101767 5872
L101767 4372
" />
<path d="M102767 6872
L101767 5872
" />
<path d="M97767 15372
L97767 12372
" />
<path d="M97767 11372
L97767 8372
" />
<path d="M26767 41372
L28767 41372
" />
<path d="M28767 41372
L30267 42872
" />
<path d="M26767 40372
L26767 37372
" />
<path d="M109767 15372
L109767 12372
" />
<path d="M66267 36872
L66267 46372
" />
<path d="M68267 48372
L66767 46872
" />
<path d="M68267 48372
L70767 48372
" />
<path d="M66267 46372
L66767 46872
" />
<path d="M111767 8372
L111767 9372
" />
<path d="M111767 9372
L109767 11372
" />
<path d="M69267 3872
L66267 3872
" />
<path d="M73267 3872
L70267 3872
" />
<path d="M71767 15372
L71767 12372
" />
<path d="M71767 11372
L71767 8372
" />
<path d="M91767 11372
L91767 8372
" />
<path d="M97767 4372
L94767 4372
" />
<path d="M94767 4372
L91767 7372
" />
<path d="M87767 15372
L87767 9872
" />
<path d="M86267 8372
L87767 9872
" />
<path d="M86267 8372
L83767 8372
" />
<path d="M83767 7372
L86267 7372
" />
<path d="M87767 5872
L87767 4372
" />
<path d="M86267 7372
L87767 5872
" />
<path d="M70767 37372
L67767 37372
" />
<path d="M67767 37372
L67267 36872
" />
<path d="M54767 42372
L54767 47372
" />
<path d="M54767 41372
L54767 39372
" />
</g>
<g style="fill:#FFFFFF; fill-opacity:1.0; 
stroke:#FFFFFF; stroke-width:19.685; stroke-opacity:1; 
stroke-linecap:round; stroke-linejoin:round;">
<circle cx="70767.5" cy="49372" r="150.157" /> 
<circle cx="70767.5" cy="48372" r="150.157" /> 
<circle cx="26767.5" cy="45372" r="150.157" /> 
<circle cx="26767.5" cy="44372" r="150.157" /> 
<circle cx="21767.5" cy="40372" r="150.157" /> 
<circle cx="21767.5" cy="39372" r="150.157" /> 
<circle cx="121768" cy="16372" r="150.157" /> 
<circle cx="121768" cy="15372" r="150.157" /> 
<circle cx="26767.5" cy="49372" r="150.157" /> 
<circle cx="26767.5" cy="48372" r="150.157" /> 
<circle cx="121768" cy="12372" r="150.157" /> 
<circle cx="121768" cy="11372" r="150.157" /> 
<circle cx="119768" cy="8372.05" r="150.157" /> 
<circle cx="119768" cy="7372.05" r="150.157" /> 
<circle cx="18767.5" cy="37372" r="150.157" /> 
<circle cx="18767.5" cy="36372" r="150.157" /> 
<circle cx="18767.5" cy="43372" r="150.157" /> 
<circle cx="18767.5" cy="42372" r="150.157" /> 
<circle cx="14267.5" cy="44872" r="150.157" /> 
<circle cx="15267.5" cy="44872" r="150.157" /> 
<circle cx="14767.5" cy="41372" r="150.157" /> 
<circle cx="14767.5" cy="40372" r="150.157" /> 
<circle cx="14767.5" cy="37372" r="150.157" /> 
<circle cx="14767.5" cy="36372" r="150.157" /> 
<circle cx="14267.5" cy="48872" r="150.157" /> 
<circle cx="15267.5" cy="48872" r="150.157" /> 
<circle cx="57767.5" cy="43372" r="150.157" /> 
<circle cx="57767.5" cy="42372" r="150.157" /> 
<circle cx="33767.5" cy="45372" r="150.157" /> 
<circle cx="33767.5" cy="44372" r="150.157" /> 
<circle cx="33767.5" cy="40372" r="150.157" /> 
<circle cx="33767.5" cy="39372" r="150.157" /> 
<circle cx="30767.5" cy="37372" r="150.157" /> 
<circle cx="30767.5" cy="36372" r="150.157" /> 
<circle cx="34767.5" cy="49372" r="150.157" /> 
<circle cx="34767.5" cy="48372" r="150.157" /> 
<circle cx="40767.5" cy="47372" r="150.157" /> 
<circle cx="40767.5" cy="46372" r="150.157" /> 
<circle cx="40767.5" cy="43372" r="150.157" /> 
<circle cx="40767.5" cy="42372" r="150.157" /> 
<circle cx="48767.5" cy="47372" r="150.157" /> 
<circle cx="48767.5" cy="46372" r="150.157" /> 
<circle cx="48767.5" cy="43372" r="150.157" /> 
<circle cx="48767.5" cy="42372" r="150.157" /> 
<circle cx="48767.5" cy="39372" r="150.157" /> 
<circle cx="48767.5" cy="38372" r="150.157" /> 
<circle cx="54767.5" cy="48372" r="150.157" /> 
<circle cx="54767.5" cy="47372" r="150.157" /> 
<circle cx="54767.5" cy="42372" r="150.157" /> 
<circle cx="54767.5" cy="41372" r="150.157" /> 
<circle cx="54767.5" cy="39372" r="150.157" /> 
<circle cx="54767.5" cy="38372" r="150.157" /> 
<circle cx="57767.5" cy="49372" r="150.157" /> 
<circle cx="57767.5" cy="48372" r="150.157" /> 
<circle cx="44767.5" cy="37372" r="150.157" /> 
<circle cx="44767.5" cy="36372" r="150.157" /> 
<circle cx="57767.5" cy="37372" r="150.157" /> 
<circle cx="57767.5" cy="36372" r="150.157" /> 
<circle cx="60767.5" cy="47372" r="150.157" /> 
<circle cx="60767.5" cy="46372" r="150.157" /> 
<circle cx="60767.5" cy="44372" r="150.157" /> 
<circle cx="60767.5" cy="43372" r="150.157" /> 
<circle cx="60767.5" cy="38372" r="150.157" /> 
<circle cx="60767.5" cy="37372" r="150.157" /> 
<circle cx="70767.5" cy="45372" r="150.157" /> 
<circle cx="70767.5" cy="44372" r="150.157" /> 
<circle cx="70767.5" cy="41372" r="150.157" /> 
<circle cx="70767.5" cy="40372" r="150.157" /> 
<circle cx="74767.5" cy="37372" r="150.157" /> 
<circle cx="74767.5" cy="36372" r="150.157" /> 
<circle cx="17267.5" cy="11872" r="150.157" /> 
<circle cx="18267.5" cy="11872" r="150.157" /> 
<circle cx="66267.5" cy="36872" r="150.157" /> 
<circle cx="67267.5" cy="36872" r="150.157" /> 
<circle cx="70767.5" cy="37372" r="150.157" /> 
<circle cx="70767.5" cy="36372" r="150.157" /> 
<circle cx="44767.5" cy="49372" r="150.157" /> 
<circle cx="44767.5" cy="48372" r="150.157" /> 
<circle cx="40767.5" cy="39372" r="150.157" /> 
<circle cx="40767.5" cy="38372" r="150.157" /> 
<circle cx="77767.5" cy="4372.05" r="150.157" /> 
<circle cx="77767.5" cy="3372.05" r="150.157" /> 
<circle cx="51767.5" cy="14372" r="150.157" /> 
<circle cx="51767.5" cy="13372" r="150.157" /> 
<circle cx="48767.5" cy="4372.05" r="150.157" /> 
<circle cx="48767.5" cy="3372.05" r="150.157" /> 
<circle cx="48767.5" cy="10372" r="150.157" /> 
<circle cx="48767.5" cy="9372.05" r="150.157" /> 
<circle cx="48767.5" cy="16372" r="150.157" /> 
<circle cx="48767.5" cy="15372" r="150.157" /> 
<circle cx="45767.5" cy="6372.05" r="150.157" /> 
<circle cx="45767.5" cy="5372.05" r="150.157" /> 
<circle cx="45767.5" cy="9372.05" r="150.157" /> 
<circle cx="45767.5" cy="8372.05" r="150.157" /> 
<circle cx="45767.5" cy="15372" r="150.157" /> 
<circle cx="45767.5" cy="14372" r="150.157" /> 
<circle cx="39767.5" cy="4372.05" r="150.157" /> 
<circle cx="39767.5" cy="3372.05" r="150.157" /> 
<circle cx="37767.5" cy="8372.05" r="150.157" /> 
<circle cx="37767.5" cy="7372.05" r="150.157" /> 
<circle cx="35767.5" cy="12372" r="150.157" /> 
<circle cx="35767.5" cy="11372" r="150.157" /> 
<circle cx="27767.5" cy="4372.05" r="150.157" /> 
<circle cx="27767.5" cy="3372.05" r="150.157" /> 
<circle cx="29767.5" cy="8372.05" r="150.157" /> 
<circle cx="29767.5" cy="7372.05" r="150.157" /> 
<circle cx="31767.5" cy="12372" r="150.157" /> 
<circle cx="31767.5" cy="11372" r="150.157" /> 
<circle cx="51767.5" cy="11372" r="150.157" /> 
<circle cx="51767.5" cy="10372" r="150.157" /> 
<circle cx="83767.5" cy="12372" r="150.157" /> 
<circle cx="83767.5" cy="11372" r="150.157" /> 
<circle cx="33767.5" cy="16372" r="150.157" /> 
<circle cx="33767.5" cy="15372" r="150.157" /> 
<circle cx="11767.5" cy="4372.05" r="150.157" /> 
<circle cx="11767.5" cy="3372.05" r="150.157" /> 
<circle cx="18267.5" cy="3872.05" r="150.157" /> 
<circle cx="17267.5" cy="3872.05" r="150.157" /> 
<circle cx="17767.5" cy="8372.05" r="150.157" /> 
<circle cx="17767.5" cy="7372.05" r="150.157" /> 
<circle cx="11767.5" cy="8372.05" r="150.157" /> 
<circle cx="11767.5" cy="7372.05" r="150.157" /> 
<circle cx="11767.5" cy="12372" r="150.157" /> 
<circle cx="11767.5" cy="11372" r="150.157" /> 
<circle cx="11767.5" cy="16372" r="150.157" /> 
<circle cx="11767.5" cy="15372" r="150.157" /> 
<circle cx="5767.5" cy="8372.05" r="150.157" /> 
<circle cx="5767.5" cy="7372.05" r="150.157" /> 
<circle cx="7767.5" cy="12372" r="150.157" /> 
<circle cx="7767.5" cy="11372" r="150.157" /> 
<circle cx="1267.5" cy="15872" r="150.157" /> 
<circle cx="2267.5" cy="15872" r="150.157" /> 
<circle cx="1767.5" cy="4372.05" r="150.157" /> 
<circle cx="1767.5" cy="3372.05" r="150.157" /> 
<circle cx="1767.5" cy="8372.05" r="150.157" /> 
<circle cx="1767.5" cy="7372.05" r="150.157" /> 
<circle cx="97767.5" cy="16372" r="150.157" /> 
<circle cx="97767.5" cy="15372" r="150.157" /> 
<circle cx="26767.5" cy="41372" r="150.157" /> 
<circle cx="26767.5" cy="40372" r="150.157" /> 
<circle cx="26767.5" cy="37372" r="150.157" /> 
<circle cx="26767.5" cy="36372" r="150.157" /> 
<circle cx="111768" cy="8372.05" r="150.157" /> 
<circle cx="111768" cy="7372.05" r="150.157" /> 
<circle cx="109768" cy="12372" r="150.157" /> 
<circle cx="109768" cy="11372" r="150.157" /> 
<circle cx="109768" cy="16372" r="150.157" /> 
<circle cx="109768" cy="15372" r="150.157" /> 
<circle cx="17767.5" cy="16372" r="150.157" /> 
<circle cx="17767.5" cy="15372" r="150.157" /> 
<circle cx="1267.5" cy="11872" r="150.157" /> 
<circle cx="2267.5" cy="11872" r="150.157" /> 
<circle cx="117768" cy="12372" r="150.157" /> 
<circle cx="117768" cy="11372" r="150.157" /> 
<circle cx="101768" cy="4372.05" r="150.157" /> 
<circle cx="101768" cy="3372.05" r="150.157" /> 
<circle cx="105268" cy="6872.05" r="150.157" /> 
<circle cx="104268" cy="6872.05" r="150.157" /> 
<circle cx="101768" cy="10372" r="150.157" /> 
<circle cx="101768" cy="9372.05" r="150.157" /> 
<circle cx="97767.5" cy="8372.05" r="150.157" /> 
<circle cx="97767.5" cy="7372.05" r="150.157" /> 
<circle cx="97767.5" cy="12372" r="150.157" /> 
<circle cx="97767.5" cy="11372" r="150.157" /> 
<circle cx="31267.5" cy="42872" r="150.157" /> 
<circle cx="30267.5" cy="42872" r="150.157" /> 
<circle cx="97767.5" cy="4372.05" r="150.157" /> 
<circle cx="97767.5" cy="3372.05" r="150.157" /> 
<circle cx="91767.5" cy="8372.05" r="150.157" /> 
<circle cx="91767.5" cy="7372.05" r="150.157" /> 
<circle cx="91767.5" cy="12372" r="150.157" /> 
<circle cx="91767.5" cy="11372" r="150.157" /> 
<circle cx="87767.5" cy="4372.05" r="150.157" /> 
<circle cx="87767.5" cy="3372.05" r="150.157" /> 
<circle cx="83767.5" cy="8372.05" r="150.157" /> 
<circle cx="83767.5" cy="7372.05" r="150.157" /> 
<circle cx="87767.5" cy="16372" r="150.157" /> 
<circle cx="87767.5" cy="15372" r="150.157" /> 
<circle cx="73267.5" cy="3872.05" r="150.157" /> 
<circle cx="74267.5" cy="3872.05" r="150.157" /> 
<circle cx="69267.5" cy="3872.05" r="150.157" /> 
<circle cx="70267.5" cy="3872.05" r="150.157" /> 
<circle cx="65267.5" cy="3872.05" r="150.157" /> 
<circle cx="66267.5" cy="3872.05" r="150.157" /> 
<circle cx="71767.5" cy="8372.05" r="150.157" /> 
<circle cx="71767.5" cy="7372.05" r="150.157" /> 
<circle cx="71767.5" cy="12372" r="150.157" /> 
<circle cx="71767.5" cy="11372" r="150.157" /> 
<circle cx="71767.5" cy="16372" r="150.157" /> 
<circle cx="71767.5" cy="15372" r="150.157" /> 
<circle cx="51767.5" cy="5372.05" r="150.157" /> 
<circle cx="51767.5" cy="4372.05" r="150.157" /> 
<circle cx="117768" cy="4372.05" r="150.157" /> 
<circle cx="117768" cy="3372.05" r="150.157" /> 
<circle cx="113268" cy="3872.05" r="150.157" /> 
<circle cx="114268" cy="3872.05" r="150.157" /> 
<circle cx="113268" cy="11872" r="150.157" /> 
<circle cx="114268" cy="11872" r="150.157" /> 
</g> 
</svg>
