<?xml version="1.0" standalone="no"?>
 <!DOCTYPE svg PUBLIC "-//W3C//DTD SVG 1.1//EN" 
 "http://www.w3.org/Graphics/SVG/1.1/DTD/svg11.dtd"> 
<svg xmlns="http://www.w3.org/2000/svg" version="1.1" 
    width="41.9989cm" height="29.7002cm" viewBox="0 0 165350 116930 ">
<title>SVG Picture created as ni-vstopa-prost-B_Cu.svg date 2015/08/03 22:54:26 </title>
  <desc>Picture generated by PCBNEW </desc>
<g style="fill:#000000; fill-opacity:1;stroke:#000000; stroke-opacity:1;
stroke-linecap:round; stroke-linejoin:round; "
 transform="translate(0 0) scale(1 1)">
</g>
<g style="fill:#000000; fill-opacity:0.0; 
stroke:#000000; stroke-width:59.0551; stroke-opacity:1; 
stroke-linecap:round; stroke-linejoin:round;">
<path d="M68496 57842
L68496 38157
" />
<path d="M5503 57842
L68496 57842
" />
<path d="M5503 38157
L5503 57842
" />
<path d="M68496 38157
L5503 38157
" />
<path d="M69503 38157
L132496 38157
" />
<path d="M69503 57842
L69503 38157
" />
<path d="M132496 57842
L69503 57842
" />
<path d="M132496 38157
L132496 57842
" />
<path d="M18503 90842
L18503 71157
" />
<path d="M81496 90842
L18503 90842
" />
<path d="M81496 71157
L81496 90842
" />
<path d="M18503 71157
L81496 71157
" />
</g>
<g style="fill:#000000; fill-opacity:1.0; 
stroke:#000000; stroke-width:59.0551; stroke-opacity:1; 
stroke-linecap:round; stroke-linejoin:round;">
<circle cx="76000" cy="87500" r="300.472" /> 
<circle cx="76000" cy="86500" r="300.472" /> 
<circle cx="32000" cy="83500" r="300.472" /> 
<circle cx="32000" cy="82500" r="300.472" /> 
<circle cx="27000" cy="78500" r="300.472" /> 
<circle cx="27000" cy="77500" r="300.472" /> 
<circle cx="127000" cy="54500" r="300.472" /> 
<circle cx="127000" cy="53500" r="300.472" /> 
<circle cx="32000" cy="87500" r="300.472" /> 
<circle cx="32000" cy="86500" r="300.472" /> 
<circle cx="127000" cy="50500" r="300.472" /> 
<circle cx="127000" cy="49500" r="300.472" /> 
<circle cx="125000" cy="46500" r="300.472" /> 
<circle cx="125000" cy="45500" r="300.472" /> 
<circle cx="24000" cy="75500" r="300.472" /> 
<circle cx="24000" cy="74500" r="300.472" /> 
<circle cx="24000" cy="81500" r="300.472" /> 
<circle cx="24000" cy="80500" r="300.472" /> 
<circle cx="19500" cy="83000" r="300.472" /> 
<circle cx="20500" cy="83000" r="300.472" /> 
<circle cx="20000" cy="79500" r="300.472" /> 
<circle cx="20000" cy="78500" r="300.472" /> 
<circle cx="20000" cy="75500" r="300.472" /> 
<circle cx="20000" cy="74500" r="300.472" /> 
<circle cx="19500" cy="87000" r="300.472" /> 
<circle cx="20500" cy="87000" r="300.472" /> 
<circle cx="63000" cy="81500" r="300.472" /> 
<circle cx="63000" cy="80500" r="300.472" /> 
<circle cx="39000" cy="83500" r="300.472" /> 
<circle cx="39000" cy="82500" r="300.472" /> 
<circle cx="39000" cy="78500" r="300.472" /> 
<circle cx="39000" cy="77500" r="300.472" /> 
<circle cx="36000" cy="75500" r="300.472" /> 
<circle cx="36000" cy="74500" r="300.472" /> 
<circle cx="40000" cy="87500" r="300.472" /> 
<circle cx="40000" cy="86500" r="300.472" /> 
<circle cx="46000" cy="85500" r="300.472" /> 
<circle cx="46000" cy="84500" r="300.472" /> 
<circle cx="46000" cy="81500" r="300.472" /> 
<circle cx="46000" cy="80500" r="300.472" /> 
<circle cx="54000" cy="85500" r="300.472" /> 
<circle cx="54000" cy="84500" r="300.472" /> 
<circle cx="54000" cy="81500" r="300.472" /> 
<circle cx="54000" cy="80500" r="300.472" /> 
<circle cx="54000" cy="77500" r="300.472" /> 
<circle cx="54000" cy="76500" r="300.472" /> 
<circle cx="60000" cy="86500" r="300.472" /> 
<circle cx="60000" cy="85500" r="300.472" /> 
<circle cx="60000" cy="80500" r="300.472" /> 
<circle cx="60000" cy="79500" r="300.472" /> 
<circle cx="60000" cy="77500" r="300.472" /> 
<circle cx="60000" cy="76500" r="300.472" /> 
<circle cx="63000" cy="87500" r="300.472" /> 
<circle cx="63000" cy="86500" r="300.472" /> 
<circle cx="50000" cy="75500" r="300.472" /> 
<circle cx="50000" cy="74500" r="300.472" /> 
<circle cx="63000" cy="75500" r="300.472" /> 
<circle cx="63000" cy="74500" r="300.472" /> 
<circle cx="66000" cy="85500" r="300.472" /> 
<circle cx="66000" cy="84500" r="300.472" /> 
<circle cx="66000" cy="82500" r="300.472" /> 
<circle cx="66000" cy="81500" r="300.472" /> 
<circle cx="66000" cy="76500" r="300.472" /> 
<circle cx="66000" cy="75500" r="300.472" /> 
<circle cx="76000" cy="83500" r="300.472" /> 
<circle cx="76000" cy="82500" r="300.472" /> 
<circle cx="76000" cy="79500" r="300.472" /> 
<circle cx="76000" cy="78500" r="300.472" /> 
<circle cx="80000" cy="75500" r="300.472" /> 
<circle cx="80000" cy="74500" r="300.472" /> 
<circle cx="22500" cy="50000" r="300.472" /> 
<circle cx="23500" cy="50000" r="300.472" /> 
<circle cx="71500" cy="75000" r="300.472" /> 
<circle cx="72500" cy="75000" r="300.472" /> 
<circle cx="76000" cy="75500" r="300.472" /> 
<circle cx="76000" cy="74500" r="300.472" /> 
<circle cx="50000" cy="87500" r="300.472" /> 
<circle cx="50000" cy="86500" r="300.472" /> 
<circle cx="46000" cy="77500" r="300.472" /> 
<circle cx="46000" cy="76500" r="300.472" /> 
<circle cx="83000" cy="42500" r="300.472" /> 
<circle cx="83000" cy="41500" r="300.472" /> 
<circle cx="57000" cy="52500" r="300.472" /> 
<circle cx="57000" cy="51500" r="300.472" /> 
<circle cx="54000" cy="42500" r="300.472" /> 
<circle cx="54000" cy="41500" r="300.472" /> 
<circle cx="54000" cy="48500" r="300.472" /> 
<circle cx="54000" cy="47500" r="300.472" /> 
<circle cx="54000" cy="54500" r="300.472" /> 
<circle cx="54000" cy="53500" r="300.472" /> 
<circle cx="51000" cy="44500" r="300.472" /> 
<circle cx="51000" cy="43500" r="300.472" /> 
<circle cx="51000" cy="47500" r="300.472" /> 
<circle cx="51000" cy="46500" r="300.472" /> 
<circle cx="51000" cy="53500" r="300.472" /> 
<circle cx="51000" cy="52500" r="300.472" /> 
<circle cx="45000" cy="42500" r="300.472" /> 
<circle cx="45000" cy="41500" r="300.472" /> 
<circle cx="43000" cy="46500" r="300.472" /> 
<circle cx="43000" cy="45500" r="300.472" /> 
<circle cx="41000" cy="50500" r="300.472" /> 
<circle cx="41000" cy="49500" r="300.472" /> 
<circle cx="33000" cy="42500" r="300.472" /> 
<circle cx="33000" cy="41500" r="300.472" /> 
<circle cx="35000" cy="46500" r="300.472" /> 
<circle cx="35000" cy="45500" r="300.472" /> 
<circle cx="37000" cy="50500" r="300.472" /> 
<circle cx="37000" cy="49500" r="300.472" /> 
<circle cx="57000" cy="49500" r="300.472" /> 
<circle cx="57000" cy="48500" r="300.472" /> 
<circle cx="89000" cy="50500" r="300.472" /> 
<circle cx="89000" cy="49500" r="300.472" /> 
<circle cx="39000" cy="54500" r="300.472" /> 
<circle cx="39000" cy="53500" r="300.472" /> 
<circle cx="17000" cy="42500" r="300.472" /> 
<circle cx="17000" cy="41500" r="300.472" /> 
<circle cx="23500" cy="42000" r="300.472" /> 
<circle cx="22500" cy="42000" r="300.472" /> 
<circle cx="23000" cy="46500" r="300.472" /> 
<circle cx="23000" cy="45500" r="300.472" /> 
<circle cx="17000" cy="46500" r="300.472" /> 
<circle cx="17000" cy="45500" r="300.472" /> 
<circle cx="17000" cy="50500" r="300.472" /> 
<circle cx="17000" cy="49500" r="300.472" /> 
<circle cx="17000" cy="54500" r="300.472" /> 
<circle cx="17000" cy="53500" r="300.472" /> 
<circle cx="11000" cy="46500" r="300.472" /> 
<circle cx="11000" cy="45500" r="300.472" /> 
<circle cx="13000" cy="50500" r="300.472" /> 
<circle cx="13000" cy="49500" r="300.472" /> 
<circle cx="6500" cy="54000" r="300.472" /> 
<circle cx="7500" cy="54000" r="300.472" /> 
<circle cx="7000" cy="42500" r="300.472" /> 
<circle cx="7000" cy="41500" r="300.472" /> 
<circle cx="7000" cy="46500" r="300.472" /> 
<circle cx="7000" cy="45500" r="300.472" /> 
<circle cx="103000" cy="54500" r="300.472" /> 
<circle cx="103000" cy="53500" r="300.472" /> 
<circle cx="32000" cy="79500" r="300.472" /> 
<circle cx="32000" cy="78500" r="300.472" /> 
<circle cx="32000" cy="75500" r="300.472" /> 
<circle cx="32000" cy="74500" r="300.472" /> 
<circle cx="117000" cy="46500" r="300.472" /> 
<circle cx="117000" cy="45500" r="300.472" /> 
<circle cx="115000" cy="50500" r="300.472" /> 
<circle cx="115000" cy="49500" r="300.472" /> 
<circle cx="115000" cy="54500" r="300.472" /> 
<circle cx="115000" cy="53500" r="300.472" /> 
<circle cx="23000" cy="54500" r="300.472" /> 
<circle cx="23000" cy="53500" r="300.472" /> 
<circle cx="6500" cy="50000" r="300.472" /> 
<circle cx="7500" cy="50000" r="300.472" /> 
<circle cx="123000" cy="50500" r="300.472" /> 
<circle cx="123000" cy="49500" r="300.472" /> 
<circle cx="107000" cy="42500" r="300.472" /> 
<circle cx="107000" cy="41500" r="300.472" /> 
<circle cx="110500" cy="45000" r="300.472" /> 
<circle cx="109500" cy="45000" r="300.472" /> 
<circle cx="107000" cy="48500" r="300.472" /> 
<circle cx="107000" cy="47500" r="300.472" /> 
<circle cx="103000" cy="46500" r="300.472" /> 
<circle cx="103000" cy="45500" r="300.472" /> 
<circle cx="103000" cy="50500" r="300.472" /> 
<circle cx="103000" cy="49500" r="300.472" /> 
<circle cx="36500" cy="81000" r="300.472" /> 
<circle cx="35500" cy="81000" r="300.472" /> 
<circle cx="103000" cy="42500" r="300.472" /> 
<circle cx="103000" cy="41500" r="300.472" /> 
<circle cx="97000" cy="46500" r="300.472" /> 
<circle cx="97000" cy="45500" r="300.472" /> 
<circle cx="97000" cy="50500" r="300.472" /> 
<circle cx="97000" cy="49500" r="300.472" /> 
<circle cx="93000" cy="42500" r="300.472" /> 
<circle cx="93000" cy="41500" r="300.472" /> 
<circle cx="89000" cy="46500" r="300.472" /> 
<circle cx="89000" cy="45500" r="300.472" /> 
<circle cx="93000" cy="54500" r="300.472" /> 
<circle cx="93000" cy="53500" r="300.472" /> 
<circle cx="78500" cy="42000" r="300.472" /> 
<circle cx="79500" cy="42000" r="300.472" /> 
<circle cx="74500" cy="42000" r="300.472" /> 
<circle cx="75500" cy="42000" r="300.472" /> 
<circle cx="70500" cy="42000" r="300.472" /> 
<circle cx="71500" cy="42000" r="300.472" /> 
<circle cx="77000" cy="46500" r="300.472" /> 
<circle cx="77000" cy="45500" r="300.472" /> 
<circle cx="77000" cy="50500" r="300.472" /> 
<circle cx="77000" cy="49500" r="300.472" /> 
<circle cx="77000" cy="54500" r="300.472" /> 
<circle cx="77000" cy="53500" r="300.472" /> 
<circle cx="57000" cy="43500" r="300.472" /> 
<circle cx="57000" cy="42500" r="300.472" /> 
<circle cx="123000" cy="42500" r="300.472" /> 
<circle cx="123000" cy="41500" r="300.472" /> 
<circle cx="118500" cy="42000" r="300.472" /> 
<circle cx="119500" cy="42000" r="300.472" /> 
<circle cx="118500" cy="50000" r="300.472" /> 
<circle cx="119500" cy="50000" r="300.472" /> 
</g>
<g style="fill:#000000; fill-opacity:1.0; 
stroke:#000000; stroke-width:500; stroke-opacity:1; 
stroke-linecap:round; stroke-linejoin:round;">
<path d="M76000 83500
L76500 83500
" />
<path d="M78000 85000
L78000 89000
" />
<path d="M76500 83500
L78000 85000
" />
<path d="M36500 81000
L36500 89000
" />
<path d="M36500 89000
L36000 89000
" />
<path d="M32000 87500
L32000 89000
" />
<path d="M38000 89000
L38000 84500
" />
<path d="M38000 84500
L39000 83500
" />
<path d="M40000 87500
L40000 89000
" />
<path d="M50000 87500
L50000 89000
" />
<path d="M54000 85500
L54000 89000
" />
<path d="M60000 86500
L60000 89000
" />
<path d="M66000 85500
L66000 89000
" />
<path d="M63000 87500
L63000 89000
" />
<path d="M63000 89000
L62000 89000
" />
<path d="M76000 87500
L76000 89000
" />
</g>
<g style="fill:#000000; fill-opacity:1.0; 
stroke:#000000; stroke-width:1000; stroke-opacity:1; 
stroke-linecap:round; stroke-linejoin:round;">
<path d="M80000 89000
L78000 89000
" />
<path d="M78000 89000
L76000 89000
" />
</g>
<g style="fill:#000000; fill-opacity:1.0; 
stroke:#000000; stroke-width:500; stroke-opacity:1; 
stroke-linecap:round; stroke-linejoin:round;">
<path d="M19500 88500
L19500 87000
" />
<path d="M19500 88500
L20000 89000
" />
</g>
<g style="fill:#000000; fill-opacity:1.0; 
stroke:#000000; stroke-width:1000; stroke-opacity:1; 
stroke-linecap:round; stroke-linejoin:round;">
<path d="M76000 89000
L66000 89000
" />
<path d="M66000 89000
L62000 89000
" />
<path d="M62000 89000
L60000 89000
" />
<path d="M60000 89000
L54000 89000
" />
<path d="M54000 89000
L50000 89000
" />
<path d="M50000 89000
L40000 89000
" />
<path d="M40000 89000
L38000 89000
" />
<path d="M38000 89000
L36000 89000
" />
<path d="M36000 89000
L32000 89000
" />
<path d="M32000 89000
L20000 89000
" />
</g>
<g style="fill:#000000; fill-opacity:1.0; 
stroke:#000000; stroke-width:500; stroke-opacity:1; 
stroke-linecap:round; stroke-linejoin:round;">
<path d="M19500 87000
L19500 83000
" />
<path d="M127000 54500
L127000 56000
" />
<path d="M118500 50000
L118500 56000
" />
<path d="M118500 56000
L119000 56000
" />
<path d="M115000 54500
L115000 56000
" />
</g>
<g style="fill:#000000; fill-opacity:1.0; 
stroke:#000000; stroke-width:1000; stroke-opacity:1; 
stroke-linecap:round; stroke-linejoin:round;">
<path d="M39000 56000
L33000 56000
" />
</g>
<g style="fill:#000000; fill-opacity:1.0; 
stroke:#000000; stroke-width:500; stroke-opacity:1; 
stroke-linecap:round; stroke-linejoin:round;">
<path d="M23000 54500
L23000 56000
" />
<path d="M107000 48500
L107000 56000
" />
<path d="M103000 54500
L103000 56000
" />
<path d="M97000 50500
L97000 56000
" />
<path d="M93000 54500
L93000 56000
" />
<path d="M77000 54500
L77000 56000
" />
<path d="M6500 54000
L6500 55500
" />
</g>
<g style="fill:#000000; fill-opacity:1.0; 
stroke:#000000; stroke-width:1000; stroke-opacity:1; 
stroke-linecap:round; stroke-linejoin:round;">
<path d="M7000 56000
L17000 56000
" />
</g>
<g style="fill:#000000; fill-opacity:1.0; 
stroke:#000000; stroke-width:500; stroke-opacity:1; 
stroke-linecap:round; stroke-linejoin:round;">
<path d="M6500 55500
L7000 56000
" />
<path d="M6500 50000
L6500 54000
" />
<path d="M23000 46500
L22500 46500
" />
<path d="M21000 48000
L21000 56000
" />
<path d="M22500 46500
L21000 48000
" />
<path d="M70500 42000
L70500 43500
" />
</g>
<g style="fill:#000000; fill-opacity:1.0; 
stroke:#000000; stroke-width:1000; stroke-opacity:1; 
stroke-linecap:round; stroke-linejoin:round;">
<path d="M71000 56000
L75000 56000
" />
</g>
<g style="fill:#000000; fill-opacity:1.0; 
stroke:#000000; stroke-width:500; stroke-opacity:1; 
stroke-linecap:round; stroke-linejoin:round;">
<path d="M71000 44000
L71000 56000
" />
<path d="M70500 43500
L71000 44000
" />
</g>
<g style="fill:#000000; fill-opacity:1.0; 
stroke:#000000; stroke-width:1000; stroke-opacity:1; 
stroke-linecap:round; stroke-linejoin:round;">
<path d="M75000 56000
L77000 56000
" />
<path d="M77000 56000
L89000 56000
" />
<path d="M89000 56000
L93000 56000
" />
<path d="M93000 56000
L97000 56000
" />
<path d="M97000 56000
L99000 56000
" />
<path d="M99000 56000
L103000 56000
" />
<path d="M103000 56000
L107000 56000
" />
<path d="M115000 56000
L119000 56000
" />
<path d="M119000 56000
L121000 56000
" />
<path d="M121000 56000
L127000 56000
" />
<path d="M127000 56000
L131000 56000
" />
</g>
<g style="fill:#000000; fill-opacity:1.0; 
stroke:#000000; stroke-width:500; stroke-opacity:1; 
stroke-linecap:round; stroke-linejoin:round;">
<path d="M17000 54500
L17000 56000
" />
<path d="M41000 52000
L41000 56000
" />
<path d="M37000 50500
L37500 50500
" />
<path d="M41000 52000
L41000 50500
" />
<path d="M39000 52000
L41000 52000
" />
<path d="M37500 50500
L39000 52000
" />
<path d="M39000 54500
L39000 56000
" />
<path d="M51000 53500
L51000 56000
" />
<path d="M57000 52500
L57000 56000
" />
<path d="M54000 54500
L54000 56000
" />
<path d="M54000 56000
L53000 56000
" />
</g>
<g style="fill:#000000; fill-opacity:1.0; 
stroke:#000000; stroke-width:1000; stroke-opacity:1; 
stroke-linecap:round; stroke-linejoin:round;">
<path d="M67000 56000
L57000 56000
" />
<path d="M57000 56000
L53000 56000
" />
<path d="M53000 56000
L51000 56000
" />
<path d="M51000 56000
L41000 56000
" />
<path d="M41000 56000
L39000 56000
" />
<path d="M23000 56000
L21000 56000
" />
<path d="M21000 56000
L17000 56000
" />
</g>
<g style="fill:#000000; fill-opacity:1.0; 
stroke:#000000; stroke-width:500; stroke-opacity:1; 
stroke-linecap:round; stroke-linejoin:round;">
<path d="M46000 80500
L45500 80500
" />
<path d="M44000 79000
L44000 73000
" />
<path d="M45500 80500
L44000 79000
" />
<path d="M54000 76500
L54000 73000
" />
<path d="M76000 74500
L76000 73000
" />
<path d="M60000 76500
L60000 73000
" />
<path d="M66000 75500
L66000 73000
" />
<path d="M63000 74500
L63000 73000
" />
<path d="M63000 73000
L64000 73000
" />
<path d="M50000 74500
L50000 73000
" />
<path d="M36000 74500
L36000 73000
" />
<path d="M32000 74500
L32000 73000
" />
<path d="M27000 77500
L27000 73000
" />
<path d="M27000 73000
L26000 73000
" />
<path d="M24000 74500
L24000 73000
" />
<path d="M20000 74500
L20000 73000
" />
<path d="M80000 73000
L80000 74500
" />
</g>
<g style="fill:#000000; fill-opacity:1.0; 
stroke:#000000; stroke-width:1000; stroke-opacity:1; 
stroke-linecap:round; stroke-linejoin:round;">
<path d="M20000 73000
L24000 73000
" />
<path d="M24000 73000
L26000 73000
" />
<path d="M26000 73000
L32000 73000
" />
<path d="M32000 73000
L36000 73000
" />
<path d="M36000 73000
L44000 73000
" />
<path d="M44000 73000
L50000 73000
" />
<path d="M50000 73000
L54000 73000
" />
<path d="M54000 73000
L60000 73000
" />
<path d="M60000 73000
L64000 73000
" />
<path d="M64000 73000
L66000 73000
" />
<path d="M66000 73000
L76000 73000
" />
<path d="M76000 73000
L80000 73000
" />
<path d="M117000 40000
L115000 40000
" />
</g>
<g style="fill:#000000; fill-opacity:1.0; 
stroke:#000000; stroke-width:500; stroke-opacity:1; 
stroke-linecap:round; stroke-linejoin:round;">
<path d="M123000 49500
L123000 46000
" />
<path d="M123000 46000
L125000 44000
" />
<path d="M125000 45500
L125000 44000
" />
<path d="M125000 44000
L125000 40000
" />
<path d="M123000 41500
L123000 40000
" />
<path d="M117000 45500
L117000 40000
" />
</g>
<g style="fill:#000000; fill-opacity:1.0; 
stroke:#000000; stroke-width:1000; stroke-opacity:1; 
stroke-linecap:round; stroke-linejoin:round;">
<path d="M17000 40000
L23000 40000
" />
</g>
<g style="fill:#000000; fill-opacity:1.0; 
stroke:#000000; stroke-width:500; stroke-opacity:1; 
stroke-linecap:round; stroke-linejoin:round;">
<path d="M107000 41500
L107000 40000
" />
<path d="M103000 45500
L103500 45500
" />
<path d="M105000 44000
L105000 40000
" />
<path d="M103500 45500
L105000 44000
" />
<path d="M103000 41500
L103000 40000
" />
<path d="M93000 41500
L93000 40000
" />
<path d="M83000 41500
L83000 40000
" />
<path d="M11000 45500
L11000 40000
" />
<path d="M7000 41500
L7000 40000
" />
</g>
<g style="fill:#000000; fill-opacity:1.0; 
stroke:#000000; stroke-width:1000; stroke-opacity:1; 
stroke-linecap:round; stroke-linejoin:round;">
<path d="M7000 40000
L11000 40000
" />
<path d="M11000 40000
L15000 40000
" />
</g>
<g style="fill:#000000; fill-opacity:1.0; 
stroke:#000000; stroke-width:500; stroke-opacity:1; 
stroke-linecap:round; stroke-linejoin:round;">
<path d="M17000 45500
L16500 45500
" />
<path d="M15000 44000
L15000 40000
" />
<path d="M16500 45500
L15000 44000
" />
<path d="M77000 45500
L79500 45500
" />
<path d="M81000 44000
L81000 40000
" />
<path d="M79500 45500
L81000 44000
" />
<path d="M79500 42000
L79500 40000
" />
<path d="M79500 40000
L79000 40000
" />
</g>
<g style="fill:#000000; fill-opacity:1.0; 
stroke:#000000; stroke-width:1000; stroke-opacity:1; 
stroke-linecap:round; stroke-linejoin:round;">
<path d="M89000 40000
L93000 40000
" />
<path d="M93000 40000
L97000 40000
" />
<path d="M97000 40000
L99000 40000
" />
<path d="M99000 40000
L103000 40000
" />
<path d="M103000 40000
L105000 40000
" />
<path d="M105000 40000
L107000 40000
" />
<path d="M117000 40000
L119000 40000
" />
<path d="M119000 40000
L123000 40000
" />
<path d="M123000 40000
L125000 40000
" />
<path d="M125000 40000
L131000 40000
" />
<path d="M71000 40000
L79000 40000
" />
<path d="M79000 40000
L81000 40000
" />
<path d="M81000 40000
L83000 40000
" />
<path d="M83000 40000
L85000 40000
" />
<path d="M85000 40000
L89000 40000
" />
</g>
<g style="fill:#000000; fill-opacity:1.0; 
stroke:#000000; stroke-width:500; stroke-opacity:1; 
stroke-linecap:round; stroke-linejoin:round;">
<path d="M17000 41500
L17000 40000
" />
<path d="M33000 41500
L33000 40000
" />
<path d="M45000 41500
L45000 40000
" />
<path d="M51000 43500
L51000 40000
" />
<path d="M57000 42500
L57000 40000
" />
<path d="M54000 41500
L54000 40000
" />
<path d="M54000 40000
L55000 40000
" />
</g>
<g style="fill:#000000; fill-opacity:1.0; 
stroke:#000000; stroke-width:1000; stroke-opacity:1; 
stroke-linecap:round; stroke-linejoin:round;">
<path d="M67000 40000
L57000 40000
" />
<path d="M57000 40000
L55000 40000
" />
<path d="M55000 40000
L51000 40000
" />
<path d="M51000 40000
L45000 40000
" />
<path d="M45000 40000
L33000 40000
" />
<path d="M17000 40000
L15000 40000
" />
</g>
<g style="fill:#000000; fill-opacity:1.0; 
stroke:#000000; stroke-width:500; stroke-opacity:1; 
stroke-linecap:round; stroke-linejoin:round;">
<path d="M76000 78500
L77000 78500
" />
<path d="M77000 78500
L80000 75500
" />
<path d="M63000 86500
L63000 81500
" />
<path d="M63000 80500
L63000 75500
" />
<path d="M20500 83000
L20500 80000
" />
<path d="M20500 80000
L20000 79500
" />
<path d="M20000 78500
L20000 75500
" />
<path d="M20500 87000
L22000 87000
" />
<path d="M24000 85000
L24000 81500
" />
<path d="M22000 87000
L24000 85000
" />
<path d="M24000 75500
L24000 80500
" />
<path d="M32000 86500
L32000 83500
" />
<path d="M27000 78500
L27000 80000
" />
<path d="M29500 82500
L28000 81000
" />
<path d="M29500 82500
L32000 82500
" />
<path d="M27000 80000
L28000 81000
" />
<path d="M46000 77500
L46500 77500
" />
<path d="M50000 81000
L48000 79000
" />
<path d="M50000 81000
L50000 86500
" />
<path d="M46500 77500
L48000 79000
" />
<path d="M46000 76500
L49000 76500
" />
<path d="M49000 76500
L50000 75500
" />
<path d="M66000 81500
L66000 76500
" />
<path d="M127000 50500
L127000 53500
" />
<path d="M127000 49500
L127000 48500
" />
<path d="M127000 48500
L125000 46500
" />
<path d="M118500 42000
L118500 43500
" />
<path d="M119500 44500
L119000 44000
" />
<path d="M119500 44500
L119500 50000
" />
<path d="M118500 43500
L119000 44000
" />
<path d="M123000 42500
L120000 42500
" />
<path d="M120000 42500
L119500 42000
" />
<path d="M39000 77500
L36500 77500
" />
<path d="M36000 77000
L36000 75500
" />
<path d="M36500 77500
L36000 77000
" />
<path d="M39000 82500
L39000 78500
" />
<path d="M40000 86500
L45000 86500
" />
<path d="M45000 86500
L46000 85500
" />
<path d="M46000 84500
L46000 81500
" />
<path d="M54000 81500
L54000 84500
" />
<path d="M66000 84500
L66000 82500
" />
<path d="M54000 77500
L54000 80500
" />
<path d="M41000 49500
L41000 48500
" />
<path d="M41000 48500
L43000 46500
" />
<path d="M43000 45500
L43000 44500
" />
<path d="M43000 44500
L45000 42500
" />
<path d="M51000 52500
L51000 47500
" />
<path d="M37000 49500
L37000 48500
" />
<path d="M37000 48500
L35000 46500
" />
<path d="M35000 45500
L35000 44500
" />
<path d="M35000 44500
L33000 42500
" />
<path d="M54000 42500
L54000 47500
" />
<path d="M57000 48500
L57000 43500
" />
<path d="M57000 51500
L57000 49500
" />
<path d="M54000 53500
L54000 48500
" />
<path d="M51000 46500
L51000 44500
" />
<path d="M17000 53500
L17000 50500
" />
<path d="M7500 54000
L9500 54000
" />
<path d="M9500 54000
L13000 50500
" />
<path d="M13000 49500
L13000 48500
" />
<path d="M13000 48500
L11000 46500
" />
<path d="M17000 49500
L17000 46500
" />
<path d="M7500 50000
L7500 47000
" />
<path d="M7500 47000
L7000 46500
" />
<path d="M7000 45500
L7000 42500
" />
</g>
<g style="fill:#000000; fill-opacity:1.0; 
stroke:#000000; stroke-width:1000; stroke-opacity:1; 
stroke-linecap:round; stroke-linejoin:round;">
<path d="M33000 52000
L35000 52000
" />
</g>
<g style="fill:#000000; fill-opacity:1.0; 
stroke:#000000; stroke-width:500; stroke-opacity:1; 
stroke-linecap:round; stroke-linejoin:round;">
<path d="M36500 53500
L35000 52000
" />
<path d="M36500 53500
L39000 53500
" />
</g>
<g style="fill:#000000; fill-opacity:1.0; 
stroke:#000000; stroke-width:1000; stroke-opacity:1; 
stroke-linecap:round; stroke-linejoin:round;">
<path d="M89000 54000
L89000 52000
" />
</g>
<g style="fill:#000000; fill-opacity:1.0; 
stroke:#000000; stroke-width:500; stroke-opacity:1; 
stroke-linecap:round; stroke-linejoin:round;">
<path d="M89000 52000
L89000 50500
" />
<path d="M89000 49500
L86500 49500
" />
<path d="M83000 46000
L83000 42500
" />
<path d="M86500 49500
L83000 46000
" />
<path d="M23500 42000
L23500 45000
" />
<path d="M23500 45000
L23000 45500
" />
<path d="M76000 79500
L76000 82500
" />
<path d="M17000 42500
L22000 42500
" />
<path d="M22000 42500
L22500 42000
" />
<path d="M22500 50000
L22500 53000
" />
<path d="M22500 53000
L23000 53500
" />
</g>
<g style="fill:#000000; fill-opacity:1.0; 
stroke:#000000; stroke-width:1000; stroke-opacity:1; 
stroke-linecap:round; stroke-linejoin:round;">
<path d="M121000 54000
L123000 52000
" />
</g>
<g style="fill:#000000; fill-opacity:1.0; 
stroke:#000000; stroke-width:500; stroke-opacity:1; 
stroke-linecap:round; stroke-linejoin:round;">
<path d="M123000 52000
L123000 50500
" />
</g>
<g style="fill:#000000; fill-opacity:1.0; 
stroke:#000000; stroke-width:1000; stroke-opacity:1; 
stroke-linecap:round; stroke-linejoin:round;">
<path d="M27000 50000
L25000 50000
" />
</g>
<g style="fill:#000000; fill-opacity:1.0; 
stroke:#000000; stroke-width:500; stroke-opacity:1; 
stroke-linecap:round; stroke-linejoin:round;">
<path d="M25000 50000
L23500 50000
" />
<path d="M110500 45000
L110500 46500
" />
<path d="M109500 47500
L110000 47000
" />
<path d="M109500 47500
L107000 47500
" />
<path d="M110500 46500
L110000 47000
" />
<path d="M109500 45000
L108000 45000
" />
<path d="M107000 44000
L107000 42500
" />
<path d="M108000 45000
L107000 44000
" />
<path d="M103000 53500
L103000 50500
" />
<path d="M103000 49500
L103000 46500
" />
<path d="M32000 79500
L34000 79500
" />
<path d="M34000 79500
L35500 81000
" />
<path d="M32000 78500
L32000 75500
" />
<path d="M115000 53500
L115000 50500
" />
<path d="M71500 75000
L71500 84500
" />
<path d="M73500 86500
L72000 85000
" />
<path d="M73500 86500
L76000 86500
" />
<path d="M71500 84500
L72000 85000
" />
<path d="M117000 46500
L117000 47500
" />
<path d="M117000 47500
L115000 49500
" />
<path d="M74500 42000
L71500 42000
" />
<path d="M78500 42000
L75500 42000
" />
<path d="M77000 53500
L77000 50500
" />
<path d="M77000 49500
L77000 46500
" />
<path d="M97000 49500
L97000 46500
" />
<path d="M103000 42500
L100000 42500
" />
<path d="M100000 42500
L97000 45500
" />
<path d="M93000 53500
L93000 48000
" />
<path d="M91500 46500
L93000 48000
" />
<path d="M91500 46500
L89000 46500
" />
<path d="M89000 45500
L91500 45500
" />
<path d="M93000 44000
L93000 42500
" />
<path d="M91500 45500
L93000 44000
" />
<path d="M76000 75500
L73000 75500
" />
<path d="M73000 75500
L72500 75000
" />
<path d="M60000 80500
L60000 85500
" />
<path d="M60000 79500
L60000 77500
" />
</g>
<g style="fill:#FFFFFF; fill-opacity:1.0; 
stroke:#FFFFFF; stroke-width:59.0551; stroke-opacity:1; 
stroke-linecap:round; stroke-linejoin:round;">
<circle cx="76000" cy="87500" r="39.3701" /> 
<circle cx="76000" cy="86500" r="39.3701" /> 
<circle cx="32000" cy="83500" r="39.3701" /> 
<circle cx="32000" cy="82500" r="39.3701" /> 
<circle cx="27000" cy="78500" r="39.3701" /> 
<circle cx="27000" cy="77500" r="39.3701" /> 
<circle cx="127000" cy="54500" r="39.3701" /> 
<circle cx="127000" cy="53500" r="39.3701" /> 
<circle cx="32000" cy="87500" r="39.3701" /> 
<circle cx="32000" cy="86500" r="39.3701" /> 
<circle cx="127000" cy="50500" r="39.3701" /> 
<circle cx="127000" cy="49500" r="39.3701" /> 
<circle cx="125000" cy="46500" r="39.3701" /> 
<circle cx="125000" cy="45500" r="39.3701" /> 
<circle cx="24000" cy="75500" r="39.3701" /> 
<circle cx="24000" cy="74500" r="39.3701" /> 
<circle cx="24000" cy="81500" r="39.3701" /> 
<circle cx="24000" cy="80500" r="39.3701" /> 
<circle cx="19500" cy="83000" r="39.3701" /> 
<circle cx="20500" cy="83000" r="39.3701" /> 
<circle cx="20000" cy="79500" r="39.3701" /> 
<circle cx="20000" cy="78500" r="39.3701" /> 
<circle cx="20000" cy="75500" r="39.3701" /> 
<circle cx="20000" cy="74500" r="39.3701" /> 
<circle cx="19500" cy="87000" r="39.3701" /> 
<circle cx="20500" cy="87000" r="39.3701" /> 
<circle cx="63000" cy="81500" r="39.3701" /> 
<circle cx="63000" cy="80500" r="39.3701" /> 
<circle cx="39000" cy="83500" r="39.3701" /> 
<circle cx="39000" cy="82500" r="39.3701" /> 
<circle cx="39000" cy="78500" r="39.3701" /> 
<circle cx="39000" cy="77500" r="39.3701" /> 
<circle cx="36000" cy="75500" r="39.3701" /> 
<circle cx="36000" cy="74500" r="39.3701" /> 
<circle cx="40000" cy="87500" r="39.3701" /> 
<circle cx="40000" cy="86500" r="39.3701" /> 
<circle cx="46000" cy="85500" r="39.3701" /> 
<circle cx="46000" cy="84500" r="39.3701" /> 
<circle cx="46000" cy="81500" r="39.3701" /> 
<circle cx="46000" cy="80500" r="39.3701" /> 
<circle cx="54000" cy="85500" r="39.3701" /> 
<circle cx="54000" cy="84500" r="39.3701" /> 
<circle cx="54000" cy="81500" r="39.3701" /> 
<circle cx="54000" cy="80500" r="39.3701" /> 
<circle cx="54000" cy="77500" r="39.3701" /> 
<circle cx="54000" cy="76500" r="39.3701" /> 
<circle cx="60000" cy="86500" r="39.3701" /> 
<circle cx="60000" cy="85500" r="39.3701" /> 
<circle cx="60000" cy="80500" r="39.3701" /> 
<circle cx="60000" cy="79500" r="39.3701" /> 
<circle cx="60000" cy="77500" r="39.3701" /> 
<circle cx="60000" cy="76500" r="39.3701" /> 
<circle cx="63000" cy="87500" r="39.3701" /> 
<circle cx="63000" cy="86500" r="39.3701" /> 
<circle cx="50000" cy="75500" r="39.3701" /> 
<circle cx="50000" cy="74500" r="39.3701" /> 
<circle cx="63000" cy="75500" r="39.3701" /> 
<circle cx="63000" cy="74500" r="39.3701" /> 
<circle cx="66000" cy="85500" r="39.3701" /> 
<circle cx="66000" cy="84500" r="39.3701" /> 
<circle cx="66000" cy="82500" r="39.3701" /> 
<circle cx="66000" cy="81500" r="39.3701" /> 
<circle cx="66000" cy="76500" r="39.3701" /> 
<circle cx="66000" cy="75500" r="39.3701" /> 
<circle cx="76000" cy="83500" r="39.3701" /> 
<circle cx="76000" cy="82500" r="39.3701" /> 
<circle cx="76000" cy="79500" r="39.3701" /> 
<circle cx="76000" cy="78500" r="39.3701" /> 
<circle cx="80000" cy="75500" r="39.3701" /> 
<circle cx="80000" cy="74500" r="39.3701" /> 
<circle cx="22500" cy="50000" r="39.3701" /> 
<circle cx="23500" cy="50000" r="39.3701" /> 
<circle cx="71500" cy="75000" r="39.3701" /> 
<circle cx="72500" cy="75000" r="39.3701" /> 
<circle cx="76000" cy="75500" r="39.3701" /> 
<circle cx="76000" cy="74500" r="39.3701" /> 
<circle cx="50000" cy="87500" r="39.3701" /> 
<circle cx="50000" cy="86500" r="39.3701" /> 
<circle cx="46000" cy="77500" r="39.3701" /> 
<circle cx="46000" cy="76500" r="39.3701" /> 
<circle cx="83000" cy="42500" r="39.3701" /> 
<circle cx="83000" cy="41500" r="39.3701" /> 
<circle cx="57000" cy="52500" r="39.3701" /> 
<circle cx="57000" cy="51500" r="39.3701" /> 
<circle cx="54000" cy="42500" r="39.3701" /> 
<circle cx="54000" cy="41500" r="39.3701" /> 
<circle cx="54000" cy="48500" r="39.3701" /> 
<circle cx="54000" cy="47500" r="39.3701" /> 
<circle cx="54000" cy="54500" r="39.3701" /> 
<circle cx="54000" cy="53500" r="39.3701" /> 
<circle cx="51000" cy="44500" r="39.3701" /> 
<circle cx="51000" cy="43500" r="39.3701" /> 
<circle cx="51000" cy="47500" r="39.3701" /> 
<circle cx="51000" cy="46500" r="39.3701" /> 
<circle cx="51000" cy="53500" r="39.3701" /> 
<circle cx="51000" cy="52500" r="39.3701" /> 
<circle cx="45000" cy="42500" r="39.3701" /> 
<circle cx="45000" cy="41500" r="39.3701" /> 
<circle cx="43000" cy="46500" r="39.3701" /> 
<circle cx="43000" cy="45500" r="39.3701" /> 
<circle cx="41000" cy="50500" r="39.3701" /> 
<circle cx="41000" cy="49500" r="39.3701" /> 
<circle cx="33000" cy="42500" r="39.3701" /> 
<circle cx="33000" cy="41500" r="39.3701" /> 
<circle cx="35000" cy="46500" r="39.3701" /> 
<circle cx="35000" cy="45500" r="39.3701" /> 
<circle cx="37000" cy="50500" r="39.3701" /> 
<circle cx="37000" cy="49500" r="39.3701" /> 
<circle cx="57000" cy="49500" r="39.3701" /> 
<circle cx="57000" cy="48500" r="39.3701" /> 
<circle cx="89000" cy="50500" r="39.3701" /> 
<circle cx="89000" cy="49500" r="39.3701" /> 
<circle cx="39000" cy="54500" r="39.3701" /> 
<circle cx="39000" cy="53500" r="39.3701" /> 
<circle cx="17000" cy="42500" r="39.3701" /> 
<circle cx="17000" cy="41500" r="39.3701" /> 
<circle cx="23500" cy="42000" r="39.3701" /> 
<circle cx="22500" cy="42000" r="39.3701" /> 
<circle cx="23000" cy="46500" r="39.3701" /> 
<circle cx="23000" cy="45500" r="39.3701" /> 
<circle cx="17000" cy="46500" r="39.3701" /> 
<circle cx="17000" cy="45500" r="39.3701" /> 
<circle cx="17000" cy="50500" r="39.3701" /> 
<circle cx="17000" cy="49500" r="39.3701" /> 
<circle cx="17000" cy="54500" r="39.3701" /> 
<circle cx="17000" cy="53500" r="39.3701" /> 
<circle cx="11000" cy="46500" r="39.3701" /> 
<circle cx="11000" cy="45500" r="39.3701" /> 
<circle cx="13000" cy="50500" r="39.3701" /> 
<circle cx="13000" cy="49500" r="39.3701" /> 
<circle cx="6500" cy="54000" r="39.3701" /> 
<circle cx="7500" cy="54000" r="39.3701" /> 
<circle cx="7000" cy="42500" r="39.3701" /> 
<circle cx="7000" cy="41500" r="39.3701" /> 
<circle cx="7000" cy="46500" r="39.3701" /> 
<circle cx="7000" cy="45500" r="39.3701" /> 
<circle cx="103000" cy="54500" r="39.3701" /> 
<circle cx="103000" cy="53500" r="39.3701" /> 
<circle cx="32000" cy="79500" r="39.3701" /> 
<circle cx="32000" cy="78500" r="39.3701" /> 
<circle cx="32000" cy="75500" r="39.3701" /> 
<circle cx="32000" cy="74500" r="39.3701" /> 
<circle cx="117000" cy="46500" r="39.3701" /> 
<circle cx="117000" cy="45500" r="39.3701" /> 
<circle cx="115000" cy="50500" r="39.3701" /> 
<circle cx="115000" cy="49500" r="39.3701" /> 
<circle cx="115000" cy="54500" r="39.3701" /> 
<circle cx="115000" cy="53500" r="39.3701" /> 
<circle cx="23000" cy="54500" r="39.3701" /> 
<circle cx="23000" cy="53500" r="39.3701" /> 
<circle cx="6500" cy="50000" r="39.3701" /> 
<circle cx="7500" cy="50000" r="39.3701" /> 
<circle cx="123000" cy="50500" r="39.3701" /> 
<circle cx="123000" cy="49500" r="39.3701" /> 
<circle cx="107000" cy="42500" r="39.3701" /> 
<circle cx="107000" cy="41500" r="39.3701" /> 
<circle cx="110500" cy="45000" r="39.3701" /> 
<circle cx="109500" cy="45000" r="39.3701" /> 
<circle cx="107000" cy="48500" r="39.3701" /> 
<circle cx="107000" cy="47500" r="39.3701" /> 
<circle cx="103000" cy="46500" r="39.3701" /> 
<circle cx="103000" cy="45500" r="39.3701" /> 
<circle cx="103000" cy="50500" r="39.3701" /> 
<circle cx="103000" cy="49500" r="39.3701" /> 
<circle cx="36500" cy="81000" r="39.3701" /> 
<circle cx="35500" cy="81000" r="39.3701" /> 
<circle cx="103000" cy="42500" r="39.3701" /> 
<circle cx="103000" cy="41500" r="39.3701" /> 
<circle cx="97000" cy="46500" r="39.3701" /> 
<circle cx="97000" cy="45500" r="39.3701" /> 
<circle cx="97000" cy="50500" r="39.3701" /> 
<circle cx="97000" cy="49500" r="39.3701" /> 
<circle cx="93000" cy="42500" r="39.3701" /> 
<circle cx="93000" cy="41500" r="39.3701" /> 
<circle cx="89000" cy="46500" r="39.3701" /> 
<circle cx="89000" cy="45500" r="39.3701" /> 
<circle cx="93000" cy="54500" r="39.3701" /> 
<circle cx="93000" cy="53500" r="39.3701" /> 
<circle cx="78500" cy="42000" r="39.3701" /> 
<circle cx="79500" cy="42000" r="39.3701" /> 
<circle cx="74500" cy="42000" r="39.3701" /> 
<circle cx="75500" cy="42000" r="39.3701" /> 
<circle cx="70500" cy="42000" r="39.3701" /> 
<circle cx="71500" cy="42000" r="39.3701" /> 
<circle cx="77000" cy="46500" r="39.3701" /> 
<circle cx="77000" cy="45500" r="39.3701" /> 
<circle cx="77000" cy="50500" r="39.3701" /> 
<circle cx="77000" cy="49500" r="39.3701" /> 
<circle cx="77000" cy="54500" r="39.3701" /> 
<circle cx="77000" cy="53500" r="39.3701" /> 
<circle cx="57000" cy="43500" r="39.3701" /> 
<circle cx="57000" cy="42500" r="39.3701" /> 
<circle cx="123000" cy="42500" r="39.3701" /> 
<circle cx="123000" cy="41500" r="39.3701" /> 
<circle cx="118500" cy="42000" r="39.3701" /> 
<circle cx="119500" cy="42000" r="39.3701" /> 
<circle cx="118500" cy="50000" r="39.3701" /> 
<circle cx="119500" cy="50000" r="39.3701" /> 
</g> 
</svg>
