<?xml version="1.0" standalone="no"?>
 <!DOCTYPE svg PUBLIC "-//W3C//DTD SVG 1.1//EN" 
 "http://www.w3.org/Graphics/SVG/1.1/DTD/svg11.dtd"> 
<svg xmlns="http://www.w3.org/2000/svg" version="1.1" 
    width="41.9989cm" height="29.7002cm" viewBox="0 0 165350 116930 ">
<title>SVG Picture created as led-cube-4x4-B_Cu.svg date 2015/01/29 21:33:24 </title>
  <desc>Picture generated by PCBNEW </desc>
<g style="fill:#000000; fill-opacity:1;stroke:#000000; stroke-opacity:1;
stroke-linecap:round; stroke-linejoin:round; "
 transform="translate(0 0) scale(1 1)">
</g>
<g style="fill:#000000; fill-opacity:0.0; 
stroke:#000000; stroke-width:196.85; stroke-opacity:1; 
stroke-linecap:round; stroke-linejoin:round;">
<path d="M92418 35690
L92193 36478
L91968 35915
L91743 36478
L91518 35690
" />
<path d="M91180 35690
L90955 36478
L90730 35915
L90505 36478
L90280 35690
" />
<path d="M89943 35690
L89718 36478
L89493 35915
L89268 36478
L89043 35690
" />
<path d="M88593 36365
L88537 36421
L88593 36478
L88649 36421
L88593 36365
L88593 36478
" />
<path d="M88143 35690
L87525 35690
L88143 36478
L87525 36478
" />
<path d="M87075 36028
L86175 36028
" />
<path d="M85725 35690
L85444 36478
L85162 35690
" />
<path d="M84712 36365
L84656 36421
L84712 36478
L84769 36421
L84712 36365
L84712 36478
" />
<path d="M84206 36421
L84094 36478
L83869 36478
L83756 36421
L83700 36309
L83700 36253
L83756 36140
L83869 36084
L84037 36084
L84150 36028
L84206 35915
L84206 35859
L84150 35746
L84037 35690
L83869 35690
L83756 35746
" />
<path d="M83194 36478
L83194 35690
" />
<path d="M83194 35296
L83250 35353
L83194 35409
L83138 35353
L83194 35296
L83194 35409
" />
</g>
<g style="fill:#000000; fill-opacity:0.0; 
stroke:#000000; stroke-width:59.0551; stroke-opacity:1; 
stroke-linecap:round; stroke-linejoin:round;">
<path d="M81750 70250
L144750 70250
" />
<path d="M81750 31000
L81750 70250
" />
<path d="M144750 31000
L81750 31000
" />
<path d="M129500 70250
L129500 31000
" />
</g>
<g style="fill:#000000; fill-opacity:0.0; 
stroke:#000000; stroke-width:7.87402; stroke-opacity:1; 
stroke-linecap:round; stroke-linejoin:round;">
</g>
<g style="fill:#000000; fill-opacity:1.0; 
stroke:#000000; stroke-width:7.87402; stroke-opacity:1; 
stroke-linecap:round; stroke-linejoin:round;">
<polyline style="fill-rule:evenodd;"
points="87173,61723
87526,61723
87526,62076
87173,62076
87173,61723
" /> 
<polyline style="fill-rule:evenodd;"
points="87173,62423
87526,62423
87526,62776
87173,62776
87173,62423
" /> 
<polyline style="fill-rule:evenodd;"
points="87973,62073
88326,62073
88326,62426
87973,62426
87973,62073
" /> 
<polyline style="fill-rule:evenodd;"
points="87173,65723
87526,65723
87526,66076
87173,66076
87173,65723
" /> 
<polyline style="fill-rule:evenodd;"
points="87173,66423
87526,66423
87526,66776
87173,66776
87173,66423
" /> 
<polyline style="fill-rule:evenodd;"
points="87973,66073
88326,66073
88326,66426
87973,66426
87973,66073
" /> 
<polyline style="fill-rule:evenodd;"
points="87173,63723
87526,63723
87526,64076
87173,64076
87173,63723
" /> 
<polyline style="fill-rule:evenodd;"
points="87173,64423
87526,64423
87526,64776
87173,64776
87173,64423
" /> 
<polyline style="fill-rule:evenodd;"
points="87973,64073
88326,64073
88326,64426
87973,64426
87973,64073
" /> 
<polyline style="fill-rule:evenodd;"
points="87173,67723
87526,67723
87526,68076
87173,68076
87173,67723
" /> 
<polyline style="fill-rule:evenodd;"
points="87173,68423
87526,68423
87526,68776
87173,68776
87173,68423
" /> 
<polyline style="fill-rule:evenodd;"
points="87973,68073
88326,68073
88326,68426
87973,68426
87973,68073
" /> 
<polyline style="fill-rule:evenodd;"
points="91103,48846
91103,48353
91396,48353
91396,48846
91103,48846
" /> 
<polyline style="fill-rule:evenodd;"
points="91603,48846
91603,48353
91896,48353
91896,48846
91603,48846
" /> 
<polyline style="fill-rule:evenodd;"
points="92103,48846
92103,48353
92396,48353
92396,48846
92103,48846
" /> 
<polyline style="fill-rule:evenodd;"
points="92603,48846
92603,48353
92896,48353
92896,48846
92603,48846
" /> 
<polyline style="fill-rule:evenodd;"
points="93103,48846
93103,48353
93396,48353
93396,48846
93103,48846
" /> 
<polyline style="fill-rule:evenodd;"
points="93603,48846
93603,48353
93896,48353
93896,48846
93603,48846
" /> 
<polyline style="fill-rule:evenodd;"
points="94103,48846
94103,48353
94396,48353
94396,48846
94103,48846
" /> 
<polyline style="fill-rule:evenodd;"
points="94603,48846
94603,48353
94896,48353
94896,48846
94603,48846
" /> 
<polyline style="fill-rule:evenodd;"
points="95103,48846
95103,48353
95396,48353
95396,48846
95103,48846
" /> 
<polyline style="fill-rule:evenodd;"
points="95603,48846
95603,48353
95896,48353
95896,48846
95603,48846
" /> 
<polyline style="fill-rule:evenodd;"
points="96103,48846
96103,48353
96396,48353
96396,48846
96103,48846
" /> 
<polyline style="fill-rule:evenodd;"
points="96603,48846
96603,48353
96896,48353
96896,48846
96603,48846
" /> 
<polyline style="fill-rule:evenodd;"
points="91103,52646
91103,52153
91396,52153
91396,52646
91103,52646
" /> 
<polyline style="fill-rule:evenodd;"
points="91603,52646
91603,52153
91896,52153
91896,52646
91603,52646
" /> 
<polyline style="fill-rule:evenodd;"
points="92103,52646
92103,52153
92396,52153
92396,52646
92103,52646
" /> 
<polyline style="fill-rule:evenodd;"
points="92603,52646
92603,52153
92896,52153
92896,52646
92603,52646
" /> 
<polyline style="fill-rule:evenodd;"
points="93103,52646
93103,52153
93396,52153
93396,52646
93103,52646
" /> 
<polyline style="fill-rule:evenodd;"
points="93603,52646
93603,52153
93896,52153
93896,52646
93603,52646
" /> 
<polyline style="fill-rule:evenodd;"
points="94103,52646
94103,52153
94396,52153
94396,52646
94103,52646
" /> 
<polyline style="fill-rule:evenodd;"
points="94603,52646
94603,52153
94896,52153
94896,52646
94603,52646
" /> 
<polyline style="fill-rule:evenodd;"
points="95103,52646
95103,52153
95396,52153
95396,52646
95103,52646
" /> 
<polyline style="fill-rule:evenodd;"
points="95603,52646
95603,52153
95896,52153
95896,52646
95603,52646
" /> 
<polyline style="fill-rule:evenodd;"
points="96103,52646
96103,52153
96396,52153
96396,52646
96103,52646
" /> 
<polyline style="fill-rule:evenodd;"
points="96603,52646
96603,52153
96896,52153
96896,52646
96603,52646
" /> 
<polyline style="fill-rule:evenodd;"
points="89096,51328
89096,51771
88903,51771
88903,51328
89096,51328
" /> 
<polyline style="fill-rule:evenodd;"
points="88596,51328
88596,51771
88403,51771
88403,51328
88596,51328
" /> 
<polyline style="fill-rule:evenodd;"
points="88096,51328
88096,51771
87903,51771
87903,51328
88096,51328
" /> 
<polyline style="fill-rule:evenodd;"
points="87596,51328
87596,51771
87403,51771
87403,51328
87596,51328
" /> 
<polyline style="fill-rule:evenodd;"
points="87096,51328
87096,51771
86903,51771
86903,51328
87096,51328
" /> 
<polyline style="fill-rule:evenodd;"
points="86596,51328
86596,51771
86403,51771
86403,51328
86596,51328
" /> 
<polyline style="fill-rule:evenodd;"
points="86096,51328
86096,51771
85903,51771
85903,51328
86096,51328
" /> 
<polyline style="fill-rule:evenodd;"
points="86096,48828
86096,49271
85903,49271
85903,48828
86096,48828
" /> 
<polyline style="fill-rule:evenodd;"
points="86596,48828
86596,49271
86403,49271
86403,48828
86596,48828
" /> 
<polyline style="fill-rule:evenodd;"
points="87596,48828
87596,49271
87403,49271
87403,48828
87596,48828
" /> 
<polyline style="fill-rule:evenodd;"
points="88096,48828
88096,49271
87903,49271
87903,48828
88096,48828
" /> 
<polyline style="fill-rule:evenodd;"
points="88596,48828
88596,49271
88403,49271
88403,48828
88596,48828
" /> 
<polyline style="fill-rule:evenodd;"
points="89096,48828
89096,49271
88903,49271
88903,48828
89096,48828
" /> 
<polyline style="fill-rule:evenodd;"
points="87096,48828
87096,49271
86903,49271
86903,48828
87096,48828
" /> 
<polyline style="fill-rule:evenodd;"
points="91228,53953
91771,53953
91771,54296
91228,54296
91228,53953
" /> 
<polyline style="fill-rule:evenodd;"
points="91228,54703
91771,54703
91771,55046
91228,55046
91228,54703
" /> 
<polyline style="fill-rule:evenodd;"
points="84703,53453
85296,53453
85296,54046
84703,54046
84703,53453
" /> 
<circle cx="86000" cy="53750" r="296.063" /> 
<circle cx="85000" cy="54750" r="296.063" /> 
<circle cx="86000" cy="54750" r="296.063" /> 
<circle cx="85000" cy="55750" r="296.063" /> 
<circle cx="86000" cy="55750" r="296.063" /> 
<polyline style="fill-rule:evenodd;"
points="115453,45046
115453,44453
116046,44453
116046,45046
115453,45046
" /> 
<polyline style="fill-rule:evenodd;"
points="91953,45046
91953,44453
92546,44453
92546,45046
91953,45046
" /> 
<polyline style="fill-rule:evenodd;"
points="91953,33296
91953,32703
92546,32703
92546,33296
91953,33296
" /> 
<polyline style="fill-rule:evenodd;"
points="88953,62546
88953,61953
89546,61953
89546,62546
88953,62546
" /> 
<polyline style="fill-rule:evenodd;"
points="88953,66546
88953,65953
89546,65953
89546,66546
88953,66546
" /> 
<polyline style="fill-rule:evenodd;"
points="88953,64546
88953,63953
89546,63953
89546,64546
88953,64546
" /> 
<polyline style="fill-rule:evenodd;"
points="103703,33296
103703,32703
104296,32703
104296,33296
103703,33296
" /> 
<polyline style="fill-rule:evenodd;"
points="115453,33296
115453,32703
116046,32703
116046,33296
115453,33296
" /> 
<polyline style="fill-rule:evenodd;"
points="88953,68546
88953,67953
89546,67953
89546,68546
88953,68546
" /> 
<polyline style="fill-rule:evenodd;"
points="127203,33296
127203,32703
127796,32703
127796,33296
127203,33296
" /> 
<polyline style="fill-rule:evenodd;"
points="103703,45046
103703,44453
104296,44453
104296,45046
103703,45046
" /> 
<polyline style="fill-rule:evenodd;"
points="127203,45046
127203,44453
127796,44453
127796,45046
127203,45046
" /> 
<polyline style="fill-rule:evenodd;"
points="90203,54046
90203,53453
90796,53453
90796,54046
90203,54046
" /> 
<polyline style="fill-rule:evenodd;"
points="90203,55546
90203,54953
90796,54953
90796,55546
90203,55546
" /> 
<polyline style="fill-rule:evenodd;"
points="91953,56796
91953,56203
92546,56203
92546,56796
91953,56796
" /> 
<polyline style="fill-rule:evenodd;"
points="91953,68546
91953,67953
92546,67953
92546,68546
91953,68546
" /> 
<polyline style="fill-rule:evenodd;"
points="103703,68546
103703,67953
104296,67953
104296,68546
103703,68546
" /> 
<polyline style="fill-rule:evenodd;"
points="115453,68546
115453,67953
116046,67953
116046,68546
115453,68546
" /> 
<polyline style="fill-rule:evenodd;"
points="127203,68546
127203,67953
127796,67953
127796,68546
127203,68546
" /> 
<polyline style="fill-rule:evenodd;"
points="103703,56796
103703,56203
104296,56203
104296,56796
103703,56796
" /> 
<polyline style="fill-rule:evenodd;"
points="115453,56796
115453,56203
116046,56203
116046,56796
115453,56796
" /> 
<polyline style="fill-rule:evenodd;"
points="127203,56796
127203,56203
127796,56203
127796,56796
127203,56796
" /> 
<circle cx="87250" cy="40600" r="296.063" /> 
<circle cx="88250" cy="40600" r="296.063" /> 
<circle cx="88250" cy="39813" r="296.063" /> 
<circle cx="87250" cy="39813" r="296.063" /> 
<circle cx="85388" cy="38750" r="527.563" /> 
<circle cx="90112" cy="38750" r="527.563" /> 
<polyline style="fill-rule:evenodd;"
points="87154,45454
86511,45454
86511,45301
87154,45301
87154,45454
" /> 
<polyline style="fill-rule:evenodd;"
points="87154,45198
86511,45198
86511,45045
87154,45045
87154,45198
" /> 
<polyline style="fill-rule:evenodd;"
points="87154,44942
86511,44942
86511,44789
87154,44789
87154,44942
" /> 
<polyline style="fill-rule:evenodd;"
points="87154,44686
86511,44686
86511,44533
87154,44533
87154,44686
" /> 
<polyline style="fill-rule:evenodd;"
points="89988,46222
89345,46222
89345,46069
89988,46069
89988,46222
" /> 
<polyline style="fill-rule:evenodd;"
points="87154,46222
86511,46222
86511,46069
87154,46069
87154,46222
" /> 
<polyline style="fill-rule:evenodd;"
points="87154,45966
86511,45966
86511,45813
87154,45813
87154,45966
" /> 
<polyline style="fill-rule:evenodd;"
points="87154,45710
86511,45710
86511,45557
87154,45557
87154,45710
" /> 
<polyline style="fill-rule:evenodd;"
points="89988,44430
89345,44430
89345,44277
89988,44277
89988,44430
" /> 
<polyline style="fill-rule:evenodd;"
points="89988,44686
89345,44686
89345,44533
89988,44533
89988,44686
" /> 
<polyline style="fill-rule:evenodd;"
points="89988,44942
89345,44942
89345,44789
89988,44789
89988,44942
" /> 
<polyline style="fill-rule:evenodd;"
points="89988,45198
89345,45198
89345,45045
89988,45045
89988,45198
" /> 
<polyline style="fill-rule:evenodd;"
points="89988,45454
89345,45454
89345,45301
89988,45301
89988,45454
" /> 
<polyline style="fill-rule:evenodd;"
points="89988,45710
89345,45710
89345,45557
89988,45557
89988,45710
" /> 
<polyline style="fill-rule:evenodd;"
points="87154,44430
86511,44430
86511,44277
87154,44277
87154,44430
" /> 
<polyline style="fill-rule:evenodd;"
points="89988,45966
89345,45966
89345,45813
89988,45813
89988,45966
" /> 
<polyline style="fill-rule:evenodd;"
points="89988,46478
89345,46478
89345,46325
89988,46325
89988,46478
" /> 
<polyline style="fill-rule:evenodd;"
points="89988,46733
89345,46733
89345,46580
89988,46580
89988,46733
" /> 
<polyline style="fill-rule:evenodd;"
points="89988,46989
89345,46989
89345,46836
89988,46836
89988,46989
" /> 
<polyline style="fill-rule:evenodd;"
points="87154,46989
86511,46989
86511,46836
87154,46836
87154,46989
" /> 
<polyline style="fill-rule:evenodd;"
points="87154,46733
86511,46733
86511,46580
87154,46580
87154,46733
" /> 
<polyline style="fill-rule:evenodd;"
points="87154,46478
86511,46478
86511,46325
87154,46325
87154,46478
" /> 
<polyline style="fill-rule:evenodd;"
points="87154,44174
86511,44174
86511,44021
87154,44021
87154,44174
" /> 
<polyline style="fill-rule:evenodd;"
points="87154,43919
86511,43919
86511,43766
87154,43766
87154,43919
" /> 
<polyline style="fill-rule:evenodd;"
points="87154,43663
86511,43663
86511,43510
87154,43510
87154,43663
" /> 
<polyline style="fill-rule:evenodd;"
points="89988,43663
89345,43663
89345,43510
89988,43510
89988,43663
" /> 
<polyline style="fill-rule:evenodd;"
points="89988,43919
89345,43919
89345,43766
89988,43766
89988,43919
" /> 
<polyline style="fill-rule:evenodd;"
points="89988,44174
89345,44174
89345,44021
89988,44021
89988,44174
" /> 
<polyline style="fill-rule:evenodd;"
points="90971,43671
90528,43671
90528,43428
90971,43428
90971,43671
" /> 
<polyline style="fill-rule:evenodd;"
points="90971,43071
90528,43071
90528,42828
90971,42828
90971,43071
" /> 
<polyline style="fill-rule:evenodd;"
points="89028,53078
89471,53078
89471,53321
89028,53321
89028,53078
" /> 
<polyline style="fill-rule:evenodd;"
points="89028,53678
89471,53678
89471,53921
89028,53921
89028,53678
" /> 
<polyline style="fill-rule:evenodd;"
points="83360,43639
83360,42860
84139,42860
84139,43639
83360,43639
" /> 
<circle cx="83750" cy="42250" r="389.563" /> 
<circle cx="87500" cy="57500" r="271.063" /> 
<circle cx="89500" cy="57500" r="271.063" /> 
<circle cx="87500" cy="60500" r="271.063" /> 
<circle cx="89500" cy="60500" r="271.063" /> 
<polyline style="fill-rule:evenodd;"
points="89953,51546
89953,50953
90546,50953
90546,51546
89953,51546
" /> 
<polyline style="fill-rule:evenodd;"
points="89953,49546
89953,48953
90546,48953
90546,49546
89953,49546
" /> 
<polyline style="fill-rule:evenodd;"
points="89953,50546
89953,49953
90546,49953
90546,50546
89953,50546
" /> 
<polyline style="fill-rule:evenodd;"
points="83203,40296
83203,39703
83796,39703
83796,40296
83203,40296
" /> 
<circle cx="89500" cy="52500" r="291.339" /> 
<circle cx="88500" cy="53250" r="291.339" /> 
<circle cx="86000" cy="53000" r="291.339" /> 
<circle cx="82750" cy="52500" r="291.339" /> 
<circle cx="88750" cy="47750" r="291.339" /> 
<circle cx="88500" cy="52250" r="291.339" /> 
<circle cx="87000" cy="52500" r="291.339" /> 
<circle cx="85000" cy="56750" r="291.339" /> 
<circle cx="92250" cy="47000" r="291.339" /> 
<circle cx="91000" cy="56500" r="291.339" /> 
<circle cx="88500" cy="56750" r="291.339" /> 
<circle cx="86000" cy="56750" r="291.339" /> 
</g>
<g style="fill:#000000; fill-opacity:1.0; 
stroke:#000000; stroke-width:200; stroke-opacity:1; 
stroke-linecap:round; stroke-linejoin:round;">
<path d="M90250 61250
L90750 61750
" />
<path d="M87350 61900
L88000 61250
" />
<path d="M88000 61250
L90250 61250
" />
<path d="M90750 61750
L90750 63250
" />
</g>
<g style="fill:#000000; fill-opacity:1.0; 
stroke:#000000; stroke-width:100; stroke-opacity:1; 
stroke-linecap:round; stroke-linejoin:round;">
<path d="M86250 46146
L86146 46146
" />
<path d="M86146 46146
L86000 46000
" />
</g>
<g style="fill:#000000; fill-opacity:1.0; 
stroke:#000000; stroke-width:150; stroke-opacity:1; 
stroke-linecap:round; stroke-linejoin:round;">
<path d="M85750 45750
L84250 44250
" />
<path d="M86000 46000
L85750 45750
" />
<path d="M89250 52000
L89250 52250
" />
<path d="M89500 52500
L90000 52500
" />
<path d="M89250 52250
L89500 52500
" />
<path d="M89250 53000
L89250 52000
" />
<path d="M89250 52000
L89250 51800
" />
<path d="M89250 51800
L89000 51550
" />
<path d="M88500 53250
L88750 53000
" />
<path d="M86000 53750
L86000 53000
" />
<path d="M88750 53000
L89250 53000
" />
</g>
<g style="fill:#000000; fill-opacity:1.0; 
stroke:#000000; stroke-width:100; stroke-opacity:1; 
stroke-linecap:round; stroke-linejoin:round;">
<path d="M89667 44866
L88366 44866
" />
</g>
<g style="fill:#000000; fill-opacity:1.0; 
stroke:#000000; stroke-width:150; stroke-opacity:1; 
stroke-linecap:round; stroke-linejoin:round;">
<path d="M88000 43000
L86750 41750
" />
<path d="M88000 44500
L88000 43000
" />
</g>
<g style="fill:#000000; fill-opacity:1.0; 
stroke:#000000; stroke-width:100; stroke-opacity:1; 
stroke-linecap:round; stroke-linejoin:round;">
<path d="M88366 44866
L88000 44500
" />
<path d="M86833 46146
L86250 46146
" />
</g>
<g style="fill:#000000; fill-opacity:1.0; 
stroke:#000000; stroke-width:200; stroke-opacity:1; 
stroke-linecap:round; stroke-linejoin:round;">
<path d="M87350 67900
L88000 67250
" />
<path d="M88000 67250
L90750 67250
" />
<path d="M90750 65250
L90250 65250
" />
<path d="M88000 65250
L87350 65900
" />
<path d="M88000 65250
L90250 65250
" />
<path d="M90750 63250
L90250 63250
" />
<path d="M88000 63250
L87350 63900
" />
<path d="M88000 63250
L90250 63250
" />
<path d="M90750 63250
L90500 63250
" />
<path d="M90500 63250
L90750 63250
" />
</g>
<g style="fill:#000000; fill-opacity:1.0; 
stroke:#000000; stroke-width:500; stroke-opacity:1; 
stroke-linecap:round; stroke-linejoin:round;">
<path d="M90250 69500
L90750 69000
" />
<path d="M84250 69000
L84500 69250
" />
<path d="M84500 69250
L84750 69500
" />
<path d="M84750 69500
L90250 69500
" />
<path d="M82750 45750
L82750 52500
" />
<path d="M82750 52500
L82750 67500
" />
<path d="M84250 44250
L82750 45750
" />
<path d="M82750 67500
L84250 69000
" />
<path d="M90750 69000
L90750 67250
" />
<path d="M90750 67250
L90750 65250
" />
<path d="M90750 65250
L90750 63250
" />
</g>
<g style="fill:#000000; fill-opacity:1.0; 
stroke:#000000; stroke-width:150; stroke-opacity:1; 
stroke-linecap:round; stroke-linejoin:round;">
<path d="M90000 52500
L91150 52500
" />
<path d="M91150 52500
L91250 52400
" />
<path d="M89250 53200
L89250 53000
" />
</g>
<g style="fill:#000000; fill-opacity:1.0; 
stroke:#000000; stroke-width:500; stroke-opacity:1; 
stroke-linecap:round; stroke-linejoin:round;">
<path d="M83750 43250
L84500 44000
" />
<path d="M84250 44000
L84250 44250
" />
<path d="M84500 44000
L84250 44000
" />
<path d="M87250 40600
L87250 41250
" />
<path d="M87250 41250
L87000 41500
" />
<path d="M87000 41500
L86750 41750
" />
<path d="M86750 41750
L84250 44250
" />
</g>
<g style="fill:#000000; fill-opacity:1.0; 
stroke:#000000; stroke-width:150; stroke-opacity:1; 
stroke-linecap:round; stroke-linejoin:round;">
<path d="M88500 46000
L88500 47500
" />
<path d="M88866 45634
L88500 46000
" />
<path d="M88500 51550
L88500 52250
" />
</g>
<g style="fill:#000000; fill-opacity:1.0; 
stroke:#000000; stroke-width:100; stroke-opacity:1; 
stroke-linecap:round; stroke-linejoin:round;">
<path d="M88866 45634
L89667 45634
" />
</g>
<g style="fill:#000000; fill-opacity:1.0; 
stroke:#000000; stroke-width:150; stroke-opacity:1; 
stroke-linecap:round; stroke-linejoin:round;">
<path d="M88500 47500
L88750 47750
" />
<path d="M87350 66600
L85600 66600
" />
<path d="M84500 53750
L85000 53750
" />
<path d="M84250 54000
L84250 61750
" />
<path d="M84500 53750
L84250 54000
" />
<path d="M84250 63500
L84250 61750
" />
<path d="M84250 65250
L84250 63500
" />
<path d="M85600 66600
L84250 65250
" />
<path d="M86000 49050
L85700 49050
" />
<path d="M85000 49750
L85000 53750
" />
<path d="M85700 49050
L85000 49750
" />
<path d="M87350 62600
L86850 62600
" />
<path d="M86750 57000
L86250 57500
" />
<path d="M86250 57500
L86250 62000
" />
<path d="M86250 62000
L86750 62500
" />
<path d="M86750 57000
L86750 54750
" />
<path d="M86850 62600
L86750 62500
" />
<path d="M86750 54750
L86500 54750
" />
<path d="M86500 54750
L86000 54750
" />
<path d="M86750 54750
L86750 54500
" />
</g>
<g style="fill:#000000; fill-opacity:1.0; 
stroke:#000000; stroke-width:100; stroke-opacity:1; 
stroke-linecap:round; stroke-linejoin:round;">
<path d="M86000 52250
L86750 53000
" />
</g>
<g style="fill:#000000; fill-opacity:1.0; 
stroke:#000000; stroke-width:150; stroke-opacity:1; 
stroke-linecap:round; stroke-linejoin:round;">
<path d="M86750 53000
L86750 54500
" />
<path d="M86000 52250
L86000 51550
" />
<path d="M85000 55750
L85000 56750
" />
<path d="M87500 52000
L87500 51550
" />
<path d="M87000 52500
L87500 52000
" />
</g>
<g style="fill:#000000; fill-opacity:1.0; 
stroke:#000000; stroke-width:100; stroke-opacity:1; 
stroke-linecap:round; stroke-linejoin:round;">
<path d="M86833 45890
L87640 45890
" />
</g>
<g style="fill:#000000; fill-opacity:1.0; 
stroke:#000000; stroke-width:150; stroke-opacity:1; 
stroke-linecap:round; stroke-linejoin:round;">
<path d="M88000 46250
L87750 46000
" />
<path d="M88000 46250
L88000 49050
" />
<path d="M87640 45890
L87750 46000
" />
</g>
<g style="fill:#000000; fill-opacity:1.0; 
stroke:#000000; stroke-width:100; stroke-opacity:1; 
stroke-linecap:round; stroke-linejoin:round;">
<path d="M85500 52500
L85500 53250
" />
<path d="M85500 54750
L85500 53250
" />
</g>
<g style="fill:#000000; fill-opacity:1.0; 
stroke:#000000; stroke-width:150; stroke-opacity:1; 
stroke-linecap:round; stroke-linejoin:round;">
<path d="M86500 49750
L86500 49050
" />
<path d="M85500 50750
L86500 49750
" />
<path d="M85500 52500
L85500 50750
" />
<path d="M87350 64600
L86350 64600
" />
</g>
<g style="fill:#000000; fill-opacity:1.0; 
stroke:#000000; stroke-width:100; stroke-opacity:1; 
stroke-linecap:round; stroke-linejoin:round;">
<path d="M85500 56250
L85500 54750
" />
<path d="M85500 56250
L85500 57500
" />
</g>
<g style="fill:#000000; fill-opacity:1.0; 
stroke:#000000; stroke-width:150; stroke-opacity:1; 
stroke-linecap:round; stroke-linejoin:round;">
<path d="M85500 60750
L85500 57500
" />
<path d="M85500 60750
L85500 62500
" />
<path d="M85500 63750
L85500 62500
" />
<path d="M86350 64600
L85500 63750
" />
</g>
<g style="fill:#000000; fill-opacity:1.0; 
stroke:#000000; stroke-width:100; stroke-opacity:1; 
stroke-linecap:round; stroke-linejoin:round;">
<path d="M85000 54750
L85500 54750
" />
</g>
<g style="fill:#000000; fill-opacity:1.0; 
stroke:#000000; stroke-width:150; stroke-opacity:1; 
stroke-linecap:round; stroke-linejoin:round;">
<path d="M87500 49050
L87500 47580
" />
<path d="M87500 47580
L86833 46913
" />
<path d="M90500 55250
L90500 56000
" />
<path d="M92250 47000
L92250 46000
" />
<path d="M90500 56000
L91000 56500
" />
<path d="M92750 52400
L92750 54750
" />
<path d="M92750 54750
L92250 55250
" />
<path d="M92250 55250
L91500 55250
" />
</g>
<g style="fill:#000000; fill-opacity:1.0; 
stroke:#000000; stroke-width:100; stroke-opacity:1; 
stroke-linecap:round; stroke-linejoin:round;">
<path d="M89667 46402
L90902 46402
" />
<path d="M90902 46402
L91000 46500
" />
<path d="M89667 46146
L90896 46146
" />
<path d="M90896 46146
L91000 46250
" />
<path d="M89667 44354
L90854 44354
" />
<path d="M90854 44354
L91000 44500
" />
<path d="M89667 45122
L90872 45122
" />
<path d="M90872 45122
L91000 45250
" />
<path d="M89667 45122
L88378 45122
" />
<path d="M88122 45378
L88250 45250
" />
<path d="M88122 45378
L86833 45378
" />
<path d="M88378 45122
L88250 45250
" />
</g>
<g style="fill:#000000; fill-opacity:1.0; 
stroke:#000000; stroke-width:150; stroke-opacity:1; 
stroke-linecap:round; stroke-linejoin:round;">
<path d="M86000 55750
L86000 56750
" />
<path d="M88500 56750
L88500 56250
" />
</g>
<g style="fill:#000000; fill-opacity:1.0; 
stroke:#000000; stroke-width:100; stroke-opacity:1; 
stroke-linecap:round; stroke-linejoin:round;">
<path d="M89667 46402
L89902 46402
" />
<path d="M89667 46146
L89896 46146
" />
</g>
<g style="fill:#000000; fill-opacity:1.0; 
stroke:#000000; stroke-width:150; stroke-opacity:1; 
stroke-linecap:round; stroke-linejoin:round;">
<path d="M91500 54875
L91500 55250
" />
<path d="M91500 55250
L90500 55250
" />
<path d="M90250 51250
L91500 51250
" />
<path d="M92750 50000
L92750 48600
" />
<path d="M91500 51250
L92750 50000
" />
<path d="M87250 50750
L89500 50750
" />
<path d="M87000 51550
L87000 51000
" />
<path d="M87250 50750
L87000 51000
" />
<path d="M90000 51250
L90250 51250
" />
<path d="M89500 50750
L90000 51250
" />
</g>
<g style="fill:#000000; fill-opacity:1.0; 
stroke:#000000; stroke-width:200; stroke-opacity:1; 
stroke-linecap:round; stroke-linejoin:round;">
<path d="M93250 48600
L93250 45750
" />
<path d="M93250 45750
L92250 44750
" />
<path d="M93750 48600
L93750 46000
" />
<path d="M93750 46000
L93750 34500
" />
<path d="M93750 34500
L92250 33000
" />
<path d="M104000 33000
L104000 36000
" />
<path d="M94250 48600
L94250 45750
" />
<path d="M94250 45750
L104000 36000
" />
<path d="M94750 48600
L94750 46000
" />
<path d="M115750 33000
L107000 41750
" />
<path d="M107000 41750
L99000 41750
" />
<path d="M94750 46000
L99000 41750
" />
<path d="M95250 48600
L95250 46250
" />
<path d="M117500 43000
L127500 33000
" />
<path d="M98500 43000
L117500 43000
" />
<path d="M95250 46250
L98500 43000
" />
</g>
<g style="fill:#000000; fill-opacity:1.0; 
stroke:#000000; stroke-width:150; stroke-opacity:1; 
stroke-linecap:round; stroke-linejoin:round;">
<path d="M90500 44000
L90750 43750
" />
</g>
<g style="fill:#000000; fill-opacity:1.0; 
stroke:#000000; stroke-width:100; stroke-opacity:1; 
stroke-linecap:round; stroke-linejoin:round;">
<path d="M90402 44098
L90500 44000
" />
<path d="M89667 44098
L90402 44098
" />
</g>
<g style="fill:#000000; fill-opacity:1.0; 
stroke:#000000; stroke-width:150; stroke-opacity:1; 
stroke-linecap:round; stroke-linejoin:round;">
<path d="M90750 43750
L90750 43550
" />
<path d="M87500 57500
L87500 60500
" />
</g>
<g style="fill:#000000; fill-opacity:1.0; 
stroke:#000000; stroke-width:100; stroke-opacity:1; 
stroke-linecap:round; stroke-linejoin:round;">
<path d="M88000 51550
L88000 52500
" />
</g>
<g style="fill:#000000; fill-opacity:1.0; 
stroke:#000000; stroke-width:150; stroke-opacity:1; 
stroke-linecap:round; stroke-linejoin:round;">
<path d="M87500 53000
L87500 57500
" />
</g>
<g style="fill:#000000; fill-opacity:1.0; 
stroke:#000000; stroke-width:100; stroke-opacity:1; 
stroke-linecap:round; stroke-linejoin:round;">
<path d="M88000 52500
L87500 53000
" />
</g>
<g style="fill:#000000; fill-opacity:1.0; 
stroke:#000000; stroke-width:150; stroke-opacity:1; 
stroke-linecap:round; stroke-linejoin:round;">
<path d="M90250 50250
L87000 50250
" />
<path d="M87000 50250
L86500 50750
" />
<path d="M86500 50750
L86500 51550
" />
<path d="M92250 48600
L92250 49500
" />
<path d="M91500 50250
L90250 50250
" />
<path d="M92250 49500
L91500 50250
" />
</g>
<g style="fill:#000000; fill-opacity:1.0; 
stroke:#000000; stroke-width:200; stroke-opacity:1; 
stroke-linecap:round; stroke-linejoin:round;">
<path d="M95750 48600
L95750 46500
" />
<path d="M97500 44750
L104000 44750
" />
<path d="M95750 46500
L97500 44750
" />
</g>
<g style="fill:#000000; fill-opacity:1.0; 
stroke:#000000; stroke-width:150; stroke-opacity:1; 
stroke-linecap:round; stroke-linejoin:round;">
<path d="M88250 39813
L88813 39813
" />
<path d="M89667 40667
L89000 40000
" />
<path d="M89667 40667
L89667 43587
" />
<path d="M88813 39813
L89000 40000
" />
</g>
<g style="fill:#000000; fill-opacity:1.0; 
stroke:#000000; stroke-width:200; stroke-opacity:1; 
stroke-linecap:round; stroke-linejoin:round;">
<path d="M88150 64250
L89250 64250
" />
<path d="M88150 68250
L89250 68250
" />
</g>
<g style="fill:#000000; fill-opacity:1.0; 
stroke:#000000; stroke-width:150; stroke-opacity:1; 
stroke-linecap:round; stroke-linejoin:round;">
<path d="M91500 53750
L91250 53750
" />
<path d="M91250 53750
L90500 53750
" />
<path d="M91750 52400
L91750 53500
" />
<path d="M91500 53750
L91500 54125
" />
<path d="M91750 53500
L91500 53750
" />
<path d="M91500 54125
L91500 54000
" />
</g>
<g style="fill:#000000; fill-opacity:1.0; 
stroke:#000000; stroke-width:200; stroke-opacity:1; 
stroke-linecap:round; stroke-linejoin:round;">
<path d="M96250 52400
L96250 54250
" />
<path d="M114250 55000
L115750 56500
" />
<path d="M97000 55000
L114250 55000
" />
<path d="M96250 54250
L97000 55000
" />
<path d="M96750 52400
L123400 52400
" />
<path d="M123400 52400
L127500 56500
" />
<path d="M96750 48600
L123650 48600
" />
<path d="M123650 48600
L127500 44750
" />
<path d="M96250 48600
L96250 46750
" />
<path d="M114250 46250
L115750 44750
" />
<path d="M96750 46250
L114250 46250
" />
<path d="M96250 46750
L96750 46250
" />
<path d="M92250 56500
L92750 56000
" />
<path d="M93250 55500
L92750 56000
" />
<path d="M93250 55500
L93250 52400
" />
<path d="M95750 52400
L95750 54500
" />
<path d="M97750 56500
L104000 56500
" />
<path d="M95750 54500
L97750 56500
" />
</g>
<g style="fill:#000000; fill-opacity:1.0; 
stroke:#000000; stroke-width:150; stroke-opacity:1; 
stroke-linecap:round; stroke-linejoin:round;">
<path d="M87350 68600
L85350 68600
" />
<path d="M87000 48250
L86750 48000
" />
<path d="M86750 48000
L85500 48000
" />
<path d="M85500 48000
L83750 49750
" />
<path d="M83750 49750
L83750 63000
" />
<path d="M87000 48250
L87000 49050
" />
<path d="M83750 64750
L83750 63000
" />
<path d="M83750 67000
L83750 64750
" />
<path d="M85350 68600
L83750 67000
" />
</g>
<g style="fill:#000000; fill-opacity:1.0; 
stroke:#000000; stroke-width:200; stroke-opacity:1; 
stroke-linecap:round; stroke-linejoin:round;">
<path d="M88150 66250
L89250 66250
" />
<path d="M93750 52400
L93750 55000
" />
<path d="M93750 55000
L93750 66750
" />
<path d="M93750 66750
L92250 68250
" />
<path d="M104000 68250
L104000 65000
" />
<path d="M94250 52400
L94250 55250
" />
<path d="M94250 55250
L104000 65000
" />
<path d="M94750 52400
L94750 55000
" />
<path d="M107000 59500
L115750 68250
" />
<path d="M99250 59500
L107000 59500
" />
<path d="M94750 55000
L99250 59500
" />
<path d="M95250 52400
L95250 54750
" />
<path d="M117500 58250
L127500 68250
" />
<path d="M98750 58250
L117500 58250
" />
<path d="M95250 54750
L98750 58250
" />
<path d="M88150 62250
L89250 62250
" />
</g>
<g style="fill:#000000; fill-opacity:1.0; 
stroke:#000000; stroke-width:150; stroke-opacity:1; 
stroke-linecap:round; stroke-linejoin:round;">
<path d="M88750 43750
L88500 43500
" />
<path d="M88843 43843
L88750 43750
" />
</g>
<g style="fill:#000000; fill-opacity:1.0; 
stroke:#000000; stroke-width:100; stroke-opacity:1; 
stroke-linecap:round; stroke-linejoin:round;">
<path d="M89667 43843
L88843 43843
" />
</g>
<g style="fill:#000000; fill-opacity:1.0; 
stroke:#000000; stroke-width:150; stroke-opacity:1; 
stroke-linecap:round; stroke-linejoin:round;">
<path d="M88500 40850
L88250 40600
" />
<path d="M88500 43500
L88500 40850
" />
<path d="M88750 49750
L89500 49750
" />
<path d="M88750 49750
L88500 49500
" />
<path d="M88500 49050
L88500 49500
" />
<path d="M90000 49250
L90250 49250
" />
<path d="M89500 49750
L90000 49250
" />
<path d="M91750 48600
L91750 49250
" />
<path d="M90500 49500
L90250 49250
" />
<path d="M91500 49500
L90500 49500
" />
<path d="M91750 49250
L91500 49500
" />
</g>
<g style="fill:#000000; fill-opacity:1.0; 
stroke:#000000; stroke-width:7.87402; stroke-opacity:1; 
stroke-linecap:round; stroke-linejoin:round;">
<polyline style="fill-rule:evenodd;"
points="89051,45216
89042,45236
89042,45237
89041,45261
89042,45261
89042,45284
88991,45284
88866,45259
88722,45287
88600,45368
88269,45700
87980,45700
87905,45624
87783,45543
87640,45515
87514,45540
87458,45540
87458,45517
87458,45494
87458,45494
87458,45493
87456,45491
87412,45384
87406,45378
87412,45372
87457,45263
87458,45263
87458,45238
87457,45238
87458,45142
87458,45050
88055,45050
88118,45113
88232,45189
88366,45216
89051,45216
" /> 
</g>
<g style="fill:#000000; fill-opacity:0.0; 
stroke:#000000; stroke-width:100; stroke-opacity:1; 
stroke-linecap:round; stroke-linejoin:round;">
<polyline fill="none;"
points="89051,45216
89042,45236
89042,45237
89041,45261
89042,45261
89042,45284
88991,45284
88866,45259
88722,45287
88600,45368
88269,45700
87980,45700
87905,45624
87783,45543
87640,45515
87514,45540
87458,45540
87458,45517
87458,45494
87458,45494
87458,45493
87456,45491
87412,45384
87406,45378
87412,45372
87457,45263
87458,45263
87458,45238
87457,45238
87458,45142
87458,45050
88055,45050
88118,45113
88232,45189
88366,45216
89051,45216
" /> 
</g>
<g style="fill:#000000; fill-opacity:1.0; 
stroke:#000000; stroke-width:7.87402; stroke-opacity:1; 
stroke-linecap:round; stroke-linejoin:round;">
<polyline style="fill-rule:evenodd;"
points="92850,55334
92467,55717
92467,55717
92284,55899
92075,55899
92075,55109
92075,55000
92000,54925
91550,54925
91550,55275
91625,55350
91715,55350
91834,55349
91945,55304
92029,55219
92075,55109
92075,55899
91890,55899
91780,55945
91695,56029
91650,56140
91649,56259
91649,56859
91695,56969
91700,56974
91700,60700
91100,60700
90550,60700
90500,60700
90450,60700
90450,55775
90450,55300
90450,55200
90450,54725
90375,54650
90140,54649
90050,54687
90030,54695
89945,54779
89900,54890
89899,55009
89900,55125
89975,55200
90050,55200
90450,55200
90450,55300
90050,55300
89975,55300
89900,55375
89899,55490
89900,55609
89945,55720
90030,55804
90050,55812
90140,55850
90375,55850
90450,55775
90450,60700
90050,60700
90039,60700
90050,60669
90079,60587
90079,57587
90069,57359
90050,57313
90001,57197
89895,57175
89824,57246
89824,57104
89802,56998
89775,56987
89775,53984
89775,53925
89700,53850
89300,53850
89300,54150
89375,54225
89415,54225
89534,54224
89645,54179
89729,54094
89775,53984
89775,56987
89587,56920
89359,56930
89200,56996
89197,56998
89175,57104
89500,57429
89824,57104
89824,57246
89570,57500
89895,57824
90001,57802
90050,57669
90079,57587
90079,60587
90069,60359
90050,60313
90001,60197
89895,60175
89824,60246
89824,60104
89824,57895
89500,57570
89429,57641
89429,57500
89104,57175
88998,57197
88920,57412
88930,57640
88998,57802
89104,57824
89429,57500
89429,57641
89175,57895
89197,58001
89412,58079
89640,58069
89802,58001
89824,57895
89824,60104
89802,59998
89587,59920
89359,59930
89197,59998
89175,60104
89500,60429
89824,60104
89824,60246
89570,60500
89576,60505
89505,60576
89500,60570
89494,60576
89423,60505
89429,60500
89104,60175
88998,60197
88920,60412
88930,60640
88955,60700
88039,60700
88074,60614
88075,60386
87987,60174
87875,60061
87875,57938
87987,57826
88074,57614
88075,57386
87987,57174
87875,57061
87875,53800
88272,53800
88381,53845
88617,53845
88725,53801
88725,53850
88799,53850
88725,53925
88724,53984
88770,54094
88854,54179
88965,54224
89084,54225
89125,54225
89200,54150
89200,53850
89192,53850
89192,53800
89899,53800
89899,54109
89945,54219
90029,54304
90050,54312
90140,54349
90259,54350
90550,54350
90859,54350
90924,54322
90924,54359
90970,54469
91000,54500
90970,54530
90924,54640
90924,54677
90859,54649
90625,54650
90550,54725
90550,55200
90557,55200
90557,55300
90550,55300
90550,55775
90625,55850
90859,55850
90969,55804
91054,55720
91099,55609
91100,55490
91100,55375
91025,55300
91050,55300
91054,55304
91165,55349
91284,55350
91375,55350
91450,55275
91450,54925
91442,54925
91442,54825
91450,54825
91450,54817
91550,54817
91550,54825
92000,54825
92025,54800
92850,54800
92850,55334
" /> 
</g>
<g style="fill:#000000; fill-opacity:0.0; 
stroke:#000000; stroke-width:100; stroke-opacity:1; 
stroke-linecap:round; stroke-linejoin:round;">
<polyline fill="none;"
points="92850,55334
92467,55717
92467,55717
92284,55899
92075,55899
92075,55109
92075,55000
92000,54925
91550,54925
91550,55275
91625,55350
91715,55350
91834,55349
91945,55304
92029,55219
92075,55109
92075,55899
91890,55899
91780,55945
91695,56029
91650,56140
91649,56259
91649,56859
91695,56969
91700,56974
91700,60700
91100,60700
90550,60700
90500,60700
90450,60700
90450,55775
90450,55300
90450,55200
90450,54725
90375,54650
90140,54649
90050,54687
90030,54695
89945,54779
89900,54890
89899,55009
89900,55125
89975,55200
90050,55200
90450,55200
90450,55300
90050,55300
89975,55300
89900,55375
89899,55490
89900,55609
89945,55720
90030,55804
90050,55812
90140,55850
90375,55850
90450,55775
90450,60700
90050,60700
90039,60700
90050,60669
90079,60587
90079,57587
90069,57359
90050,57313
90001,57197
89895,57175
89824,57246
89824,57104
89802,56998
89775,56987
89775,53984
89775,53925
89700,53850
89300,53850
89300,54150
89375,54225
89415,54225
89534,54224
89645,54179
89729,54094
89775,53984
89775,56987
89587,56920
89359,56930
89200,56996
89197,56998
89175,57104
89500,57429
89824,57104
89824,57246
89570,57500
89895,57824
90001,57802
90050,57669
90079,57587
90079,60587
90069,60359
90050,60313
90001,60197
89895,60175
89824,60246
89824,60104
89824,57895
89500,57570
89429,57641
89429,57500
89104,57175
88998,57197
88920,57412
88930,57640
88998,57802
89104,57824
89429,57500
89429,57641
89175,57895
89197,58001
89412,58079
89640,58069
89802,58001
89824,57895
89824,60104
89802,59998
89587,59920
89359,59930
89197,59998
89175,60104
89500,60429
89824,60104
89824,60246
89570,60500
89576,60505
89505,60576
89500,60570
89494,60576
89423,60505
89429,60500
89104,60175
88998,60197
88920,60412
88930,60640
88955,60700
88039,60700
88074,60614
88075,60386
87987,60174
87875,60061
87875,57938
87987,57826
88074,57614
88075,57386
87987,57174
87875,57061
87875,53800
88272,53800
88381,53845
88617,53845
88725,53801
88725,53850
88799,53850
88725,53925
88724,53984
88770,54094
88854,54179
88965,54224
89084,54225
89125,54225
89200,54150
89200,53850
89192,53850
89192,53800
89899,53800
89899,54109
89945,54219
90029,54304
90050,54312
90140,54349
90259,54350
90550,54350
90859,54350
90924,54322
90924,54359
90970,54469
91000,54500
90970,54530
90924,54640
90924,54677
90859,54649
90625,54650
90550,54725
90550,55200
90557,55200
90557,55300
90550,55300
90550,55775
90625,55850
90859,55850
90969,55804
91054,55720
91099,55609
91100,55490
91100,55375
91025,55300
91050,55300
91054,55304
91165,55349
91284,55350
91375,55350
91450,55275
91450,54925
91442,54925
91442,54825
91450,54825
91450,54817
91550,54817
91550,54825
92000,54825
92025,54800
92850,54800
92850,55334
" /> 
</g>
<g style="fill:#000000; fill-opacity:1.0; 
stroke:#000000; stroke-width:7.87402; stroke-opacity:1; 
stroke-linecap:round; stroke-linejoin:round;">
<polyline style="fill-rule:evenodd;"
points="93350,44200
92724,44200
92720,44195
92609,44150
92490,44149
91890,44149
91780,44195
91695,44279
91650,44390
91649,44509
91649,45109
91695,45219
91779,45304
91890,45349
92009,45350
92284,45350
92850,45915
92850,47450
91451,47450
91431,48049
91375,48050
91300,48125
91300,48349
91299,48409
91299,48657
91200,48657
91200,48650
91200,48550
91200,48125
91125,48050
91040,48049
90930,48095
90845,48179
90800,48290
90799,48409
90800,48475
90875,48550
91200,48550
91200,48650
90875,48650
90800,48725
90799,48775
90720,48695
90609,48650
90550,48649
90490,48649
89890,48649
89780,48695
89695,48779
89650,48890
89649,49009
89649,49069
89399,49319
89400,49215
89400,48884
89399,48765
89354,48654
89269,48570
89159,48524
89125,48525
89050,48600
89050,49000
89325,49000
89400,48925
89400,48884
89400,49215
89400,49175
89325,49100
89050,49100
89050,49107
88950,49107
88950,49100
88942,49100
88942,49000
88950,49000
88950,48600
88875,48525
88840,48524
88800,48541
88800,48345
88867,48345
89086,48254
89254,48087
89269,48050
89300,48050
89300,47977
89345,47868
89345,47632
89311,47550
90550,47550
90550,44411
90649,44345
90658,44336
90765,44265
91015,44015
91015,44015
91044,43970
91144,43929
91229,43845
91274,43734
91275,43615
91275,43365
91229,43255
91224,43250
91229,43244
91275,43134
91275,42765
91229,42655
91145,42570
91034,42525
90946,42524
90946,38898
90940,38568
90826,38293
90692,38240
90621,38310
90621,38169
90568,38035
90260,37915
89930,37921
89655,38035
89602,38169
90112,38679
90621,38169
90621,38310
90182,38750
90692,39259
90826,39206
90946,38898
90946,42524
90915,42524
90875,42525
90800,42600
90800,42900
91200,42900
91275,42825
91275,42765
91275,43134
91275,43075
91200,43000
90800,43000
90800,43007
90700,43007
90700,43000
90700,42900
90700,42600
90625,42525
90621,42524
90621,39330
90112,38820
90041,38891
90041,38750
89531,38240
89397,38293
89277,38601
89283,38931
89397,39206
89531,39259
90041,38750
90041,38891
89602,39330
89655,39464
89963,39584
90293,39578
90568,39464
90621,39330
90621,42524
90584,42524
90465,42525
90354,42570
90270,42655
90224,42765
90225,42825
90300,42900
90700,42900
90700,43000
90300,43000
90225,43075
90224,43134
90270,43244
90275,43249
90270,43254
90239,43330
90162,43252
90051,43207
90042,43207
90042,40667
90013,40523
89932,40401
89265,39734
89078,39547
88956,39466
88813,39438
88723,39438
88590,39304
88369,39213
88131,39212
87910,39304
87741,39472
87735,39486
87663,39470
87592,39541
87592,39399
87567,39290
87343,39208
87105,39218
86932,39290
86907,39399
87250,39742
87592,39399
87592,39541
87320,39813
87326,39818
87255,39889
87250,39883
87244,39889
87179,39824
87173,39818
87179,39813
86836,39470
86727,39495
86645,39719
86655,39957
86727,40130
86836,40155
86782,40209
86787,40214
86741,40259
86650,40480
86649,40718
86700,40840
86700,41022
86611,41111
86611,41111
86361,41361
86222,41499
86222,38898
86216,38568
86102,38293
85968,38240
85897,38310
85897,38169
85844,38035
85536,37915
85206,37921
84931,38035
84878,38169
85388,38679
85897,38169
85897,38310
85458,38750
85968,39259
86102,39206
86222,38898
86222,41499
85897,41824
85897,39330
85388,38820
85317,38891
85317,38750
84807,38240
84673,38293
84553,38601
84559,38931
84673,39206
84807,39259
85317,38750
85317,38891
84878,39330
84931,39464
85239,39584
85569,39578
85844,39464
85897,39330
85897,41824
85272,42450
84415,42450
84447,42366
84438,42090
84350,41875
84230,41839
84160,41910
84160,41769
84124,41649
84100,41640
84100,40240
84100,39759
84099,39640
84054,39529
83969,39445
83859,39399
83625,39400
83550,39475
83550,39950
84025,39950
84100,39875
84100,39759
84100,40240
84100,40125
84025,40050
83550,40050
83550,40525
83625,40600
83859,40600
83969,40554
84054,40470
84099,40359
84100,40240
84100,41640
83866,41552
83590,41561
83450,41619
83450,40525
83450,40050
83450,39950
83450,39475
83375,39400
83140,39399
83030,39445
82945,39529
82900,39640
82899,39759
82900,39875
82975,39950
83450,39950
83450,40050
82975,40050
82900,40125
82899,40240
82900,40359
82945,40470
83030,40554
83140,40600
83375,40600
83450,40525
83450,41619
83375,41649
83339,41769
83750,42179
84160,41769
84160,41910
83820,42250
83826,42255
83755,42326
83750,42320
83744,42326
83673,42255
83679,42250
83269,41839
83149,41875
83052,42133
83061,42409
83077,42450
82550,42450
82550,37300
93350,37300
93350,44200
" /> 
</g>
<g style="fill:#000000; fill-opacity:0.0; 
stroke:#000000; stroke-width:100; stroke-opacity:1; 
stroke-linecap:round; stroke-linejoin:round;">
<polyline fill="none;"
points="93350,44200
92724,44200
92720,44195
92609,44150
92490,44149
91890,44149
91780,44195
91695,44279
91650,44390
91649,44509
91649,45109
91695,45219
91779,45304
91890,45349
92009,45350
92284,45350
92850,45915
92850,47450
91451,47450
91431,48049
91375,48050
91300,48125
91300,48349
91299,48409
91299,48657
91200,48657
91200,48650
91200,48550
91200,48125
91125,48050
91040,48049
90930,48095
90845,48179
90800,48290
90799,48409
90800,48475
90875,48550
91200,48550
91200,48650
90875,48650
90800,48725
90799,48775
90720,48695
90609,48650
90550,48649
90490,48649
89890,48649
89780,48695
89695,48779
89650,48890
89649,49009
89649,49069
89399,49319
89400,49215
89400,48884
89399,48765
89354,48654
89269,48570
89159,48524
89125,48525
89050,48600
89050,49000
89325,49000
89400,48925
89400,48884
89400,49215
89400,49175
89325,49100
89050,49100
89050,49107
88950,49107
88950,49100
88942,49100
88942,49000
88950,49000
88950,48600
88875,48525
88840,48524
88800,48541
88800,48345
88867,48345
89086,48254
89254,48087
89269,48050
89300,48050
89300,47977
89345,47868
89345,47632
89311,47550
90550,47550
90550,44411
90649,44345
90658,44336
90765,44265
91015,44015
91015,44015
91044,43970
91144,43929
91229,43845
91274,43734
91275,43615
91275,43365
91229,43255
91224,43250
91229,43244
91275,43134
91275,42765
91229,42655
91145,42570
91034,42525
90946,42524
90946,38898
90940,38568
90826,38293
90692,38240
90621,38310
90621,38169
90568,38035
90260,37915
89930,37921
89655,38035
89602,38169
90112,38679
90621,38169
90621,38310
90182,38750
90692,39259
90826,39206
90946,38898
90946,42524
90915,42524
90875,42525
90800,42600
90800,42900
91200,42900
91275,42825
91275,42765
91275,43134
91275,43075
91200,43000
90800,43000
90800,43007
90700,43007
90700,43000
90700,42900
90700,42600
90625,42525
90621,42524
90621,39330
90112,38820
90041,38891
90041,38750
89531,38240
89397,38293
89277,38601
89283,38931
89397,39206
89531,39259
90041,38750
90041,38891
89602,39330
89655,39464
89963,39584
90293,39578
90568,39464
90621,39330
90621,42524
90584,42524
90465,42525
90354,42570
90270,42655
90224,42765
90225,42825
90300,42900
90700,42900
90700,43000
90300,43000
90225,43075
90224,43134
90270,43244
90275,43249
90270,43254
90239,43330
90162,43252
90051,43207
90042,43207
90042,40667
90013,40523
89932,40401
89265,39734
89078,39547
88956,39466
88813,39438
88723,39438
88590,39304
88369,39213
88131,39212
87910,39304
87741,39472
87735,39486
87663,39470
87592,39541
87592,39399
87567,39290
87343,39208
87105,39218
86932,39290
86907,39399
87250,39742
87592,39399
87592,39541
87320,39813
87326,39818
87255,39889
87250,39883
87244,39889
87179,39824
87173,39818
87179,39813
86836,39470
86727,39495
86645,39719
86655,39957
86727,40130
86836,40155
86782,40209
86787,40214
86741,40259
86650,40480
86649,40718
86700,40840
86700,41022
86611,41111
86611,41111
86361,41361
86222,41499
86222,38898
86216,38568
86102,38293
85968,38240
85897,38310
85897,38169
85844,38035
85536,37915
85206,37921
84931,38035
84878,38169
85388,38679
85897,38169
85897,38310
85458,38750
85968,39259
86102,39206
86222,38898
86222,41499
85897,41824
85897,39330
85388,38820
85317,38891
85317,38750
84807,38240
84673,38293
84553,38601
84559,38931
84673,39206
84807,39259
85317,38750
85317,38891
84878,39330
84931,39464
85239,39584
85569,39578
85844,39464
85897,39330
85897,41824
85272,42450
84415,42450
84447,42366
84438,42090
84350,41875
84230,41839
84160,41910
84160,41769
84124,41649
84100,41640
84100,40240
84100,39759
84099,39640
84054,39529
83969,39445
83859,39399
83625,39400
83550,39475
83550,39950
84025,39950
84100,39875
84100,39759
84100,40240
84100,40125
84025,40050
83550,40050
83550,40525
83625,40600
83859,40600
83969,40554
84054,40470
84099,40359
84100,40240
84100,41640
83866,41552
83590,41561
83450,41619
83450,40525
83450,40050
83450,39950
83450,39475
83375,39400
83140,39399
83030,39445
82945,39529
82900,39640
82899,39759
82900,39875
82975,39950
83450,39950
83450,40050
82975,40050
82900,40125
82899,40240
82900,40359
82945,40470
83030,40554
83140,40600
83375,40600
83450,40525
83450,41619
83375,41649
83339,41769
83750,42179
84160,41769
84160,41910
83820,42250
83826,42255
83755,42326
83750,42320
83744,42326
83673,42255
83679,42250
83269,41839
83149,41875
83052,42133
83061,42409
83077,42450
82550,42450
82550,37300
93350,37300
93350,44200
" /> 
</g>
<g style="fill:#FFFFFF; fill-opacity:0.0; 
stroke:#FFFFFF; stroke-width:7.87402; stroke-opacity:1; 
stroke-linecap:round; stroke-linejoin:round;">
</g>
<g style="fill:#FFFFFF; fill-opacity:1.0; 
stroke:#FFFFFF; stroke-width:7.87402; stroke-opacity:1; 
stroke-linecap:round; stroke-linejoin:round;">
<circle cx="89500" cy="52500" r="64.9606" /> 
<circle cx="88500" cy="53250" r="64.9606" /> 
<circle cx="86000" cy="53000" r="64.9606" /> 
<circle cx="82750" cy="52500" r="64.9606" /> 
<circle cx="88750" cy="47750" r="64.9606" /> 
<circle cx="88500" cy="52250" r="64.9606" /> 
<circle cx="87000" cy="52500" r="64.9606" /> 
<circle cx="85000" cy="56750" r="64.9606" /> 
<circle cx="92250" cy="47000" r="64.9606" /> 
<circle cx="91000" cy="56500" r="64.9606" /> 
<circle cx="88500" cy="56750" r="64.9606" /> 
<circle cx="86000" cy="56750" r="64.9606" /> 
<circle cx="85000" cy="53750" r="64.9606" /> 
<circle cx="86000" cy="53750" r="64.9606" /> 
<circle cx="85000" cy="54750" r="64.9606" /> 
<circle cx="86000" cy="54750" r="64.9606" /> 
<circle cx="85000" cy="55750" r="64.9606" /> 
<circle cx="86000" cy="55750" r="64.9606" /> 
<circle cx="115750" cy="44750" r="64.9606" /> 
<circle cx="92250" cy="44750" r="64.9606" /> 
<circle cx="92250" cy="33000" r="64.9606" /> 
<circle cx="89250" cy="62250" r="64.9606" /> 
<circle cx="89250" cy="66250" r="64.9606" /> 
<circle cx="89250" cy="64250" r="64.9606" /> 
<circle cx="104000" cy="33000" r="64.9606" /> 
<circle cx="115750" cy="33000" r="64.9606" /> 
<circle cx="89250" cy="68250" r="64.9606" /> 
<circle cx="127500" cy="33000" r="64.9606" /> 
<circle cx="104000" cy="44750" r="64.9606" /> 
<circle cx="127500" cy="44750" r="64.9606" /> 
<circle cx="90500" cy="53750" r="64.9606" /> 
<circle cx="90500" cy="55250" r="64.9606" /> 
<circle cx="92250" cy="56500" r="64.9606" /> 
<circle cx="92250" cy="68250" r="64.9606" /> 
<circle cx="104000" cy="68250" r="64.9606" /> 
<circle cx="115750" cy="68250" r="64.9606" /> 
<circle cx="127500" cy="68250" r="64.9606" /> 
<circle cx="104000" cy="56500" r="64.9606" /> 
<circle cx="115750" cy="56500" r="64.9606" /> 
<circle cx="127500" cy="56500" r="64.9606" /> 
<circle cx="87250" cy="40600" r="64.9606" /> 
<circle cx="88250" cy="40600" r="64.9606" /> 
<circle cx="88250" cy="39813" r="64.9606" /> 
<circle cx="87250" cy="39813" r="64.9606" /> 
<circle cx="85388" cy="38750" r="64.9606" /> 
<circle cx="90112" cy="38750" r="64.9606" /> 
<circle cx="83750" cy="43250" r="64.9606" /> 
<circle cx="83750" cy="42250" r="64.9606" /> 
<circle cx="87500" cy="57500" r="64.9606" /> 
<circle cx="89500" cy="57500" r="64.9606" /> 
<circle cx="87500" cy="60500" r="64.9606" /> 
<circle cx="89500" cy="60500" r="64.9606" /> 
<circle cx="90250" cy="51250" r="64.9606" /> 
<circle cx="90250" cy="49250" r="64.9606" /> 
<circle cx="90250" cy="50250" r="64.9606" /> 
<circle cx="83500" cy="40000" r="64.9606" /> 
</g> 
</svg>
