<?xml version="1.0" standalone="no"?>
 <!DOCTYPE svg PUBLIC "-//W3C//DTD SVG 1.1//EN" 
 "http://www.w3.org/Graphics/SVG/1.1/DTD/svg11.dtd"> 
<svg xmlns="http://www.w3.org/2000/svg" version="1.1" 
    width="41.9989cm" height="29.7002cm" viewBox="0 0 165350 116930 ">
<title>SVG Picture created as rc-led-20ma-B_Cu.svg date 2014/11/29 11:01:03 </title>
  <desc>Picture generated by PCBNEW </desc>
<g style="fill:#000000; fill-opacity:1;stroke:#000000; stroke-opacity:1;
stroke-linecap:round; stroke-linejoin:round; "
 transform="translate(0 0) scale(1 1)">
</g>
<g style="fill:#000000; fill-opacity:0.0; 
stroke:#000000; stroke-width:59.0551; stroke-opacity:1; 
stroke-linecap:round; stroke-linejoin:round;">
<path d="M82677 51574
L82677 38582
" />
<path d="M94094 51574
L82677 51574
" />
<path d="M94094 38582
L94094 51574
" />
<path d="M82677 38582
L94094 38582
" />
</g>
<g style="fill:#000000; fill-opacity:0.0; 
stroke:#000000; stroke-width:196.85; stroke-opacity:1; 
stroke-linecap:round; stroke-linejoin:round;">
<path d="M90742 41148
L90742 40164
L90507 40164
L90367 40211
L90273 40304
L90226 40398
L90179 40585
L90179 40726
L90226 40914
L90273 41007
L90367 41101
L90507 41148
L90742 41148
" />
<path d="M89757 41148
L89757 40164
" />
</g>
<g style="fill:#000000; fill-opacity:0.0; 
stroke:#000000; stroke-width:59.0551; stroke-opacity:1; 
stroke-linecap:round; stroke-linejoin:round;">
</g>
<g style="fill:#000000; fill-opacity:1.0; 
stroke:#000000; stroke-width:59.0551; stroke-opacity:1; 
stroke-linecap:round; stroke-linejoin:round;">
<polyline style="fill-rule:evenodd;"
points="85404,43620
85404,43179
85595,43179
85595,43620
85404,43620
" /> 
<polyline style="fill-rule:evenodd;"
points="85904,43620
85904,43179
86095,43179
86095,43620
85904,43620
" /> 
<polyline style="fill-rule:evenodd;"
points="86404,43620
86404,43179
86595,43179
86595,43620
86404,43620
" /> 
<polyline style="fill-rule:evenodd;"
points="86904,43620
86904,43179
87095,43179
87095,43620
86904,43620
" /> 
<polyline style="fill-rule:evenodd;"
points="87404,43620
87404,43179
87595,43179
87595,43620
87404,43620
" /> 
<polyline style="fill-rule:evenodd;"
points="87904,43620
87904,43179
88095,43179
88095,43620
87904,43620
" /> 
<polyline style="fill-rule:evenodd;"
points="88404,43620
88404,43179
88595,43179
88595,43620
88404,43620
" /> 
<polyline style="fill-rule:evenodd;"
points="88404,45820
88404,45379
88595,45379
88595,45820
88404,45820
" /> 
<polyline style="fill-rule:evenodd;"
points="87904,45820
87904,45379
88095,45379
88095,45820
87904,45820
" /> 
<polyline style="fill-rule:evenodd;"
points="87404,45820
87404,45379
87595,45379
87595,45820
87404,45820
" /> 
<polyline style="fill-rule:evenodd;"
points="86904,45820
86904,45379
87095,45379
87095,45820
86904,45820
" /> 
<polyline style="fill-rule:evenodd;"
points="86404,45820
86404,45379
86595,45379
86595,45820
86404,45820
" /> 
<polyline style="fill-rule:evenodd;"
points="85904,45820
85904,45379
86095,45379
86095,45820
85904,45820
" /> 
<polyline style="fill-rule:evenodd;"
points="85404,45820
85404,45379
85595,45379
85595,45820
85404,45820
" /> 
<polyline style="fill-rule:evenodd;"
points="85254,47229
85745,47229
85745,47520
85254,47520
85254,47229
" /> 
<polyline style="fill-rule:evenodd;"
points="85254,47979
85745,47979
85745,48270
85254,48270
85254,47979
" /> 
<polyline style="fill-rule:evenodd;"
points="86254,47229
86745,47229
86745,47520
86254,47520
86254,47229
" /> 
<polyline style="fill-rule:evenodd;"
points="86254,47979
86745,47979
86745,48270
86254,48270
86254,47979
" /> 
<polyline style="fill-rule:evenodd;"
points="87254,47229
87745,47229
87745,47520
87254,47520
87254,47229
" /> 
<polyline style="fill-rule:evenodd;"
points="87254,47979
87745,47979
87745,48270
87254,48270
87254,47979
" /> 
<polyline style="fill-rule:evenodd;"
points="88254,47229
88745,47229
88745,47520
88254,47520
88254,47229
" /> 
<polyline style="fill-rule:evenodd;"
points="88254,47979
88745,47979
88745,48270
88254,48270
88254,47979
" /> 
<polyline style="fill-rule:evenodd;"
points="89254,47229
89745,47229
89745,47520
89254,47520
89254,47229
" /> 
<polyline style="fill-rule:evenodd;"
points="89254,47979
89745,47979
89745,48270
89254,48270
89254,47979
" /> 
<polyline style="fill-rule:evenodd;"
points="90254,47229
90745,47229
90745,47520
90254,47520
90254,47229
" /> 
<polyline style="fill-rule:evenodd;"
points="90254,47979
90745,47979
90745,48270
90254,48270
90254,47979
" /> 
<polyline style="fill-rule:evenodd;"
points="91754,47229
92245,47229
92245,47520
91754,47520
91754,47229
" /> 
<polyline style="fill-rule:evenodd;"
points="91754,47979
92245,47979
92245,48270
91754,48270
91754,47979
" /> 
<polyline style="fill-rule:evenodd;"
points="89729,46020
89729,45479
90270,45479
90270,46020
89729,46020
" /> 
<circle cx="90000" cy="44750" r="270.472" /> 
<circle cx="91000" cy="45750" r="270.472" /> 
<circle cx="91000" cy="44750" r="270.472" /> 
<circle cx="92000" cy="45750" r="270.472" /> 
<circle cx="92000" cy="44750" r="270.472" /> 
<polyline style="fill-rule:evenodd;"
points="87770,42270
87229,42270
87229,41729
87770,41729
87770,42270
" /> 
<circle cx="87500" cy="41000" r="270.472" /> 
<circle cx="87500" cy="40000" r="270.472" /> 
<polyline style="fill-rule:evenodd;"
points="85770,42270
85229,42270
85229,41729
85770,41729
85770,42270
" /> 
<circle cx="85500" cy="41000" r="270.472" /> 
<circle cx="85500" cy="40000" r="270.472" /> 
<polyline style="fill-rule:evenodd;"
points="86770,42270
86229,42270
86229,41729
86770,41729
86770,42270
" /> 
<circle cx="86500" cy="41000" r="270.472" /> 
<circle cx="86500" cy="40000" r="270.472" /> 
<polyline style="fill-rule:evenodd;"
points="85229,48979
85770,48979
85770,49520
85229,49520
85229,48979
" /> 
<circle cx="85500" cy="50250" r="270.472" /> 
<polyline style="fill-rule:evenodd;"
points="86229,48979
86770,48979
86770,49520
86229,49520
86229,48979
" /> 
<circle cx="86500" cy="50250" r="270.472" /> 
<polyline style="fill-rule:evenodd;"
points="87229,48979
87770,48979
87770,49520
87229,49520
87229,48979
" /> 
<circle cx="87500" cy="50250" r="270.472" /> 
<polyline style="fill-rule:evenodd;"
points="88229,48979
88770,48979
88770,49520
88229,49520
88229,48979
" /> 
<circle cx="88500" cy="50250" r="270.472" /> 
<polyline style="fill-rule:evenodd;"
points="89229,48979
89770,48979
89770,49520
89229,49520
89229,48979
" /> 
<circle cx="89500" cy="50250" r="270.472" /> 
<polyline style="fill-rule:evenodd;"
points="90229,48979
90770,48979
90770,49520
90229,49520
90229,48979
" /> 
<circle cx="90500" cy="50250" r="270.472" /> 
<polyline style="fill-rule:evenodd;"
points="91229,48979
91770,48979
91770,49520
91229,49520
91229,48979
" /> 
<circle cx="91500" cy="50250" r="270.472" /> 
<polyline style="fill-rule:evenodd;"
points="84304,44854
84695,44854
84695,45045
84304,45045
84304,44854
" /> 
<polyline style="fill-rule:evenodd;"
points="84304,45454
84695,45454
84695,45645
84304,45645
84304,45454
" /> 
<circle cx="88750" cy="42000" r="245.472" /> 
<circle cx="88750" cy="40000" r="245.472" /> 
<circle cx="91750" cy="42000" r="245.472" /> 
<circle cx="91750" cy="40000" r="245.472" /> 
</g>
<g style="fill:#000000; fill-opacity:1.0; 
stroke:#000000; stroke-width:250; stroke-opacity:1; 
stroke-linecap:round; stroke-linejoin:round;">
<path d="M90000 44750
L86000 44750
" />
<path d="M86000 44750
L85500 44250
" />
</g>
<g style="fill:#000000; fill-opacity:1.0; 
stroke:#000000; stroke-width:200; stroke-opacity:1; 
stroke-linecap:round; stroke-linejoin:round;">
<path d="M85500 43400
L85500 44250
" />
</g>
<g style="fill:#000000; fill-opacity:1.0; 
stroke:#000000; stroke-width:500; stroke-opacity:1; 
stroke-linecap:round; stroke-linejoin:round;">
<path d="M85500 44250
L84750 44250
" />
</g>
<g style="fill:#000000; fill-opacity:1.0; 
stroke:#000000; stroke-width:200; stroke-opacity:1; 
stroke-linecap:round; stroke-linejoin:round;">
<path d="M84500 44950
L84500 44500
" />
<path d="M84500 44500
L84750 44250
" />
</g>
<g style="fill:#000000; fill-opacity:1.0; 
stroke:#000000; stroke-width:500; stroke-opacity:1; 
stroke-linecap:round; stroke-linejoin:round;">
<path d="M84250 41500
L84250 43750
" />
<path d="M84750 41000
L84250 41500
" />
<path d="M85500 41000
L84750 41000
" />
<path d="M84750 44250
L84750 44250
" />
<path d="M84250 43750
L84750 44250
" />
<path d="M86500 41000
L85500 41000
" />
<path d="M87500 41000
L86500 41000
" />
</g>
<g style="fill:#000000; fill-opacity:1.0; 
stroke:#000000; stroke-width:200; stroke-opacity:1; 
stroke-linecap:round; stroke-linejoin:round;">
<path d="M90500 47375
L90500 46500
" />
<path d="M90500 46500
L90000 46000
" />
<path d="M90000 45750
L90000 46000
" />
<path d="M88500 45600
L89100 45600
" />
<path d="M89500 46000
L90000 46000
" />
<path d="M89100 45600
L89500 46000
" />
</g>
<g style="fill:#000000; fill-opacity:1.0; 
stroke:#000000; stroke-width:150; stroke-opacity:1; 
stroke-linecap:round; stroke-linejoin:round;">
<path d="M92500 45250
L91750 45250
" />
</g>
<g style="fill:#000000; fill-opacity:1.0; 
stroke:#000000; stroke-width:200; stroke-opacity:1; 
stroke-linecap:round; stroke-linejoin:round;">
<path d="M92000 47000
L92750 46250
" />
<path d="M92750 46250
L92750 45500
" />
<path d="M92750 45500
L92500 45250
" />
<path d="M92000 47375
L92000 47000
" />
</g>
<g style="fill:#000000; fill-opacity:1.0; 
stroke:#000000; stroke-width:150; stroke-opacity:1; 
stroke-linecap:round; stroke-linejoin:round;">
<path d="M91250 44750
L91000 44750
" />
<path d="M91750 45250
L91250 44750
" />
</g>
<g style="fill:#000000; fill-opacity:1.0; 
stroke:#000000; stroke-width:200; stroke-opacity:1; 
stroke-linecap:round; stroke-linejoin:round;">
<path d="M88500 43400
L88850 43400
" />
<path d="M91000 43750
L91000 44750
" />
<path d="M90500 43250
L91000 43750
" />
<path d="M89000 43250
L90500 43250
" />
<path d="M88850 43400
L89000 43250
" />
</g>
<g style="fill:#000000; fill-opacity:1.0; 
stroke:#000000; stroke-width:150; stroke-opacity:1; 
stroke-linecap:round; stroke-linejoin:round;">
<path d="M91000 47750
L90000 47750
" />
</g>
<g style="fill:#000000; fill-opacity:1.0; 
stroke:#000000; stroke-width:200; stroke-opacity:1; 
stroke-linecap:round; stroke-linejoin:round;">
<path d="M91000 45750
L91000 46250
" />
<path d="M91250 46500
L91250 47500
" />
<path d="M91000 46250
L91250 46500
" />
<path d="M91000 47750
L91250 47500
" />
</g>
<g style="fill:#000000; fill-opacity:1.0; 
stroke:#000000; stroke-width:150; stroke-opacity:1; 
stroke-linecap:round; stroke-linejoin:round;">
<path d="M89750 47500
L89500 47375
" />
<path d="M90000 47750
L89750 47500
" />
</g>
<g style="fill:#000000; fill-opacity:1.0; 
stroke:#000000; stroke-width:200; stroke-opacity:1; 
stroke-linecap:round; stroke-linejoin:round;">
<path d="M88000 45600
L88000 46000
" />
<path d="M89500 46750
L89500 47375
" />
<path d="M89000 46250
L89500 46750
" />
<path d="M88250 46250
L89000 46250
" />
<path d="M88000 46000
L88250 46250
" />
<path d="M91500 49250
L91500 49000
" />
<path d="M92000 48500
L92000 48125
" />
<path d="M91500 49000
L92000 48500
" />
<path d="M90500 49250
L90500 48125
" />
<path d="M89500 49250
L89500 48125
" />
<path d="M88500 49250
L88500 48125
" />
<path d="M87500 48125
L87500 49250
" />
<path d="M86500 45850
L86500 47375
" />
<path d="M85500 49250
L85500 48125
" />
<path d="M87500 43400
L87500 42000
" />
<path d="M86000 46250
L86000 46500
" />
<path d="M85500 47000
L86000 46500
" />
<path d="M86000 45600
L86000 46250
" />
<path d="M85500 47000
L85500 47375
" />
<path d="M86000 43400
L86000 42500
" />
<path d="M85500 42000
L85500 42000
" />
<path d="M86000 42500
L85500 42000
" />
<path d="M86500 43400
L86500 42000
" />
<path d="M86500 48125
L86500 49250
" />
<path d="M87000 46250
L87000 46500
" />
<path d="M87500 47000
L87000 46500
" />
<path d="M87000 45600
L87000 46250
" />
<path d="M87500 47000
L87500 47375
" />
<path d="M88500 47375
L88500 47000
" />
<path d="M87500 46250
L87500 45600
" />
<path d="M88000 46750
L87500 46250
" />
<path d="M88250 46750
L88000 46750
" />
<path d="M88500 47000
L88250 46750
" />
</g>
<g style="fill:#000000; fill-opacity:1.0; 
stroke:#000000; stroke-width:150; stroke-opacity:1; 
stroke-linecap:round; stroke-linejoin:round;">
<path d="M90500 44250
L90500 45000
" />
</g>
<g style="fill:#000000; fill-opacity:1.0; 
stroke:#000000; stroke-width:200; stroke-opacity:1; 
stroke-linecap:round; stroke-linejoin:round;">
<path d="M87000 44000
L87250 44250
" />
<path d="M87250 44250
L89000 44250
" />
<path d="M89000 44250
L89250 44000
" />
<path d="M89250 44000
L90250 44000
" />
<path d="M90250 44000
L90500 44250
" />
<path d="M87000 43400
L87000 44000
" />
</g>
<g style="fill:#000000; fill-opacity:1.0; 
stroke:#000000; stroke-width:150; stroke-opacity:1; 
stroke-linecap:round; stroke-linejoin:round;">
<path d="M91750 45750
L92000 45750
" />
<path d="M91250 45250
L91750 45750
" />
<path d="M90750 45250
L91250 45250
" />
<path d="M90500 45000
L90750 45250
" />
</g>
<g style="fill:#000000; fill-opacity:1.0; 
stroke:#000000; stroke-width:500; stroke-opacity:1; 
stroke-linecap:round; stroke-linejoin:round;">
<path d="M88750 42000
L91750 42000
" />
</g>
<g style="fill:#000000; fill-opacity:1.0; 
stroke:#000000; stroke-width:200; stroke-opacity:1; 
stroke-linecap:round; stroke-linejoin:round;">
<path d="M88000 43400
L88000 42750
" />
<path d="M88000 42750
L88750 42000
" />
</g>
<g style="fill:#000000; fill-opacity:1.0; 
stroke:#000000; stroke-width:59.0551; stroke-opacity:1; 
stroke-linecap:round; stroke-linejoin:round;">
<polyline style="fill-rule:evenodd;"
points="93700,51200
93150,51200
93150,46250
93150,45500
93119,45346
93119,45346
93090,45303
93032,45217
93032,45217
92782,44967
92653,44880
92545,44858
92554,44831
92543,44613
92481,44462
92385,44434
92315,44505
92315,44364
92287,44268
92081,44195
91863,44206
91712,44268
91684,44364
92000,44679
92315,44364
92315,44505
92070,44750
92076,44755
92005,44826
92000,44820
91994,44826
91923,44755
91929,44750
91614,44434
91529,44459
91508,44410
91400,44301
91400,43750
91369,43596
91369,43596
91340,43553
91282,43467
91282,43467
90782,42967
90653,42880
90627,42875
90500,42850
89000,42850
88846,42880
88806,42907
88795,42895
88684,42850
88565,42849
88465,42849
88740,42574
88863,42575
88924,42550
91575,42550
91635,42574
91863,42575
92075,42487
92237,42326
92324,42114
92325,41886
92279,41776
92279,40075
92268,39867
92210,39727
92117,39702
92047,39773
91820,40000
92117,40297
92210,40272
92279,40075
92279,41776
92237,41674
92076,41512
92047,41500
91864,41425
91636,41424
91575,41450
91374,41450
91374,40380
91407,40413
91452,40367
91477,40460
91674,40529
91882,40518
92022,40460
92047,40367
91750,40070
91744,40076
91673,40005
91679,40000
91673,39994
91744,39923
91750,39929
92047,39632
92022,39539
91825,39470
91617,39481
91477,39539
91452,39632
91407,39586
91374,39619
91374,39465
89125,39465
89125,39619
89092,39586
89047,39632
89022,39539
88825,39470
88617,39481
88477,39539
88452,39632
88750,39929
88755,39923
88826,39994
88820,40000
88826,40005
88755,40076
88750,40070
88679,40141
88679,40000
88382,39702
88289,39727
88220,39924
88231,40132
88289,40272
88382,40297
88679,40000
88679,40141
88452,40367
88477,40460
88674,40529
88882,40518
89022,40460
89047,40367
89047,40367
89092,40413
89125,40380
89125,41450
89047,41450
88924,41450
88864,41425
88636,41424
88424,41512
88262,41673
88175,41885
88174,42009
88100,42084
88100,41640
88054,41530
87970,41445
87922,41426
88008,41340
88099,41119
88100,40881
88054,40771
88054,40081
88043,39863
87981,39712
87885,39684
87815,39755
87815,39614
87787,39518
87581,39445
87363,39456
87212,39518
87184,39614
87500,39929
87815,39614
87815,39755
87570,40000
87885,40315
87981,40287
88054,40081
88054,40771
88008,40660
87840,40491
87790,40471
87815,40385
87500,40070
87429,40141
87429,40000
87114,39684
87018,39712
87001,39760
86981,39712
86885,39684
86815,39755
86815,39614
86787,39518
86581,39445
86363,39456
86212,39518
86184,39614
86500,39929
86815,39614
86815,39755
86570,40000
86885,40315
86981,40287
86998,40239
87018,40287
87114,40315
87429,40000
87429,40141
87184,40385
87203,40450
86796,40450
86815,40385
86500,40070
86429,40141
86429,40000
86114,39684
86018,39712
86001,39760
85981,39712
85885,39684
85815,39755
85815,39614
85787,39518
85581,39445
85363,39456
85212,39518
85184,39614
85500,39929
85815,39614
85815,39755
85570,40000
85885,40315
85981,40287
85998,40239
86018,40287
86114,40315
86429,40000
86429,40141
86184,40385
86203,40450
85796,40450
85815,40385
85500,40070
85429,40141
85429,40000
85114,39684
85018,39712
84945,39918
84956,40136
85018,40287
85114,40315
85429,40000
85429,40141
85184,40385
85203,40450
84750,40450
84539,40491
84361,40611
83861,41111
83741,41289
83700,41500
83700,43750
83741,43960
83861,44138
84120,44398
84100,44500
84100,44575
84020,44654
83975,44765
83974,44884
83974,45134
84020,45244
84061,45286
84024,45375
84025,45437
84087,45500
84450,45500
84450,45492
84550,45492
84550,45500
84912,45500
84975,45437
84975,45375
84938,45286
84979,45245
85024,45134
85025,45015
85025,44800
85448,44800
85699,45050
85743,45079
85705,45095
85693,45107
85674,45099
85612,45100
85550,45162
85550,45550
85557,45550
85557,45650
85550,45650
85550,46037
85600,46087
85600,46250
85600,46334
85450,46484
85450,46037
85450,45650
85450,45550
85450,45162
85387,45100
85325,45099
85233,45137
85163,45208
85125,45300
85124,45399
85125,45487
85187,45550
85450,45550
85450,45650
85187,45650
85125,45712
85124,45800
85125,45899
85163,45991
85233,46062
85325,46100
85387,46100
85450,46037
85450,46484
85217,46717
85130,46846
85125,46872
85115,46920
85055,46945
84975,47025
84975,45724
84975,45662
84912,45600
84550,45600
84550,45862
84612,45925
84675,45925
84774,45924
84866,45886
84937,45816
84975,45724
84975,47025
84970,47029
84925,47140
84924,47259
84924,47609
84970,47719
85000,47749
84970,47779
84925,47890
84924,48009
84924,48359
84970,48469
85054,48554
85100,48572
85100,48666
85030,48695
84945,48779
84900,48890
84899,49009
84899,49609
84945,49719
85029,49804
85140,49849
85188,49849
85184,49864
85500,50179
85815,49864
85811,49850
85859,49850
85969,49804
85999,49774
86029,49804
86140,49849
86188,49849
86184,49864
86500,50179
86815,49864
86811,49850
86859,49850
86969,49804
86999,49774
87029,49804
87140,49849
87188,49849
87184,49864
87500,50179
87815,49864
87811,49850
87859,49850
87969,49804
87999,49774
88029,49804
88140,49849
88188,49849
88184,49864
88500,50179
88815,49864
88811,49850
88859,49850
88969,49804
88999,49774
89029,49804
89140,49849
89188,49849
89184,49864
89500,50179
89815,49864
89811,49850
89859,49850
89969,49804
89999,49774
90029,49804
90140,49849
90188,49849
90184,49864
90500,50179
90815,49864
90811,49850
90859,49850
90969,49804
90999,49774
91029,49804
91140,49849
91188,49849
91184,49864
91500,50179
91815,49864
91811,49850
91859,49850
91969,49804
92054,49720
92099,49609
92100,49490
92100,48965
92282,48782
92282,48782
92340,48696
92369,48653
92369,48653
92384,48579
92444,48554
92529,48470
92574,48359
92575,48240
92575,47890
92529,47780
92499,47750
92529,47720
92574,47609
92575,47490
92575,47140
92531,47034
93032,46532
93032,46532
93090,46446
93119,46403
93119,46403
93149,46250
93150,46250
93150,51200
92054,51200
92054,50331
92043,50113
91981,49962
91885,49934
91570,50250
91885,50565
91981,50537
92054,50331
92054,51200
91815,51200
91815,50635
91500,50320
91429,50391
91429,50250
91114,49934
91018,49962
91001,50010
90981,49962
90885,49934
90570,50250
90885,50565
90981,50537
90998,50489
91018,50537
91114,50565
91429,50250
91429,50391
91184,50635
91212,50731
91418,50804
91636,50793
91787,50731
91815,50635
91815,51200
90815,51200
90815,50635
90500,50320
90429,50391
90429,50250
90114,49934
90018,49962
90001,50010
89981,49962
89885,49934
89570,50250
89885,50565
89981,50537
89998,50489
90018,50537
90114,50565
90429,50250
90429,50391
90184,50635
90212,50731
90418,50804
90636,50793
90787,50731
90815,50635
90815,51200
89815,51200
89815,50635
89500,50320
89429,50391
89429,50250
89114,49934
89018,49962
89001,50010
88981,49962
88885,49934
88570,50250
88885,50565
88981,50537
88998,50489
89018,50537
89114,50565
89429,50250
89429,50391
89184,50635
89212,50731
89418,50804
89636,50793
89787,50731
89815,50635
89815,51200
88815,51200
88815,50635
88500,50320
88429,50391
88429,50250
88114,49934
88018,49962
88001,50010
87981,49962
87885,49934
87570,50250
87885,50565
87981,50537
87998,50489
88018,50537
88114,50565
88429,50250
88429,50391
88184,50635
88212,50731
88418,50804
88636,50793
88787,50731
88815,50635
88815,51200
87815,51200
87815,50635
87500,50320
87429,50391
87429,50250
87114,49934
87018,49962
87001,50010
86981,49962
86885,49934
86570,50250
86885,50565
86981,50537
86998,50489
87018,50537
87114,50565
87429,50250
87429,50391
87184,50635
87212,50731
87418,50804
87636,50793
87787,50731
87815,50635
87815,51200
86815,51200
86815,50635
86500,50320
86429,50391
86429,50250
86114,49934
86018,49962
86001,50010
85981,49962
85885,49934
85570,50250
85885,50565
85981,50537
85998,50489
86018,50537
86114,50565
86429,50250
86429,50391
86184,50635
86212,50731
86418,50804
86636,50793
86787,50731
86815,50635
86815,51200
85815,51200
85815,50635
85500,50320
85429,50391
85429,50250
85114,49934
85018,49962
84945,50168
84956,50386
85018,50537
85114,50565
85429,50250
85429,50391
85184,50635
85212,50731
85418,50804
85636,50793
85787,50731
85815,50635
85815,51200
84450,51200
84450,45862
84450,45600
84087,45600
84025,45662
84024,45724
84062,45816
84133,45886
84225,45924
84324,45925
84387,45925
84450,45862
84450,51200
83050,51200
83050,39050
93700,39050
93700,51200
" /> 
</g>
<g style="fill:#000000; fill-opacity:0.0; 
stroke:#000000; stroke-width:100; stroke-opacity:1; 
stroke-linecap:round; stroke-linejoin:round;">
<polyline fill="none;"
points="93700,51200
93150,51200
93150,46250
93150,45500
93119,45346
93119,45346
93090,45303
93032,45217
93032,45217
92782,44967
92653,44880
92545,44858
92554,44831
92543,44613
92481,44462
92385,44434
92315,44505
92315,44364
92287,44268
92081,44195
91863,44206
91712,44268
91684,44364
92000,44679
92315,44364
92315,44505
92070,44750
92076,44755
92005,44826
92000,44820
91994,44826
91923,44755
91929,44750
91614,44434
91529,44459
91508,44410
91400,44301
91400,43750
91369,43596
91369,43596
91340,43553
91282,43467
91282,43467
90782,42967
90653,42880
90627,42875
90500,42850
89000,42850
88846,42880
88806,42907
88795,42895
88684,42850
88565,42849
88465,42849
88740,42574
88863,42575
88924,42550
91575,42550
91635,42574
91863,42575
92075,42487
92237,42326
92324,42114
92325,41886
92279,41776
92279,40075
92268,39867
92210,39727
92117,39702
92047,39773
91820,40000
92117,40297
92210,40272
92279,40075
92279,41776
92237,41674
92076,41512
92047,41500
91864,41425
91636,41424
91575,41450
91374,41450
91374,40380
91407,40413
91452,40367
91477,40460
91674,40529
91882,40518
92022,40460
92047,40367
91750,40070
91744,40076
91673,40005
91679,40000
91673,39994
91744,39923
91750,39929
92047,39632
92022,39539
91825,39470
91617,39481
91477,39539
91452,39632
91407,39586
91374,39619
91374,39465
89125,39465
89125,39619
89092,39586
89047,39632
89022,39539
88825,39470
88617,39481
88477,39539
88452,39632
88750,39929
88755,39923
88826,39994
88820,40000
88826,40005
88755,40076
88750,40070
88679,40141
88679,40000
88382,39702
88289,39727
88220,39924
88231,40132
88289,40272
88382,40297
88679,40000
88679,40141
88452,40367
88477,40460
88674,40529
88882,40518
89022,40460
89047,40367
89047,40367
89092,40413
89125,40380
89125,41450
89047,41450
88924,41450
88864,41425
88636,41424
88424,41512
88262,41673
88175,41885
88174,42009
88100,42084
88100,41640
88054,41530
87970,41445
87922,41426
88008,41340
88099,41119
88100,40881
88054,40771
88054,40081
88043,39863
87981,39712
87885,39684
87815,39755
87815,39614
87787,39518
87581,39445
87363,39456
87212,39518
87184,39614
87500,39929
87815,39614
87815,39755
87570,40000
87885,40315
87981,40287
88054,40081
88054,40771
88008,40660
87840,40491
87790,40471
87815,40385
87500,40070
87429,40141
87429,40000
87114,39684
87018,39712
87001,39760
86981,39712
86885,39684
86815,39755
86815,39614
86787,39518
86581,39445
86363,39456
86212,39518
86184,39614
86500,39929
86815,39614
86815,39755
86570,40000
86885,40315
86981,40287
86998,40239
87018,40287
87114,40315
87429,40000
87429,40141
87184,40385
87203,40450
86796,40450
86815,40385
86500,40070
86429,40141
86429,40000
86114,39684
86018,39712
86001,39760
85981,39712
85885,39684
85815,39755
85815,39614
85787,39518
85581,39445
85363,39456
85212,39518
85184,39614
85500,39929
85815,39614
85815,39755
85570,40000
85885,40315
85981,40287
85998,40239
86018,40287
86114,40315
86429,40000
86429,40141
86184,40385
86203,40450
85796,40450
85815,40385
85500,40070
85429,40141
85429,40000
85114,39684
85018,39712
84945,39918
84956,40136
85018,40287
85114,40315
85429,40000
85429,40141
85184,40385
85203,40450
84750,40450
84539,40491
84361,40611
83861,41111
83741,41289
83700,41500
83700,43750
83741,43960
83861,44138
84120,44398
84100,44500
84100,44575
84020,44654
83975,44765
83974,44884
83974,45134
84020,45244
84061,45286
84024,45375
84025,45437
84087,45500
84450,45500
84450,45492
84550,45492
84550,45500
84912,45500
84975,45437
84975,45375
84938,45286
84979,45245
85024,45134
85025,45015
85025,44800
85448,44800
85699,45050
85743,45079
85705,45095
85693,45107
85674,45099
85612,45100
85550,45162
85550,45550
85557,45550
85557,45650
85550,45650
85550,46037
85600,46087
85600,46250
85600,46334
85450,46484
85450,46037
85450,45650
85450,45550
85450,45162
85387,45100
85325,45099
85233,45137
85163,45208
85125,45300
85124,45399
85125,45487
85187,45550
85450,45550
85450,45650
85187,45650
85125,45712
85124,45800
85125,45899
85163,45991
85233,46062
85325,46100
85387,46100
85450,46037
85450,46484
85217,46717
85130,46846
85125,46872
85115,46920
85055,46945
84975,47025
84975,45724
84975,45662
84912,45600
84550,45600
84550,45862
84612,45925
84675,45925
84774,45924
84866,45886
84937,45816
84975,45724
84975,47025
84970,47029
84925,47140
84924,47259
84924,47609
84970,47719
85000,47749
84970,47779
84925,47890
84924,48009
84924,48359
84970,48469
85054,48554
85100,48572
85100,48666
85030,48695
84945,48779
84900,48890
84899,49009
84899,49609
84945,49719
85029,49804
85140,49849
85188,49849
85184,49864
85500,50179
85815,49864
85811,49850
85859,49850
85969,49804
85999,49774
86029,49804
86140,49849
86188,49849
86184,49864
86500,50179
86815,49864
86811,49850
86859,49850
86969,49804
86999,49774
87029,49804
87140,49849
87188,49849
87184,49864
87500,50179
87815,49864
87811,49850
87859,49850
87969,49804
87999,49774
88029,49804
88140,49849
88188,49849
88184,49864
88500,50179
88815,49864
88811,49850
88859,49850
88969,49804
88999,49774
89029,49804
89140,49849
89188,49849
89184,49864
89500,50179
89815,49864
89811,49850
89859,49850
89969,49804
89999,49774
90029,49804
90140,49849
90188,49849
90184,49864
90500,50179
90815,49864
90811,49850
90859,49850
90969,49804
90999,49774
91029,49804
91140,49849
91188,49849
91184,49864
91500,50179
91815,49864
91811,49850
91859,49850
91969,49804
92054,49720
92099,49609
92100,49490
92100,48965
92282,48782
92282,48782
92340,48696
92369,48653
92369,48653
92384,48579
92444,48554
92529,48470
92574,48359
92575,48240
92575,47890
92529,47780
92499,47750
92529,47720
92574,47609
92575,47490
92575,47140
92531,47034
93032,46532
93032,46532
93090,46446
93119,46403
93119,46403
93149,46250
93150,46250
93150,51200
92054,51200
92054,50331
92043,50113
91981,49962
91885,49934
91570,50250
91885,50565
91981,50537
92054,50331
92054,51200
91815,51200
91815,50635
91500,50320
91429,50391
91429,50250
91114,49934
91018,49962
91001,50010
90981,49962
90885,49934
90570,50250
90885,50565
90981,50537
90998,50489
91018,50537
91114,50565
91429,50250
91429,50391
91184,50635
91212,50731
91418,50804
91636,50793
91787,50731
91815,50635
91815,51200
90815,51200
90815,50635
90500,50320
90429,50391
90429,50250
90114,49934
90018,49962
90001,50010
89981,49962
89885,49934
89570,50250
89885,50565
89981,50537
89998,50489
90018,50537
90114,50565
90429,50250
90429,50391
90184,50635
90212,50731
90418,50804
90636,50793
90787,50731
90815,50635
90815,51200
89815,51200
89815,50635
89500,50320
89429,50391
89429,50250
89114,49934
89018,49962
89001,50010
88981,49962
88885,49934
88570,50250
88885,50565
88981,50537
88998,50489
89018,50537
89114,50565
89429,50250
89429,50391
89184,50635
89212,50731
89418,50804
89636,50793
89787,50731
89815,50635
89815,51200
88815,51200
88815,50635
88500,50320
88429,50391
88429,50250
88114,49934
88018,49962
88001,50010
87981,49962
87885,49934
87570,50250
87885,50565
87981,50537
87998,50489
88018,50537
88114,50565
88429,50250
88429,50391
88184,50635
88212,50731
88418,50804
88636,50793
88787,50731
88815,50635
88815,51200
87815,51200
87815,50635
87500,50320
87429,50391
87429,50250
87114,49934
87018,49962
87001,50010
86981,49962
86885,49934
86570,50250
86885,50565
86981,50537
86998,50489
87018,50537
87114,50565
87429,50250
87429,50391
87184,50635
87212,50731
87418,50804
87636,50793
87787,50731
87815,50635
87815,51200
86815,51200
86815,50635
86500,50320
86429,50391
86429,50250
86114,49934
86018,49962
86001,50010
85981,49962
85885,49934
85570,50250
85885,50565
85981,50537
85998,50489
86018,50537
86114,50565
86429,50250
86429,50391
86184,50635
86212,50731
86418,50804
86636,50793
86787,50731
86815,50635
86815,51200
85815,51200
85815,50635
85500,50320
85429,50391
85429,50250
85114,49934
85018,49962
84945,50168
84956,50386
85018,50537
85114,50565
85429,50250
85429,50391
85184,50635
85212,50731
85418,50804
85636,50793
85787,50731
85815,50635
85815,51200
84450,51200
84450,45862
84450,45600
84087,45600
84025,45662
84024,45724
84062,45816
84133,45886
84225,45924
84324,45925
84387,45925
84450,45862
84450,51200
83050,51200
83050,39050
93700,39050
93700,51200
" /> 
</g>
<g style="fill:#FFFFFF; fill-opacity:0.0; 
stroke:#FFFFFF; stroke-width:59.0551; stroke-opacity:1; 
stroke-linecap:round; stroke-linejoin:round;">
</g>
<g style="fill:#FFFFFF; fill-opacity:1.0; 
stroke:#FFFFFF; stroke-width:59.0551; stroke-opacity:1; 
stroke-linecap:round; stroke-linejoin:round;">
<circle cx="90000" cy="45750" r="39.3701" /> 
<circle cx="90000" cy="44750" r="39.3701" /> 
<circle cx="91000" cy="45750" r="39.3701" /> 
<circle cx="91000" cy="44750" r="39.3701" /> 
<circle cx="92000" cy="45750" r="39.3701" /> 
<circle cx="92000" cy="44750" r="39.3701" /> 
<circle cx="87500" cy="42000" r="39.3701" /> 
<circle cx="87500" cy="41000" r="39.3701" /> 
<circle cx="87500" cy="40000" r="39.3701" /> 
<circle cx="85500" cy="42000" r="39.3701" /> 
<circle cx="85500" cy="41000" r="39.3701" /> 
<circle cx="85500" cy="40000" r="39.3701" /> 
<circle cx="86500" cy="42000" r="39.3701" /> 
<circle cx="86500" cy="41000" r="39.3701" /> 
<circle cx="86500" cy="40000" r="39.3701" /> 
<circle cx="85500" cy="49250" r="39.3701" /> 
<circle cx="85500" cy="50250" r="39.3701" /> 
<circle cx="86500" cy="49250" r="39.3701" /> 
<circle cx="86500" cy="50250" r="39.3701" /> 
<circle cx="87500" cy="49250" r="39.3701" /> 
<circle cx="87500" cy="50250" r="39.3701" /> 
<circle cx="88500" cy="49250" r="39.3701" /> 
<circle cx="88500" cy="50250" r="39.3701" /> 
<circle cx="89500" cy="49250" r="39.3701" /> 
<circle cx="89500" cy="50250" r="39.3701" /> 
<circle cx="90500" cy="49250" r="39.3701" /> 
<circle cx="90500" cy="50250" r="39.3701" /> 
<circle cx="91500" cy="49250" r="39.3701" /> 
<circle cx="91500" cy="50250" r="39.3701" /> 
<circle cx="88750" cy="42000" r="39.3701" /> 
<circle cx="88750" cy="40000" r="39.3701" /> 
<circle cx="91750" cy="42000" r="39.3701" /> 
<circle cx="91750" cy="40000" r="39.3701" /> 
</g> 
</svg>
